<?xml version="1.0" standalone="no"?>
<!DOCTYPE svg PUBLIC "-//W3C//DTD SVG 1.1//EN" "http://www.w3.org/Graphics/SVG/1.1/DTD/svg11.dtd" >
<svg>
<metadata>
Created by FontForge 20090914 at Sun Mar  5 19:12:16 2017
 By www-data
&#194;&#169; 2000 Adobe Systems Incorporated. All Rights Reserved.
</metadata>
<defs>
<font id="ACaslonPro-BoldItalic" horiz-adv-x="500" >
  <font-face 
    font-family="Adobe Caslon Pro"
    font-weight="700"
    font-style="italic"
    font-stretch="normal"
    units-per-em="1000"
    panose-1="2 5 7 2 6 5 11 9 10 3"
    ascent="735"
    descent="-265"
    x-height="426.999"
    cap-height="672.999"
    bbox="-236.001 -700.01 1541.09 1002"
    underline-thickness="50"
    underline-position="-50"
    slope="-22"
    unicode-range="U+0020-U+FB06"
  />
<missing-glyph 
d="M50 95l170 255l-170 255v-510zM420 50l-170 255l-170 -255h340zM450 95v510l-170 -255zM420 650h-340l170 -255zM0 700h500v-700h-500v700z" />
    <glyph glyph-name="T_h" unicode="Th" horiz-adv-x="1011" 
d="M862 630l-147.995 -345.998l9 -7c11.333 18 23.833 36 37.5 54s28.334 34 44.001 48s32 25.5 49 34.5s34.5 13.5 52.5 13.5c18.667 0 33.667 -3.33301 45 -10s20.333 -15 27 -25s11.167 -21.333 13.5 -34s3.5 -25 3.5 -37c0 -36 -6.16699 -73.5 -18.5 -112.5
s-27.5 -74.5 -45.5 -106.5c-24 -41.333 -50.667 -74 -80 -98s-62 -36 -98 -36c-17.333 0 -32.166 5.33301 -44.499 16s-18.5 26.667 -18.5 48c0 12.667 3.66699 24.334 11 35.001s18.333 16 33 16c13.333 0 23.166 -4 29.499 -12s9.83301 -16.333 10.5 -25
c1.33301 -10 3 -18.5 5 -25.5s6.66699 -10.5 14 -10.5c5.33301 0 10.5 3.5 15.5 10.5s9.66699 16 14 27s8.5 23.5 12.5 37.5l12 42c8 28 15.5 58.667 22.5 92s10.5 63.333 10.5 90c0 28.667 -10 43 -30 43c-9.33301 0 -19.833 -4.33301 -31.5 -13s-23.334 -19 -35.001 -31
s-23 -24.5 -34 -37.5s-19.833 -24.167 -26.5 -33.5c-12 -16.667 -22.333 -33 -31 -49s-15.334 -29.667 -20.001 -41l-57 -140c-2.66699 -4.66699 -8.33398 -7 -17.001 -7h-80c-10 0 -13.333 4 -10 12l208 559c3.33301 7.33301 4.83301 14 4.5 20s-1.83301 12 -4.5 18
c-3.33301 8 -12.5 13.667 -27.5 17s-32.167 5.5 -51.5 6.5s-39.333 1.16699 -60 0.5s-38.334 -1 -53.001 -1l-154 -510c-9.33301 -32 -10.833 -54.333 -4.5 -67s22.166 -19 47.499 -19h39c6 0 8.33301 -3.33301 7 -10l-4 -21c-0.666992 -2.66699 -1.66699 -4.66699 -3 -6
s-4.66602 -2 -9.99902 -2c-3.33301 0 -8.83301 0.166992 -16.5 0.5s-18.834 0.666016 -33.501 0.999023s-33.667 0.666016 -57 0.999023s-52.666 0.5 -87.999 0.5c-36 0 -66.333 -0.5 -91 -1.5s-39.667 -1.5 -45 -1.5c-4 0 -6.5 0.833008 -7.5 2.5
s-1.16699 4.16699 -0.5 7.5l3 21c0.666992 2.66699 1.66699 4.66699 3 6s4 2 8 2h27c13.333 0 24.666 1.83301 33.999 5.5s17.666 9.5 24.999 17.5s13.833 18.333 19.5 31s11.167 28.334 16.5 47.001l150 495c-26.667 0 -49.5 -0.166992 -68.5 -0.5
s-35.167 -1.33301 -48.5 -3s-24.333 -4.16699 -33 -7.5s-16.334 -8 -23.001 -14l-25 -23l-31.5 -30l-32.5 -31.5c-10.667 -10.333 -19.667 -19.5 -27 -27.5c-2.66699 -2.66699 -5.66699 -3.33398 -9 -2.00098l-20 11c-3.33301 1.33301 -3.66602 4.33301 -0.999023 9
c2 4 5.16699 10.833 9.5 20.5l15 33l17.5 38.5l16.5 37l12.5 28.5c3.33301 7.66699 5 12.167 5 13.5c2 6.66699 5.33301 10 10 10c3.33301 0 6.5 -0.833008 9.5 -2.5s7.16699 -4.16699 12.5 -7.5c18.667 -9.33301 81 -14 187 -14h211c24.667 0 50.5 0.166992 77.5 0.5
s52.667 1 77 2s46.5 2.66699 66.5 5s35.667 5.16602 47 8.49902c4 1.33301 7.83301 3 11.5 5s8.16699 3 13.5 3c3.33301 0 5.83301 -1.5 7.5 -4.5s2.5 -6.5 2.5 -10.5c0 -7.33301 -2 -15.5 -6 -24.5z" />
    <glyph glyph-name="T_h.caron" unicode="&#x164;h" horiz-adv-x="1011" 
d="M625 896c3.33301 1.33301 6.33203 0.332031 8.99902 -3.00098l7 -12c0.666992 -1.33301 0 -3.66602 -2 -6.99902l-147 -147c-2.66699 -3.33301 -5.66699 -4.83301 -9 -4.5s-6 2.5 -8 6.5l-79 148c-2 3.33301 -1.33301 6 2 8l10 9c2.66699 2 6.33398 1.33301 11.001 -2
l80 -53zM861.999 629.999l-147.995 -345.998l9 -7c11.333 18 23.833 36 37.5 54s28.334 34 44.001 48s32 25.5 49 34.5s34.5 13.5 52.5 13.5c18.667 0 33.667 -3.33301 45 -10s20.333 -15 27 -25s11.167 -21.333 13.5 -34s3.5 -25 3.5 -37
c0 -36 -6.16699 -73.5 -18.5 -112.5s-27.5 -74.5 -45.5 -106.5c-24 -41.333 -50.667 -74 -80 -98s-62 -36 -98 -36c-17.333 0 -32.166 5.33301 -44.499 16s-18.5 26.667 -18.5 48c0 12.667 3.66699 24.334 11 35.001s18.333 16 33 16c13.333 0 23.166 -4 29.499 -12
s9.83301 -16.333 10.5 -25c1.33301 -10 3 -18.5 5 -25.5s6.66699 -10.5 14 -10.5c5.33301 0 10.5 3.5 15.5 10.5s9.66699 16 14 27s8.5 23.5 12.5 37.5l12 42c8 28 15.5 58.667 22.5 92s10.5 63.333 10.5 90c0 28.667 -10 43 -30 43c-9.33301 0 -19.833 -4.33301 -31.5 -13
s-23.334 -19 -35.001 -31s-23 -24.5 -34 -37.5s-19.833 -24.167 -26.5 -33.5c-12 -16.667 -22.333 -33 -31 -49s-15.334 -29.667 -20.001 -41l-57 -140c-2.66699 -4.66699 -8.33398 -7 -17.001 -7h-80c-10 0 -13.333 4 -10 12l208 559c3.33301 7.33301 4.83301 14 4.5 20
s-1.83301 12 -4.5 18c-3.33301 8 -12.5 13.667 -27.5 17s-32.167 5.5 -51.5 6.5s-39.333 1.16699 -60 0.5s-38.334 -1 -53.001 -1l-154 -510c-9.33301 -32 -10.833 -54.333 -4.5 -67s22.166 -19 47.499 -19h39c6 0 8.33301 -3.33301 7 -10l-4 -21
c-0.666992 -2.66699 -1.66699 -4.66699 -3 -6s-4.66602 -2 -9.99902 -2c-3.33301 0 -8.83301 0.166992 -16.5 0.5s-18.834 0.666016 -33.501 0.999023s-33.667 0.666016 -57 0.999023s-52.666 0.5 -87.999 0.5c-36 0 -66.333 -0.5 -91 -1.5s-39.667 -1.5 -45 -1.5
c-4 0 -6.5 0.833008 -7.5 2.5s-1.16699 4.16699 -0.5 7.5l3 21c0.666992 2.66699 1.66699 4.66699 3 6s4 2 8 2h27c13.333 0 24.666 1.83301 33.999 5.5s17.666 9.5 24.999 17.5s13.833 18.333 19.5 31s11.167 28.334 16.5 47.001l150 495
c-26.667 0 -49.5 -0.166992 -68.5 -0.5s-35.167 -1.33301 -48.5 -3s-24.333 -4.16699 -33 -7.5s-16.334 -8 -23.001 -14l-25 -23l-31.5 -30l-32.5 -31.5c-10.667 -10.333 -19.667 -19.5 -27 -27.5c-2.66699 -2.66699 -5.66699 -3.33398 -9 -2.00098l-20 11
c-3.33301 1.33301 -3.66602 4.33301 -0.999023 9c2 4 5.16699 10.833 9.5 20.5l15 33l17.5 38.5l16.5 37l12.5 28.5c3.33301 7.66699 5 12.167 5 13.5c2 6.66699 5.33301 10 10 10c3.33301 0 6.5 -0.833008 9.5 -2.5s7.16699 -4.16699 12.5 -7.5
c18.667 -9.33301 81 -14 187 -14h211c24.667 0 50.5 0.166992 77.5 0.5s52.667 1 77 2s46.5 2.66699 66.5 5s35.667 5.16602 47 8.49902c4 1.33301 7.83301 3 11.5 5s8.16699 3 13.5 3c3.33301 0 5.83301 -1.5 7.5 -4.5s2.5 -6.5 2.5 -10.5c0 -7.33301 -2 -15.5 -6 -24.5z
" />
    <glyph glyph-name="T_h.caronswash" unicode="&#xe056;h" horiz-adv-x="1041" 
d="M645 896c3.33301 1.33301 6.33203 0.332031 8.99902 -3.00098l7 -12c0.666992 -1.33301 0 -3.66602 -2 -6.99902l-147 -147c-2.66699 -3.33301 -5.66699 -4.83301 -9 -4.5s-6 2.5 -8 6.5l-79 148c-2 3.33301 -1.33301 6 2 8l10 9c2.66699 2 6.33398 1.33301 11.001 -2
l80 -53zM743.999 283.999l8.99902 -7c11.333 18 23.833 36 37.5 54s28.334 34 44.001 48s32 25.5 49 34.5s34.5 13.5 52.5 13.5c18.667 0 33.667 -3.33301 45 -10s20.333 -15 27 -25s11.167 -21.333 13.5 -34s3.5 -25 3.5 -37c0 -36 -6.16699 -73.5 -18.5 -112.5
s-27.5 -74.5 -45.5 -106.5c-24 -41.333 -50.667 -74 -80 -98s-62 -36 -98 -36c-17.333 0 -32.166 5.33301 -44.499 16s-18.5 26.667 -18.5 48c0 12.667 3.66699 24.334 11 35.001s18.333 16 33 16c13.333 0 23.166 -4 29.499 -12s9.83301 -16.333 10.5 -25
c1.33301 -10 3 -18.5 5 -25.5s6.66699 -10.5 14 -10.5c5.33301 0 10.5 3.5 15.5 10.5s9.66699 16 14 27s8.5 23.5 12.5 37.5l12 42c8 28 15.5 58.667 22.5 92s10.5 63.333 10.5 90c0 28.667 -10 43 -30 43c-9.33301 0 -19.833 -4.33301 -31.5 -13s-23.334 -19 -35.001 -31
s-23 -24.5 -34 -37.5s-19.833 -24.167 -26.5 -33.5c-12 -16.667 -22.333 -33 -31 -49s-15.334 -29.667 -20.001 -41l-57 -140c-2.66699 -4.66699 -8.33398 -7 -17.001 -7h-80c-10 0 -13.333 4 -10 12l86 232.5l55 148.5l32 86.5l16.5 45
c3.66699 10.333 6.83398 18.5 9.50098 24.5l11 26c-10 0 -24 0.5 -42 1.5s-36.833 2.16699 -56.5 3.5l-58 4c-19 1.33301 -34.833 2.66602 -47.5 3.99902l-149 -468c-10 -32 -12.833 -54.333 -8.5 -67s18.166 -19 41.499 -19h39c6 0 8.33301 -3.33301 7 -10l-4 -19
c-0.666992 -2.66699 -1.66699 -4.66699 -3 -6s-4.66602 -2 -9.99902 -2c-3.33301 0 -8.66602 0.166992 -15.999 0.5s-17.166 0.666016 -29.499 0.999023s-27.833 0.666016 -46.5 0.999023s-41.334 0.5 -68.001 0.5c-46 0 -82.167 -0.5 -108.5 -1.5
s-42.166 -1.5 -47.499 -1.5c-4 0 -6.5 0.833008 -7.5 2.5s-1.16699 4.16699 -0.5 7.5l3 19c0.666992 2.66699 1.66699 4.66699 3 6s4 2 8 2h17c14.667 0 27.167 1.83301 37.5 5.5s19.333 9.5 27 17.5s14.334 18.333 20.001 31s11.5 28.334 17.5 47.001l150 464
c-26.667 3.33301 -55.334 5.66602 -86.001 6.99902s-57 2 -79 2c-52 0 -91.833 -10.833 -119.5 -32.5s-41.5 -48.167 -41.5 -79.5c0 -4.66699 0.333008 -10 1 -16s3.66699 -12.667 9 -20c4.66699 -6 10.334 -6 17.001 0c5.33301 4 11.5 6.83301 18.5 8.5
s14.167 2.5 21.5 2.5c13.333 0 24.666 -4.66699 33.999 -14s14 -23 14 -41c0 -12 -5.33301 -24 -16 -36s-27.334 -18 -50.001 -18c-8.66699 0 -18 1.83301 -28 5.5s-19.5 10.334 -28.5 20.001s-16.5 22.334 -22.5 38.001s-9 35.5 -9 59.5c0 10 1.33301 21.333 4 34
s7.33398 26 14.001 40s15.667 28 27 42s26 26.667 44 38c22.667 14.667 50.667 26 84 34s73.666 12 120.999 12c46 0 88.333 -1.66699 127 -5s78 -7.33301 118 -12c16 -2 34.833 -4 56.5 -6s43 -3.83301 64 -5.5s40 -3 57 -4s28.833 -1.5 35.5 -1.5
c13.333 0 25.333 1.66699 36 5s16 11.333 16 24c0 3.33301 -0.666992 7.16602 -2 11.499s-3.66602 8.5 -6.99902 12.5c-2.66699 3.33301 -5.66699 7.5 -9 12.5s-5 11.167 -5 18.5c0 6.66699 2.83301 14.5 8.5 23.5s16.167 13.5 31.5 13.5c20 0 33.167 -6.33301 39.5 -19
s9.5 -26.667 9.5 -42c0 -6 -2.16699 -14.667 -6.5 -26s-9.83301 -24.666 -16.5 -39.999l-42 -96l-43 -101.5l-39 -93z" />
    <glyph glyph-name="T_h.commaaccent" unicode="&#x162;h" horiz-adv-x="1011" 
d="M193 -292c-2 0 -4.16602 0.167969 -6.49902 0.500977s-3.83301 3.16602 -4.5 8.49902c-0.666992 6.66699 2.66602 11 9.99902 13c6 1.33301 13.167 4.16602 21.5 8.49902s16.5 10 24.5 17s14.667 15 20 24s8 18.833 8 29.5c0 11.333 -2 20 -6 26s-9.66699 13 -17 21
l-14 13.5c-7.33301 7 -11 16.167 -11 27.5s3.5 21.333 10.5 30s16.833 13 29.5 13c10.667 0 20.167 -3.16699 28.5 -9.5s15.333 -14 21 -23s10 -18.667 13 -29s4.5 -19.5 4.5 -27.5c0 -27.333 -6 -50.166 -18 -68.499s-25.833 -33 -41.5 -44s-30.667 -18.833 -45 -23.5
s-23.5 -7 -27.5 -7zM862.001 630.001l-147.995 -345.998l9 -7c11.333 18 23.833 36 37.5 54s28.334 34 44.001 48s32 25.5 49 34.5s34.5 13.5 52.5 13.5c18.667 0 33.667 -3.33301 45 -10s20.333 -15 27 -25s11.167 -21.333 13.5 -34s3.5 -25 3.5 -37
c0 -36 -6.16699 -73.5 -18.5 -112.5s-27.5 -74.5 -45.5 -106.5c-24 -41.333 -50.667 -74 -80 -98s-62 -36 -98 -36c-17.333 0 -32.166 5.33301 -44.499 16s-18.5 26.667 -18.5 48c0 12.667 3.66699 24.334 11 35.001s18.333 16 33 16c13.333 0 23.166 -4 29.499 -12
s9.83301 -16.333 10.5 -25c1.33301 -10 3 -18.5 5 -25.5s6.66699 -10.5 14 -10.5c5.33301 0 10.5 3.5 15.5 10.5s9.66699 16 14 27s8.5 23.5 12.5 37.5l12 42c8 28 15.5 58.667 22.5 92s10.5 63.333 10.5 90c0 28.667 -10 43 -30 43c-9.33301 0 -19.833 -4.33301 -31.5 -13
s-23.334 -19 -35.001 -31s-23 -24.5 -34 -37.5s-19.833 -24.167 -26.5 -33.5c-12 -16.667 -22.333 -33 -31 -49s-15.334 -29.667 -20.001 -41l-57 -140c-2.66699 -4.66699 -8.33398 -7 -17.001 -7h-80c-10 0 -13.333 4 -10 12l208 559c3.33301 7.33301 4.83301 14 4.5 20
s-1.83301 12 -4.5 18c-3.33301 8 -12.5 13.667 -27.5 17s-32.167 5.5 -51.5 6.5s-39.333 1.16699 -60 0.5s-38.334 -1 -53.001 -1l-154 -510c-9.33301 -32 -10.833 -54.333 -4.5 -67s22.166 -19 47.499 -19h39c6 0 8.33301 -3.33301 7 -10l-4 -21
c-0.666992 -2.66699 -1.66699 -4.66699 -3 -6s-4.66602 -2 -9.99902 -2c-3.33301 0 -8.83301 0.166992 -16.5 0.5s-18.834 0.666016 -33.501 0.999023s-33.667 0.666016 -57 0.999023s-52.666 0.5 -87.999 0.5c-36 0 -66.333 -0.5 -91 -1.5s-39.667 -1.5 -45 -1.5
c-4 0 -6.5 0.833008 -7.5 2.5s-1.16699 4.16699 -0.5 7.5l3 21c0.666992 2.66699 1.66699 4.66699 3 6s4 2 8 2h27c13.333 0 24.666 1.83301 33.999 5.5s17.666 9.5 24.999 17.5s13.833 18.333 19.5 31s11.167 28.334 16.5 47.001l150 495
c-26.667 0 -49.5 -0.166992 -68.5 -0.5s-35.167 -1.33301 -48.5 -3s-24.333 -4.16699 -33 -7.5s-16.334 -8 -23.001 -14l-25 -23l-31.5 -30l-32.5 -31.5c-10.667 -10.333 -19.667 -19.5 -27 -27.5c-2.66699 -2.66699 -5.66699 -3.33398 -9 -2.00098l-20 11
c-3.33301 1.33301 -3.66602 4.33301 -0.999023 9c2 4 5.16699 10.833 9.5 20.5l15 33l17.5 38.5l16.5 37l12.5 28.5c3.33301 7.66699 5 12.167 5 13.5c2 6.66699 5.33301 10 10 10c3.33301 0 6.5 -0.833008 9.5 -2.5s7.16699 -4.16699 12.5 -7.5
c18.667 -9.33301 81 -14 187 -14h211c24.667 0 50.5 0.166992 77.5 0.5s52.667 1 77 2s46.5 2.66699 66.5 5s35.667 5.16602 47 8.49902c4 1.33301 7.83301 3 11.5 5s8.16699 3 13.5 3c3.33301 0 5.83301 -1.5 7.5 -4.5s2.5 -6.5 2.5 -10.5c0 -7.33301 -2 -15.5 -6 -24.5z
" />
    <glyph glyph-name="T_h.commaaccentswash" unicode="&#xe057;h" horiz-adv-x="1041" 
d="M168 -292c-2 0 -4.16602 0.167969 -6.49902 0.500977s-3.83301 3.16602 -4.5 8.49902c-0.666992 6.66699 2.66602 11 9.99902 13c6 1.33301 13.167 4.16602 21.5 8.49902s16.5 10 24.5 17s14.667 15 20 24s8 18.833 8 29.5c0 11.333 -2 20 -6 26s-9.66699 13 -17 21
l-14 13.5c-7.33301 7 -11 16.167 -11 27.5s3.5 21.333 10.5 30s16.833 13 29.5 13c10.667 0 20.167 -3.16699 28.5 -9.5s15.333 -14 21 -23s10 -18.667 13 -29s4.5 -19.5 4.5 -27.5c0 -27.333 -6 -50.166 -18 -68.499s-25.833 -33 -41.5 -44s-30.667 -18.833 -45 -23.5
s-23.5 -7 -27.5 -7zM744.001 284.001l8.99902 -7c11.333 18 23.833 36 37.5 54s28.334 34 44.001 48s32 25.5 49 34.5s34.5 13.5 52.5 13.5c18.667 0 33.667 -3.33301 45 -10s20.333 -15 27 -25s11.167 -21.333 13.5 -34s3.5 -25 3.5 -37c0 -36 -6.16699 -73.5 -18.5 -112.5
s-27.5 -74.5 -45.5 -106.5c-24 -41.333 -50.667 -74 -80 -98s-62 -36 -98 -36c-17.333 0 -32.166 5.33301 -44.499 16s-18.5 26.667 -18.5 48c0 12.667 3.66699 24.334 11 35.001s18.333 16 33 16c13.333 0 23.166 -4 29.499 -12s9.83301 -16.333 10.5 -25
c1.33301 -10 3 -18.5 5 -25.5s6.66699 -10.5 14 -10.5c5.33301 0 10.5 3.5 15.5 10.5s9.66699 16 14 27s8.5 23.5 12.5 37.5l12 42c8 28 15.5 58.667 22.5 92s10.5 63.333 10.5 90c0 28.667 -10 43 -30 43c-9.33301 0 -19.833 -4.33301 -31.5 -13s-23.334 -19 -35.001 -31
s-23 -24.5 -34 -37.5s-19.833 -24.167 -26.5 -33.5c-12 -16.667 -22.333 -33 -31 -49s-15.334 -29.667 -20.001 -41l-57 -140c-2.66699 -4.66699 -8.33398 -7 -17.001 -7h-80c-10 0 -13.333 4 -10 12l86 232.5l55 148.5l32 86.5l16.5 45
c3.66699 10.333 6.83398 18.5 9.50098 24.5l11 26c-10 0 -24 0.5 -42 1.5s-36.833 2.16699 -56.5 3.5l-58 4c-19 1.33301 -34.833 2.66602 -47.5 3.99902l-149 -468c-10 -32 -12.833 -54.333 -8.5 -67s18.166 -19 41.499 -19h39c6 0 8.33301 -3.33301 7 -10l-4 -19
c-0.666992 -2.66699 -1.66699 -4.66699 -3 -6s-4.66602 -2 -9.99902 -2c-3.33301 0 -8.66602 0.166992 -15.999 0.5s-17.166 0.666016 -29.499 0.999023s-27.833 0.666016 -46.5 0.999023s-41.334 0.5 -68.001 0.5c-46 0 -82.167 -0.5 -108.5 -1.5
s-42.166 -1.5 -47.499 -1.5c-4 0 -6.5 0.833008 -7.5 2.5s-1.16699 4.16699 -0.5 7.5l3 19c0.666992 2.66699 1.66699 4.66699 3 6s4 2 8 2h17c14.667 0 27.167 1.83301 37.5 5.5s19.333 9.5 27 17.5s14.334 18.333 20.001 31s11.5 28.334 17.5 47.001l150 464
c-26.667 3.33301 -55.334 5.66602 -86.001 6.99902s-57 2 -79 2c-52 0 -91.833 -10.833 -119.5 -32.5s-41.5 -48.167 -41.5 -79.5c0 -4.66699 0.333008 -10 1 -16s3.66699 -12.667 9 -20c4.66699 -6 10.334 -6 17.001 0c5.33301 4 11.5 6.83301 18.5 8.5
s14.167 2.5 21.5 2.5c13.333 0 24.666 -4.66699 33.999 -14s14 -23 14 -41c0 -12 -5.33301 -24 -16 -36s-27.334 -18 -50.001 -18c-8.66699 0 -18 1.83301 -28 5.5s-19.5 10.334 -28.5 20.001s-16.5 22.334 -22.5 38.001s-9 35.5 -9 59.5c0 10 1.33301 21.333 4 34
s7.33398 26 14.001 40s15.667 28 27 42s26 26.667 44 38c22.667 14.667 50.667 26 84 34s73.666 12 120.999 12c46 0 88.333 -1.66699 127 -5s78 -7.33301 118 -12c16 -2 34.833 -4 56.5 -6s43 -3.83301 64 -5.5s40 -3 57 -4s28.833 -1.5 35.5 -1.5
c13.333 0 25.333 1.66699 36 5s16 11.333 16 24c0 3.33301 -0.666992 7.16602 -2 11.499s-3.66602 8.5 -6.99902 12.5c-2.66699 3.33301 -5.66699 7.5 -9 12.5s-5 11.167 -5 18.5c0 6.66699 2.83301 14.5 8.5 23.5s16.167 13.5 31.5 13.5c20 0 33.167 -6.33301 39.5 -19
s9.5 -26.667 9.5 -42c0 -6 -2.16699 -14.667 -6.5 -26s-9.83301 -24.666 -16.5 -39.999l-42 -96l-43 -101.5l-39 -93z" />
    <glyph glyph-name="T_h.swash" unicode="&#xe04f;h" horiz-adv-x="1041" 
d="M744 284l8.99902 -7c11.333 18 23.833 36 37.5 54s28.334 34 44.001 48s32 25.5 49 34.5s34.5 13.5 52.5 13.5c18.667 0 33.667 -3.33301 45 -10s20.333 -15 27 -25s11.167 -21.333 13.5 -34s3.5 -25 3.5 -37c0 -36 -6.16699 -73.5 -18.5 -112.5
s-27.5 -74.5 -45.5 -106.5c-24 -41.333 -50.667 -74 -80 -98s-62 -36 -98 -36c-17.333 0 -32.166 5.33301 -44.499 16s-18.5 26.667 -18.5 48c0 12.667 3.66699 24.334 11 35.001s18.333 16 33 16c13.333 0 23.166 -4 29.499 -12s9.83301 -16.333 10.5 -25
c1.33301 -10 3 -18.5 5 -25.5s6.66699 -10.5 14 -10.5c5.33301 0 10.5 3.5 15.5 10.5s9.66699 16 14 27s8.5 23.5 12.5 37.5l12 42c8 28 15.5 58.667 22.5 92s10.5 63.333 10.5 90c0 28.667 -10 43 -30 43c-9.33301 0 -19.833 -4.33301 -31.5 -13s-23.334 -19 -35.001 -31
s-23 -24.5 -34 -37.5s-19.833 -24.167 -26.5 -33.5c-12 -16.667 -22.333 -33 -31 -49s-15.334 -29.667 -20.001 -41l-57 -140c-2.66699 -4.66699 -8.33398 -7 -17.001 -7h-80c-10 0 -13.333 4 -10 12l86 232.5l55 148.5l32 86.5l16.5 45
c3.66699 10.333 6.83398 18.5 9.50098 24.5l11 26c-10 0 -24 0.5 -42 1.5s-36.833 2.16699 -56.5 3.5l-58 4c-19 1.33301 -34.833 2.66602 -47.5 3.99902l-149 -468c-10 -32 -12.833 -54.333 -8.5 -67s18.166 -19 41.499 -19h39c6 0 8.33301 -3.33301 7 -10l-4 -19
c-0.666992 -2.66699 -1.66699 -4.66699 -3 -6s-4.66602 -2 -9.99902 -2c-3.33301 0 -8.66602 0.166992 -15.999 0.5s-17.166 0.666016 -29.499 0.999023s-27.833 0.666016 -46.5 0.999023s-41.334 0.5 -68.001 0.5c-46 0 -82.167 -0.5 -108.5 -1.5
s-42.166 -1.5 -47.499 -1.5c-4 0 -6.5 0.833008 -7.5 2.5s-1.16699 4.16699 -0.5 7.5l3 19c0.666992 2.66699 1.66699 4.66699 3 6s4 2 8 2h17c14.667 0 27.167 1.83301 37.5 5.5s19.333 9.5 27 17.5s14.334 18.333 20.001 31s11.5 28.334 17.5 47.001l150 464
c-26.667 3.33301 -55.334 5.66602 -86.001 6.99902s-57 2 -79 2c-52 0 -91.833 -10.833 -119.5 -32.5s-41.5 -48.167 -41.5 -79.5c0 -4.66699 0.333008 -10 1 -16s3.66699 -12.667 9 -20c4.66699 -6 10.334 -6 17.001 0c5.33301 4 11.5 6.83301 18.5 8.5
s14.167 2.5 21.5 2.5c13.333 0 24.666 -4.66699 33.999 -14s14 -23 14 -41c0 -12 -5.33301 -24 -16 -36s-27.334 -18 -50.001 -18c-8.66699 0 -18 1.83301 -28 5.5s-19.5 10.334 -28.5 20.001s-16.5 22.334 -22.5 38.001s-9 35.5 -9 59.5c0 10 1.33301 21.333 4 34
s7.33398 26 14.001 40s15.667 28 27 42s26 26.667 44 38c22.667 14.667 50.667 26 84 34s73.666 12 120.999 12c46 0 88.333 -1.66699 127 -5s78 -7.33301 118 -12c16 -2 34.833 -4 56.5 -6s43 -3.83301 64 -5.5s40 -3 57 -4s28.833 -1.5 35.5 -1.5
c13.333 0 25.333 1.66699 36 5s16 11.333 16 24c0 3.33301 -0.666992 7.16602 -2 11.499s-3.66602 8.5 -6.99902 12.5c-2.66699 3.33301 -5.66699 7.5 -9 12.5s-5 11.167 -5 18.5c0 6.66699 2.83301 14.5 8.5 23.5s16.167 13.5 31.5 13.5c20 0 33.167 -6.33301 39.5 -19
s9.5 -26.667 9.5 -42c0 -6 -2.16699 -14.667 -6.5 -26s-9.83301 -24.666 -16.5 -39.999l-42 -96l-43 -101.5l-39 -93z" />
    <glyph glyph-name="f_f_j" unicode="ffj" horiz-adv-x="818" 
d="M663 330c0 7.33301 -3.33398 12.999 -10.001 16.999s-14.334 6 -23.001 6h-115l-19.5 -76l-24 -94.5c-8.33301 -33 -17.166 -66 -26.499 -99s-18.333 -62.5 -27 -88.5c-5.33301 -16.667 -11.5 -33.334 -18.5 -50.001s-14.833 -33 -23.5 -49
c17.333 -1.33301 30.5 -7.66602 39.5 -18.999s13.5 -22.666 13.5 -33.999c0 -10 1.66699 -18.167 5 -24.5s7.33301 -9.5 12 -9.5c12.667 0 24.834 6.66699 36.501 20s23.334 32.333 35.001 57s23.667 54.667 36 90s25.166 75 38.499 119l64 207
c2.66699 7.33301 4.5 12.5 5.5 15.5s1.5 7.16699 1.5 12.5zM399.999 352.999h-163.001c-3.33301 -20.667 -8.5 -47.667 -15.5 -81l-22.5 -103l-24 -101c-8 -32 -15 -57 -21 -75c-10 -30 -21.667 -60.333 -35 -91s-28.666 -59.334 -45.999 -86.001
c22.667 6 39.834 3 51.501 -9s19.5 -26 23.5 -42c1.33301 -5.33301 4 -9.5 8 -12.5s11.333 -4.5 22 -4.5c28.667 0 54.167 21.333 76.5 64s44.166 109.334 65.499 200.001zM244.998 396.999l163.999 -0.000976562c6 15.333 11 29.833 15 43.5s8.33301 27.334 13 41.001
s10.334 27.5 17.001 41.5s15.334 29 26.001 45c-13.333 -1.33301 -26 0.5 -38 5.5s-21.333 13.167 -28 24.5c-6 10 -12.333 19 -19 27s-17 12 -31 12c-18 0 -33.333 -8 -46 -24s-23.5 -36 -32.5 -60s-16.833 -50 -23.5 -78s-12.334 -54 -17.001 -78zM326.997 -186.002
c-24 -32.667 -51.167 -59.333 -81.5 -80s-64.166 -31 -101.499 -31c-32 0 -56 7.66699 -72 23s-24.333 32 -25 50l-4 2c-16 -22.667 -35.167 -40.834 -57.5 -54.501s-47.5 -20.5 -75.5 -20.5c-27.333 0 -48.666 6.33301 -63.999 19s-23 26.334 -23 41.001
c0 14 4.33301 26.333 13 37s20.667 16 36 16c16 0 27.833 -5.16699 35.5 -15.5s12.834 -22.166 15.501 -35.499c2 -11.333 9.66699 -17 23 -17c17.333 0 36 21.5 56 64.5s38.667 109.167 56 198.5l65 342h-85c-6 0 -8.33301 3 -7 9l6 27
c0.666992 2.66699 1.66699 4.66699 3 6s4 2 8 2h84l13 48c4 15.333 9.33301 31.333 16 48s15.667 34.167 27 52.5s27 38.5 47 60.5c6 6.66699 14.667 14.167 26 22.5s24.166 16.166 38.499 23.499s29.833 13.5 46.5 18.5s33.334 7.5 50.001 7.5c38 0 66.667 -6.66699 86 -20
s30.333 -27.333 33 -42c6 6.66699 14.667 14.167 26 22.5s24.5 16.166 39.5 23.499s31.333 13.5 49 18.5s35.5 7.5 53.5 7.5c44 0 76 -7.66699 96 -23s30 -32.666 30 -51.999c0 -16 -5.16699 -29.5 -15.5 -40.5s-22.833 -16.5 -37.5 -16.5c-25.333 0 -43.333 6 -54 18
s-17 26.667 -19 44c-0.666992 5.33301 -2.83398 11.5 -6.50098 18.5s-11.167 10.5 -22.5 10.5c-17.333 0 -32.833 -8 -46.5 -24s-25.834 -36.333 -36.501 -61s-19.834 -51.667 -27.501 -81s-14.5 -57.333 -20.5 -84h84c24.667 0 45.334 1 62.001 3s30.667 4.66699 42 8
s21 6.33301 29 9s16.667 4 26 4c10 0 16.5 -2.5 19.5 -7.5s4.5 -13.167 4.5 -24.5c0 -8 -2.83301 -25.5 -8.5 -52.5s-15.167 -59.833 -28.5 -98.5l-58 -173c-4 -12 -9.83301 -27.5 -17.5 -46.5s-17.334 -39.5 -29.001 -61.5s-25.167 -44 -40.5 -66s-32.5 -42 -51.5 -60
s-39.667 -32.667 -62 -44s-46.5 -17 -72.5 -17s-46.833 4.5 -62.5 13.5s-26.5 19.167 -32.5 30.5z" />
    <glyph glyph-name="f_j" unicode="fj" horiz-adv-x="547" 
d="M387 326c0 7.33301 -3.5 13.499 -10.5 18.499s-14.167 7.5 -21.5 7.5h-114c-6 -20.667 -12.833 -46.167 -20.5 -76.5l-25 -97.5l-28.5 -106c-10 -36 -20.333 -69.667 -31 -101c-8 -24 -18.667 -49.333 -32 -76c17.333 -1.33301 30.166 -7.66602 38.499 -18.999
s12.5 -22.666 12.5 -33.999c0 -10 1.66699 -18.167 5 -24.5s7.33301 -9.5 12 -9.5c12.667 0 24.834 6.66699 36.501 20s23.334 32.333 35.001 57s23.667 54.667 36 90s25.166 75 38.499 119l64 207c1.33301 5.33301 2.5 9.66602 3.5 12.999s1.5 7.33301 1.5 12zM53 -185.001
l0.00292969 -1.00293c-23.333 -31.333 -49.5 -57.666 -78.5 -78.999s-60.167 -32 -93.5 -32c-30 0 -53 5.83301 -69 17.5s-24 26.5 -24 44.5c0 16.667 4 30 12 40s19.667 15 35 15c17.333 0 30.333 -5.83301 39 -17.5s13.334 -24.167 14.001 -37.5c0 -11.333 9 -17 27 -17
c22 0 43.167 20.833 63.5 62.5s41.166 108.5 62.499 200.5l81 342h-89c-4.66699 0 -6.66699 3.33301 -6 10l4 21c1.33301 5.33301 2.66602 8.83301 3.99902 10.5s4 2.5 8 2.5h89c6 18.667 11.167 36.334 15.5 53.001s10.166 33.5 17.499 50.5s17.166 34.833 29.499 53.5
s29.166 39.667 50.499 63c6 6.66699 14.667 14 26 22s24.333 15.667 39 23s30.667 13.5 48 18.5s34.666 7.5 51.999 7.5c23.333 0 42.833 -2.16699 58.5 -6.5s28.334 -9.83301 38.001 -16.5s16.667 -14.5 21 -23.5s6.5 -17.833 6.5 -26.5
c-2.66699 -17.333 -8.33398 -31.666 -17.001 -42.999s-23 -17 -43 -17c-15.333 0 -29.166 4.5 -41.499 13.5s-19.166 19.5 -20.499 31.5c-1.33301 14 -4.16602 25.333 -8.49902 34s-10.5 13 -18.5 13c-19.333 0 -36 -8 -50 -24s-26.333 -36.333 -37 -61
s-19.834 -51.667 -27.501 -81s-14.5 -57.333 -20.5 -84h82c24.667 0 45.334 1 62.001 3s30.667 4.66699 42 8s21 6.33301 29 9s17.333 4 28 4c10 0 16.333 -2.5 19 -7.5s4 -13.167 4 -24.5c0 -8 -2.83301 -25.5 -8.5 -52.5s-15.167 -59.833 -28.5 -98.5l-58 -173
c-4 -12 -9.83301 -27.5 -17.5 -46.5s-17.334 -39.5 -29.001 -61.5s-25.167 -44 -40.5 -66s-32.5 -42 -51.5 -60s-39.667 -32.667 -62 -44s-46.5 -17 -72.5 -17s-46.833 4.5 -62.5 13.5s-26.5 19.5 -32.5 31.5z" />
    <glyph glyph-name="ff" unicode="ff" horiz-adv-x="585" 
d="M238 353c-3.33301 -20.667 -8.33203 -47.6689 -14.999 -81.002s-14 -67.666 -22 -102.999l-24 -101c-8 -32 -15 -57 -21 -75c-10 -30 -21.5 -60.333 -34.5 -91s-28.167 -58.667 -45.5 -84c20.667 4.66699 36.834 1 48.501 -11s19.5 -26 23.5 -42
c1.33301 -5.33301 4.16602 -9.5 8.49902 -12.5s13.166 -4.5 26.499 -4.5c26 0 50 21.333 72 64s43.667 109.334 65 200.001l80 341h-162zM409.001 396.998c4.66699 15.333 8.83301 29.832 12.5 43.499s8 27.334 13 41.001s11 27.5 18 41.5s15.833 29 26.5 45
c-13.333 -0.666992 -25.833 1.33301 -37.5 6s-20.5 12.667 -26.5 24c-6 10 -12.5 19 -19.5 27s-17.5 12 -31.5 12c-17.333 0 -32.166 -8 -44.499 -24s-23 -36 -32 -60s-16.833 -50 -23.5 -78s-12.334 -54 -17.001 -78h162zM38 352.997
c-6 0 -8.33594 3.00098 -7.00293 9.00098l6 27c0.666992 2.66699 1.66699 4.66699 3 6s4 2 8 2h84l13 48c4 15.333 9.33301 31.333 16 48s15.667 34.167 27 52.5s27 38.5 47 60.5c6 6.66699 14.667 14.167 26 22.5s24.166 16.166 38.499 23.499s29.5 13.5 45.5 18.5
s32 7.5 48 7.5c22 0 40.5 -2 55.5 -6s27.333 -9 37 -15s16.834 -12.667 21.501 -20s7.33398 -14.666 8.00098 -21.999v1c6 6.66699 14.667 14.167 26 22.5s24.166 16.166 38.499 23.499s29.5 13.5 45.5 18.5s32 7.5 48 7.5c21.333 0 39.5 -2.16699 54.5 -6.5
s27.167 -9.83301 36.5 -16.5s16 -14.5 20 -23.5s6 -17.833 6 -26.5c0 -12.667 -4.83301 -24.167 -14.5 -34.5s-21.834 -15.5 -36.501 -15.5c-21.333 0 -36.333 4.83301 -45 14.5s-14.667 22.5 -18 38.5c-1.33301 5.33301 -4.16602 11.5 -8.49902 18.5
s-12.166 10.5 -23.499 10.5c-16.667 0 -31 -8 -43 -24s-22.667 -36.333 -32 -61s-17.5 -51.667 -24.5 -81l-19.5 -84h105c5.33301 0 7.66602 -3 6.99902 -9l-5 -25c-0.666992 -6.66699 -4.33398 -10 -11.001 -10h-104l-19.5 -76l-24 -94.5
c-8.33301 -33 -17.166 -66 -26.499 -99s-18.333 -62.5 -27 -88.5c-12 -36 -26.833 -71.333 -44.5 -106s-38 -65.834 -61 -93.501s-48.5 -50 -76.5 -67s-58.667 -25.5 -92 -25.5c-32.667 0 -57.167 7.66699 -73.5 23s-24.5 32 -24.5 50l-2 2
c-17.333 -22.667 -37.166 -40.834 -59.499 -54.501s-47.833 -20.5 -76.5 -20.5c-27.333 0 -48.666 6.33301 -63.999 19s-23 26.334 -23 41.001c0 14 4.33301 26.333 13 37s20.667 16 36 16c16 0 27.833 -5.16699 35.5 -15.5s12.834 -22.166 15.501 -35.499
c2 -11.333 9.66699 -17 23 -17c17.333 0 36 21.5 56 64.5s38.667 109.167 56 198.5l65 342h-85z" />
    <glyph glyph-name="fi" unicode="fi" horiz-adv-x="547" 
d="M33 353c-4.66699 0 -6.66797 3.33105 -6.00098 9.99805l4 21c1.33301 5.33301 2.66602 8.83301 3.99902 10.5s4 2.5 8 2.5h89c6 18.667 11.167 36.334 15.5 53.001s10.166 33.5 17.499 50.5s17.166 34.833 29.499 53.5s29.166 39.667 50.499 63
c6 6.66699 14.667 14 26 22s24.333 15.667 39 23s30.667 13.5 48 18.5s34.666 7.5 51.999 7.5c23.333 0 42.833 -2.16699 58.5 -6.5s28.334 -9.83301 38.001 -16.5s16.667 -14.5 21 -23.5s6.5 -17.833 6.5 -26.5c-2.66699 -17.333 -8.33398 -31.666 -17.001 -42.999
s-23 -17 -43 -17c-15.333 0 -29.166 4.5 -41.499 13.5s-19.166 19.5 -20.499 31.5c-1.33301 14 -4.16602 25.333 -8.49902 34s-10.5 13 -18.5 13c-19.333 0 -36 -8 -50 -24s-26.333 -36.333 -37 -61s-19.834 -51.667 -27.501 -81s-14.5 -57.333 -20.5 -84h82
c24.667 0 45.334 1 62.001 3s30.667 4.66699 42 8s21 6.33301 29 9s17.333 4 28 4c8 0 14 -3.5 18 -10.5s6 -14.5 6 -22.5c0 -11.333 -2.83301 -25.5 -8.5 -42.5l-22.5 -64.5l-54 -153c-6 -18.667 -10.167 -32.167 -12.5 -40.5s-3.5 -15.166 -3.5 -20.499
c0 -3.33301 0.833008 -6.5 2.5 -9.5s5.16699 -4.5 10.5 -4.5c4.66699 0 11 2.83301 19 8.5s15.833 12 23.5 19s14.5 14 20.5 21s9.66699 11.5 11 13.5c2.66699 3.33301 5.33398 3.66602 8.00098 0.999023l12 -12c2.66699 -2.66699 3 -6 1 -10
c-1.33301 -2 -6.16602 -8.5 -14.499 -19.5s-20.666 -22.833 -36.999 -35.5s-36.833 -24 -61.5 -34s-53.334 -15 -86.001 -15c-12 0 -20.667 3.16699 -26 9.5s-8 13.166 -8 20.499c0 4.66699 1 11.167 3 19.5s5.33301 19.5 10 33.5l18 52l27 75l27 79
c4.66699 13.333 7.66699 23.5 9 30.5s2 12.833 2 17.5c0 7.33301 -3.5 13.5 -10.5 18.5s-14.167 7.5 -21.5 7.5h-114c-6 -20.667 -12.833 -46.167 -20.5 -76.5l-25 -97.5l-28.5 -106c-10 -36 -20.333 -69.667 -31 -101c-9.33301 -27.333 -22.166 -56.666 -38.499 -87.999
s-35.5 -60.333 -57.5 -87s-46.5 -49 -73.5 -67s-55.5 -27 -85.5 -27s-53 5.83301 -69 17.5s-24 26.5 -24 44.5c0 16.667 4 30 12 40s19.667 15 35 15c17.333 0 30.333 -5.83301 39 -17.5s13.334 -24.167 14.001 -37.5c0 -11.333 9 -17 27 -17c22 0 43.167 20.833 63.5 62.5
s41.166 108.5 62.499 200.5l81 342h-89z" />
    <glyph glyph-name="fl" unicode="fl" horiz-adv-x="534" 
d="M407 397l64.998 171.999c12 30 10 50.333 -6 61c-9.33301 6 -20.166 10.333 -32.499 13s-23.833 4 -34.5 4c-22.667 0 -42.167 -8.16699 -58.5 -24.5s-30.166 -37 -41.499 -62s-21 -52.167 -29 -81.5s-15 -56.666 -21 -81.999h158zM32.998 352.999
c-4.66699 0 -6.66992 3.33105 -6.00293 9.99805l4 24c0.666992 6.66699 4.66699 10 12 10h89c6 18.667 11.333 36.334 16 53.001s10.667 33.5 18 50.5s17 34.833 29 53.5s28.667 39.667 50 63c6 6.66699 14.5 14 25.5 22s24.167 15.667 39.5 23s32.333 13.5 51 18.5
s39 7.5 61 7.5c14 0 29.5 -0.833008 46.5 -2.5s33.5 -4.16699 49.5 -7.5s30.833 -7.16602 44.5 -11.499s24.167 -8.83301 31.5 -13.5c6.66699 -4 11 -9.33301 13 -16s1.66699 -13 -1 -19l-192 -519c-5.33301 -14 -7.5 -24.667 -6.5 -32s6.16699 -11 15.5 -11
c6 0 12.5 2 19.5 6s14 8.66699 21 14s13.333 10.666 19 15.999l13.5 13c2.66699 2.66699 5.66699 2.66699 9 0l11 -12c2 -3.33301 2 -7 0 -11c-1.33301 -2 -7 -7.83301 -17 -17.5s-23.167 -20 -39.5 -31s-35.666 -21 -57.999 -30s-46.5 -13.5 -72.5 -13.5
c-11.333 0 -21.666 5 -30.999 15s-14 19 -14 27c0 4 1 9.83301 3 17.5s4.33301 16 7 25s5.66699 18.167 9 27.5l9 25l80 226h-151l-19 -76.5c-7.33301 -30.333 -15.666 -62.833 -24.999 -97.5s-19.333 -70 -30 -106s-21.334 -69.667 -32.001 -101
c-9.33301 -27.333 -22.166 -56.666 -38.499 -87.999s-35.5 -60.5 -57.5 -87.5s-46.333 -49.333 -73 -67s-55 -26.5 -85 -26.5s-53 6 -69 18s-24 27.333 -24 46c0 16.667 4.16699 30.167 12.5 40.5s19.833 15.5 34.5 15.5c8.66699 0 16.167 -2 22.5 -6s11.666 -9 15.999 -15
s7.83301 -12.333 10.5 -19s4.33398 -12.667 5.00098 -18c1.33301 -11.333 8.33301 -17 21 -17c24.667 0 47.667 22.5 69 67.5s42 110.167 62 195.5l82 342h-90z" />
    <glyph glyph-name="ffi" unicode="ffi" horiz-adv-x="818" 
d="M237 353c-3.33301 -20.667 -8.50098 -47.667 -15.501 -81l-22.5 -103l-24 -101c-8 -32 -15 -57 -21 -75c-10 -30 -21.667 -60.333 -35 -91s-28.666 -59.334 -45.999 -86.001c22.667 6 39.834 3 51.501 -9s19.5 -26 23.5 -42c1.33301 -5.33301 4 -9.5 8 -12.5
s11.333 -4.5 22 -4.5c28.667 0 54.167 21.333 76.5 64s44.166 109.334 65.499 200.001l80 341h-163zM408.999 397c6 15.333 10.999 29.832 14.999 43.499s8.33301 27.334 13 41.001s10.334 27.5 17.001 41.5s15.334 29 26.001 45c-13.333 -1.33301 -26 0.5 -38 5.5
s-21.333 13.167 -28 24.5c-6 10 -12.333 19 -19 27s-17 12 -31 12c-18 0 -33.333 -8 -46 -24s-23.5 -36 -32.5 -60s-16.833 -50 -23.5 -78s-12.334 -54 -17.001 -78h164zM37.998 352.999c-6 0 -8.33691 3.00098 -7.00391 9.00098l6 27c0.666992 2.66699 1.66699 4.66699 3 6
s4 2 8 2h84l13 48c4 15.333 9.33301 31.333 16 48s15.667 34.167 27 52.5s27 38.5 47 60.5c6 6.66699 14.667 14.167 26 22.5s24.166 16.166 38.499 23.499s29.833 13.5 46.5 18.5s33.334 7.5 50.001 7.5c20.667 0 38.5 -2 53.5 -6s27.167 -9 36.5 -15
s16.333 -12.667 21 -20s7.33398 -14.666 8.00098 -21.999v1c6 6.66699 14.667 14.167 26 22.5s24.5 16.166 39.5 23.499s31.333 13.5 49 18.5s35.5 7.5 53.5 7.5c44 0 76 -7.66699 96 -23s30 -32.666 30 -51.999c0 -16 -5.16699 -29.5 -15.5 -40.5
s-22.833 -16.5 -37.5 -16.5c-25.333 0 -43.333 6 -54 18s-17 26.667 -19 44c-0.666992 5.33301 -2.83398 11.5 -6.50098 18.5s-11.167 10.5 -22.5 10.5c-17.333 0 -32.833 -8 -46.5 -24s-25.834 -36.333 -36.501 -61s-19.834 -51.667 -27.501 -81s-14.5 -57.333 -20.5 -84
h84c24.667 0 45.334 1 62.001 3s30.667 4.66699 42 8s21 6.33301 29 9s16.667 4 26 4c8 0 14 -3.5 18 -10.5s6 -14.5 6 -22.5c0 -11.333 -2.83301 -25.5 -8.5 -42.5l-22.5 -64.5l-54 -153c-6 -18.667 -10.167 -32.167 -12.5 -40.5s-3.5 -15.166 -3.5 -20.499
c0 -3.33301 0.833008 -6.5 2.5 -9.5s5.16699 -4.5 10.5 -4.5c4.66699 0 11 2.83301 19 8.5s15.833 12 23.5 19s14.5 14 20.5 21s9.66699 11.5 11 13.5c2.66699 3.33301 5.33398 3.66602 8.00098 0.999023l12 -12c2.66699 -2.66699 3 -6 1 -10
c-1.33301 -2 -6.16602 -8.5 -14.499 -19.5s-20.5 -22.833 -36.5 -35.5s-35.833 -24 -59.5 -34s-51.5 -15 -83.5 -15c-12 0 -20.667 3.16699 -26 9.5s-8 13.166 -8 20.499c0 4.66699 1 11.167 3 19.5s5.33301 19.5 10 33.5l18 52l27 75l27 79
c4.66699 13.333 7.66699 23.5 9 30.5s2 12.833 2 17.5c0 7.33301 -3.66699 13.5 -11 18.5s-15.333 7.5 -24 7.5h-115l-19.5 -76l-24 -94.5c-8.33301 -33 -17.166 -66 -26.499 -99s-18.333 -62.5 -27 -88.5c-12 -36 -26.833 -71.333 -44.5 -106s-38 -65.834 -61 -93.501
s-48.5 -50 -76.5 -67s-58.667 -25.5 -92 -25.5c-32 0 -56 7.66699 -72 23s-24.333 32 -25 50l-4 2c-16 -22.667 -35.167 -40.834 -57.5 -54.501s-47.5 -20.5 -75.5 -20.5c-27.333 0 -48.666 6.33301 -63.999 19s-23 26.334 -23 41.001c0 14 4.33301 26.333 13 37
s20.667 16 36 16c16 0 27.833 -5.16699 35.5 -15.5s12.834 -22.166 15.501 -35.499c2 -11.333 9.66699 -17 23 -17c17.333 0 36 21.5 56 64.5s38.667 109.167 56 198.5l65 342h-85z" />
    <glyph glyph-name="ffl" unicode="ffl" horiz-adv-x="810" 
d="M688 397l64.999 171.998c11.333 30.667 8.33301 51.334 -9 62.001c-9.33301 5.33301 -20 9.33301 -32 12s-24.333 4 -37 4c-23.333 0 -43.166 -8.16699 -59.499 -24.5s-30.333 -37 -42 -62s-21.5 -52.167 -29.5 -81.5s-15 -56.666 -21 -81.999h165zM235.999 352.998
c-3.33301 -20.667 -8.33105 -47.6719 -14.998 -81.0049s-14 -67.666 -22 -102.999s-16.167 -69 -24.5 -101s-15.5 -57 -21.5 -75c-10 -30 -21.5 -60.333 -34.5 -91s-27.833 -58.667 -44.5 -84c10.667 2.66699 20.167 2.83398 28.5 0.500977s15.333 -6.16602 21 -11.499
s10.5 -11.666 14.5 -18.999s7 -15 9 -23c1.33301 -5.33301 4.16602 -9.5 8.49902 -12.5s11.833 -4.5 22.5 -4.5c28.667 0 54.167 21.333 76.5 64s44.166 109.334 65.499 200.001l81 341h-165zM411.001 396.993l11.499 43.499c3.66699 13.667 8 27.334 13 41.001
s11.167 27.5 18.5 41.5s16.666 28.667 27.999 44c-29.333 -1.33301 -51.666 8.66699 -66.999 30c-7.33301 10.667 -14.166 20 -20.499 28s-16.5 12 -30.5 12c-17.333 0 -32.333 -8 -45 -24s-23.667 -36 -33 -60s-17.5 -50 -24.5 -78s-12.833 -54 -17.5 -78h167zM38 352.992
c-6 0 -8.33594 3.00195 -7.00293 9.00195l6 27c0.666992 2.66699 1.66699 4.66699 3 6s4 2 8 2h84l13 48c4 15.333 9.33301 31.333 16 48s15.667 34.167 27 52.5s27 38.5 47 60.5c6 6.66699 14.667 14.167 26 22.5s24.166 16.166 38.499 23.499s29.833 13.5 46.5 18.5
s33 7.5 49 7.5c21.333 0 39.5 -2 54.5 -6s27.333 -9 37 -15s17 -12.667 22 -20s8.5 -14.333 10.5 -21c6 6.66699 14.667 14.167 26 22.5s24.666 16.166 39.999 23.499s32.333 13.5 51 18.5s39 7.5 61 7.5c13.333 0 28.333 -0.833008 45 -2.5s32.834 -4.16699 48.501 -7.5
s30.334 -7.16602 44.001 -11.499s24.167 -8.83301 31.5 -13.5c6.66699 -4 11 -9.33301 13 -16s1.66699 -13 -1 -19l-192 -519c-5.33301 -14 -7.5 -24.667 -6.5 -32s6.16699 -11 15.5 -11c6 0 12.5 2 19.5 6s14 8.66699 21 14s13.333 10.666 19 15.999l13.5 13
c2.66699 2.66699 5.66699 2.66699 9 0l11 -12c2 -3.33301 2 -7 0 -11c-1.33301 -2 -6.83301 -7.83301 -16.5 -17.5s-22.667 -20 -39 -31s-35.166 -21 -56.499 -30s-44 -13.5 -68 -13.5c-11.333 0 -21.666 5 -30.999 15s-14 19 -14 27c0 4 1 9.83301 3 17.5s4.33301 16 7 25
s5.66699 18.167 9 27.5l9 25l81 226h-157l-19.5 -76l-24 -94.5c-8.33301 -33 -17.166 -66 -26.499 -99s-18.333 -62.5 -27 -88.5c-12 -36 -26.833 -71.333 -44.5 -106s-37.834 -65.834 -60.501 -93.501s-48 -50 -76 -67s-59 -25.5 -93 -25.5c-32 0 -56 7.66699 -72 23
s-24.333 32 -25 50l-4 2c-16 -22.667 -35 -40.834 -57 -54.501s-47.333 -20.5 -76 -20.5c-27.333 0 -48.666 6.33301 -63.999 19s-23 26.334 -23 41.001c0 14 4.33301 26.333 13 37s20.667 16 36 16c16 0 27.833 -5.16699 35.5 -15.5s12.834 -22.166 15.501 -35.499
c2 -11.333 9.66699 -17 23 -17c17.333 0 36.166 21.5 56.499 64.5s38.833 109.167 55.5 198.5l65 342h-85z" />
    <glyph glyph-name=".notdef" 
d="M50 95l170 255l-170 255v-510zM420 50l-170 255l-170 -255h340zM450 95v510l-170 -255zM420 650h-340l170 -255zM0 700h500v-700h-500v700z" />
    <glyph glyph-name="space" unicode=" " horiz-adv-x="200" 
 />
    <glyph glyph-name="exclam" unicode="!" horiz-adv-x="267" 
d="M272 685c22 0 37.999 -4.66797 47.999 -14.001s15 -19.333 15 -30c0 -7.33301 -1.5 -15.666 -4.5 -24.999s-6.16699 -18.333 -9.5 -27c-0.666992 -2 -5.5 -12.667 -14.5 -32l-32.5 -71.5l-41.5 -91l-41.5 -90.5l-32.5 -71c-9 -19.333 -13.833 -30 -14.5 -32
c-1.33301 -2 -3.33301 -3.83301 -6 -5.5s-7 -2.5 -13 -2.5c-5.33301 0 -9 2 -11 6s-2.33301 9 -1 15c2 7.33301 5.16699 22.333 9.5 45l15 79.5l17.5 95.5l17 93l13.5 72c3.66699 19.333 5.83398 30.333 6.50098 33c4 18 12.333 31.333 25 40s31 13 55 13zM82.999 -10.001
c-4 0 -9.33203 1.16602 -15.999 3.49902s-13 6 -19 11s-11.333 11.667 -16 20s-7 18.5 -7 30.5c0 19.333 6 35.5 18 48.5s27.667 19.5 47 19.5c10 0 18.667 -2 26 -6s13.666 -9.16699 18.999 -15.5s9.33301 -13.166 12 -20.499s4 -14.333 4 -21
c0 -19.333 -6 -35.833 -18 -49.5s-28.667 -20.5 -50 -20.5z" />
    <glyph glyph-name="quotedbl" unicode="&#x22;" horiz-adv-x="230" 
d="M238 448c2.66699 12.667 5.83398 29.333 9.50098 50s7.16699 41.5 10.5 62.5s6.66602 40.333 9.99902 58s6 30.167 8 37.5c4 12 11.333 19.833 22 23.5s23 5.5 37 5.5c26.667 0 40 -11 40 -33c0 -4.66699 -3.83301 -14.5 -11.5 -29.5l-28 -52.5l-35 -64.5
c-12.333 -23 -23.5 -44.833 -33.5 -65.5zM93 447.999c2.66699 12.667 5.83496 29.334 9.50195 50.001s7.16699 41.5 10.5 62.5s6.66602 40.333 9.99902 58s6 30.167 8 37.5c4 12 11.333 19.833 22 23.5s23 5.5 37 5.5c26.667 0 40 -11.333 40 -34
c0 -5.33301 -3.5 -15 -10.5 -29l-26.5 -50.5l-35 -63.5c-12.667 -22.667 -24.334 -45.334 -35.001 -68.001z" />
    <glyph glyph-name="numbersign" unicode="#" 
d="M205 181l-58.999 -181.001c-3.33301 -10 -6.66602 -15 -9.99902 -15h-58c-4.66699 0 -5.66699 4.33301 -3 13l60 183h-80c-8.66699 0 -12 4 -10 12l18 53c3.33301 8 6 12.833 8 14.5s4.66699 2.5 8 2.5h80l37 116h-82c-12 0 -16.333 4.66699 -13 14l17 57
c2.66699 7.33301 7.66699 11 15 11h86l56 175c2 6 5.66699 9 11 9h53c6 0 8 -3 6 -9l-56 -175h77l55 171c2.66699 8.66699 7 13 13 13h50c7.33301 0 9.66602 -4.33301 6.99902 -13l-55 -171h84c8.66699 0 11.334 -4.66699 8.00098 -14l-19 -55
c-3.33301 -8.66699 -9.33301 -13 -18 -13h-75l-37 -116h90c3.33301 0 6.16602 -1.16699 8.49902 -3.5s2.5 -6.16602 0.5 -11.499l-20 -58c-2.66699 -6 -9.33398 -9 -20.001 -9h-85l-60 -185c-2 -7.33301 -5 -11 -9 -11h-60c-3.33301 0 -4 3.33301 -2 10l61 186h-78z
M347.001 378.999h-81l-37 -116h80z" />
    <glyph glyph-name="dollar" unicode="$" 
d="M199 75c8 -3.33301 15.833 -5.83203 23.5 -7.49902s14.167 -2.83398 19.5 -3.50098l47 181l-37 34zM278 70.001c18 4 33.832 12.833 47.499 26.5s20.5 32.167 20.5 55.5c0 13.333 -2.66699 24.833 -8 34.5s-12.666 19.5 -21.999 29.5zM280.999 400.001l37.001 -30l49 191
c-10.667 6 -24.334 9.66699 -41.001 11zM291 568.001c-22.667 -4 -39.5 -13.5 -50.5 -28.5s-16.5 -31.167 -16.5 -48.5c0 -24.667 10 -46 30 -64zM346 346.001c22.667 -17.333 41.8311 -37.332 57.498 -59.999s23.5 -53.334 23.5 -92.001c0 -24 -4 -45.5 -12 -64.5
s-19 -35.5 -33 -49.5s-30.5 -25.333 -49.5 -34s-39.833 -14.334 -62.5 -17.001l-23 -96c-2 -8 -5 -11.333 -9 -10l-21 6c-4 0.666992 -5 5.33398 -3 14.001l21 83c-14.667 0 -29.667 1.66699 -45 5l-25 -101c-1.33301 -5.33301 -4 -7.33301 -8 -6l-21 5
c-4 0.666992 -5 5 -3 13l25 99c-12 5.33301 -22.5 10.666 -31.5 15.999s-16.833 10.666 -23.5 15.999c-9.33301 7.33301 -17 11 -23 11c-3.33301 0 -6.66602 -1.5 -9.99902 -4.5s-8.33301 -10.167 -15 -21.5c-4 -6 -7.66699 -7.66699 -11 -5l-9 5
c-3.33301 1.33301 -4 4.33301 -2 9l63 178c2 6 5 8.33301 9 7l14 -4c2 -1.33301 3.66699 -2.66602 5 -3.99902s1.33301 -3.66602 0 -6.99902c-8.66699 -34.667 -8.16699 -63.334 1.5 -86.001s24.167 -41.667 43.5 -57l55 209c-24 21.333 -44.167 44.833 -60.5 70.5
s-24.5 57.167 -24.5 94.5c0 12.667 3 26.834 9 42.501s15.5 30.334 28.5 44.001s29.667 25.5 50 35.5s44.5 16 72.5 18l20 79c1.33301 5.33301 4 7.66602 8 6.99902l22 -3c3.33301 -1.33301 4 -5.33301 2 -12l-18 -70c16 -1.33301 30 -3.33301 42 -6l19 79
c1.33301 4.66699 4.33301 6.66699 9 6l18 -3c5.33301 -0.666992 7 -4.66699 5 -12l-20 -79c11.333 -4 19.833 -8 25.5 -12s10.834 -6 15.501 -6c5.33301 0 9.66602 6.33301 12.999 19c2 5.33301 4.33301 8 7 8l13 -3c2.66699 -1.33301 3.66699 -4.33301 3 -9l-25 -155
c-1.33301 -6 -3.66602 -9 -6.99902 -9l-16 3c-4 0 -6 3 -6 9c0 18 -2.33301 36.333 -7 55s-13.667 33.667 -27 45z" />
    <glyph glyph-name="percent" unicode="%" horiz-adv-x="750" 
d="M637 353c-10.667 0 -21.667 -5.49707 -33 -16.4971s-22.333 -25.333 -33 -43s-20.667 -37.334 -30 -59.001s-17.666 -43 -24.999 -64s-13 -40.5 -17 -58.5s-6 -32.333 -6 -43c0 -12 2.66699 -22.167 8 -30.5s13 -12.5 23 -12.5c10.667 0 21.667 5.83301 33 17.5
s22.333 26.667 33 45s20.667 38.666 30 60.999s17.666 44 24.999 65s13 40.167 17 57.5s6 30.333 6 39c0 14 -2.16699 24.167 -6.5 30.5s-12.5 10.166 -24.5 11.499zM636 387.003c38.667 0 65.999 -9.83398 81.999 -29.501s24 -44.5 24 -74.5
c0 -33.333 -4.83301 -67.166 -14.5 -101.499s-23.667 -65.5 -42 -93.5s-40.666 -50.833 -66.999 -68.5s-56.166 -26.5 -89.499 -26.5c-20.667 0 -38 3.16699 -52 9.5s-25.333 14.833 -34 25.5s-14.834 23 -18.501 37s-5.5 28.667 -5.5 44c0 30 4.83301 61.333 14.5 94
s23.667 62.667 42 90s41 49.833 68 67.5s57.833 26.5 92.5 26.5zM276.999 645.002c38.667 0 65.999 -9.83398 81.999 -29.501s24 -44.5 24 -74.5c0 -33.333 -4.83301 -67.166 -14.5 -101.499s-23.667 -65.5 -42 -93.5s-40.666 -50.833 -66.999 -68.5
s-56.166 -26.5 -89.499 -26.5c-20.667 0 -38 3.16699 -52 9.5s-25.333 14.833 -34 25.5s-14.834 23 -18.501 37s-5.5 28.667 -5.5 44c0 30 4.83301 61.333 14.5 94s23.667 62.667 42 90s41 49.833 68 67.5s57.833 26.5 92.5 26.5zM623.998 626.001
c3.33301 -1.33301 4.99902 -3.33301 4.99902 -6c0 -4 -1.33301 -7.66699 -4 -11l-404 -616c-3.33301 -5.33301 -6.66602 -8 -9.99902 -8c-1.33301 0 -2.66602 0.333008 -3.99902 1l-4 2l-26 18l-3.5 3.5c-1 1 -1.5 2.16699 -1.5 3.5c0 3.33301 1.66699 7.33301 5 12l404 616
c2 2.66699 5 4 9 4c1.33301 0 2.66602 -0.333008 3.99902 -1l4 -2zM277.997 611.001c-10.667 0 -21.667 -5.49707 -33 -16.4971s-22.333 -25.333 -33 -43s-20.667 -37.334 -30 -59.001s-17.666 -43 -24.999 -64s-13 -40.667 -17 -59s-6 -32.5 -6 -42.5
c0 -12 2.66699 -22.167 8 -30.5s13 -12.5 23 -12.5c10.667 0 21.667 5.83301 33 17.5s22.333 26.667 33 45s20.667 38.666 30 60.999s17.666 44 24.999 65s13 40.167 17 57.5s6 30.333 6 39c0 14 -2.16699 24.167 -6.5 30.5s-12.5 10.166 -24.5 11.499z" />
    <glyph glyph-name="ampersand" unicode="&#x26;" horiz-adv-x="838" 
d="M424 -22c-69.333 0 -126.507 8.66113 -171.507 25.9941s-80.667 39 -107 65s-44.666 54 -54.999 84s-15.5 57.667 -15.5 83c0 30 4.5 56.667 13.5 80s20 43.5 33 60.5s26.667 30.833 41 41.5s26.5 18.334 36.5 23.001c-13.333 17.333 -24.166 35.833 -32.499 55.5
s-12.5 40.834 -12.5 63.501c0 18.667 3.5 36.667 10.5 54s17.167 32.666 30.5 45.999s29.833 24 49.5 32s42.167 12 67.5 12c32.667 0 59.834 -8.5 81.501 -25.5s32.5 -43.5 32.5 -79.5c0 -12 -2 -22.333 -6 -31s-8.83301 -15.834 -14.5 -21.501s-11.667 -10 -18 -13
s-11.5 -4.5 -15.5 -4.5s-5 6 -3 18c1.33301 8.66699 0.5 16.834 -2.5 24.501s-7.5 14.5 -13.5 20.5s-13.5 10.667 -22.5 14s-18.833 5 -29.5 5c-9.33301 0 -18.833 -2 -28.5 -6s-18.5 -9.66699 -26.5 -17s-14.667 -16.833 -20 -28.5s-8 -24.834 -8 -39.501
c0 -9.33301 0.833008 -20.333 2.5 -33s6.16699 -23.667 13.5 -33c6.66699 1.33301 15.167 4.16602 25.5 8.49902s23.5 6.5 39.5 6.5c14.667 0 27 -2.66699 37 -8s15 -16.333 15 -33c0 -15.333 -3.66699 -27.166 -11 -35.499s-20 -12.5 -38 -12.5
c-12 0 -24.667 3.16699 -38 9.5s-24.666 12.5 -33.999 18.5c-3.33301 4 -6.5 6.5 -9.5 7.5s-7.5 -0.833008 -13.5 -5.5c-14.667 -11.333 -26.667 -28.666 -36 -51.999s-14 -47.666 -14 -72.999c0 -61.333 24.167 -109 72.5 -143s118.166 -51 209.499 -51
c46 0 86.333 5 121 15s63.834 23.5 87.501 40.5s41.5 36.833 53.5 59.5s18 46.334 18 71.001c0 14.667 -3 29.334 -9 44.001s-14.833 27.834 -26.5 39.501s-26.334 21.167 -44.001 28.5s-38.167 11 -61.5 11c-22 0 -39.667 -3.33301 -53 -10s-23.666 -14.5 -30.999 -23.5
s-12.166 -18.667 -14.499 -29s-3.5 -18.833 -3.5 -25.5s1.16699 -13.167 3.5 -19.5s5.33301 -12 9 -17s7.33398 -9 11.001 -12s6.5 -4.5 8.5 -4.5c2.66699 0 5.16699 1.5 7.5 4.5s2.83301 6.5 1.5 10.5c-1.33301 4.66699 -1.33301 10.167 0 16.5s4 12.333 8 18
s8.83301 10.5 14.5 14.5s12.5 6 20.5 6c22 0 37.833 -4.66699 47.5 -14s14.5 -21.333 14.5 -36c0 -16.667 -5.33301 -31.667 -16 -45s-31.667 -20 -63 -20c-13.333 0 -26.666 2.5 -39.999 7.5s-25.166 12.5 -35.499 22.5s-18.666 22.667 -24.999 38s-9.5 33.666 -9.5 54.999
c0 20 4 39 12 57s19.5 34 34.5 48s33.167 25 54.5 33s45.333 12 72 12c12 0 23 -0.333008 33 -1s20.333 -1.5 31 -2.5s22 -1.83301 34 -2.5s26 -1 42 -1c15.333 0 30 1.83301 44 5.5s26.167 9.16699 36.5 16.5s18.5 16.5 24.5 27.5s9 23.833 9 38.5
c0 6.66699 -1.66699 13.667 -5 21s-7.83301 14 -13.5 20s-11.834 11 -18.501 15s-13.334 6 -20.001 6s-10.5 -2.5 -11.5 -7.5s-0.833008 -9.83301 0.5 -14.5c1.33301 -5.33301 1.5 -11.166 0.5 -17.499s-3.33301 -12.5 -7 -18.5s-8.83398 -11 -15.501 -15s-15 -6 -25 -6
c-16 0 -28.667 5 -38 15s-14 21.667 -14 35c0 20 8.16699 36.333 24.5 49s34.5 19 54.5 19c22 0 41.333 -3 58 -9s30.5 -14 41.5 -24s19.167 -21.667 24.5 -35s8 -27.333 8 -42c0 -52 -14 -92.167 -42 -120.5s-65 -46.166 -111 -53.499c-11.333 -2 -17.333 -5.33301 -18 -10
s0.666016 -9.66699 3.99902 -15c6.66699 -10 12.667 -23.833 18 -41.5s8 -40.5 8 -68.5c0 -42.667 -8.83301 -80.834 -26.5 -114.501s-41.667 -62.167 -72 -85.5s-66.166 -41.166 -107.499 -53.499s-85.666 -18.5 -132.999 -18.5z" />
    <glyph glyph-name="quotesingle" unicode="'" horiz-adv-x="140" 
d="M124 448c2.66699 12.667 5.66797 29.334 9.00098 50.001l10.5 62.5l10.5 58c3.33301 17.667 6 30.167 8 37.5c4 12 11.333 19.833 22 23.5s23 5.5 37 5.5c26.667 0 40 -11.333 40 -34c0 -5.33301 -3.5 -15 -10.5 -29l-26.5 -50.5l-35 -63.5
c-12.667 -22.667 -24.334 -45.334 -35.001 -68.001z" />
    <glyph glyph-name="parenleft" unicode="(" horiz-adv-x="300" 
d="M59 69c0 75.333 10.165 146.665 30.498 213.998s48.833 130.5 85.5 189.5s80 113.833 130 164.5s105 97 165 139c4 3.33301 7.33301 4.33301 10 3s5.66699 -4.66602 9 -9.99902s4.66602 -9.33301 3.99902 -12s-3.66699 -6.66699 -9 -12
c-42.667 -38 -83.667 -82.667 -123 -134s-74 -107.666 -104 -168.999s-54 -127 -72 -197s-27 -142.333 -27 -217c0 -23.333 0.166992 -44.666 0.5 -63.999s1 -38 2 -56s2.16699 -36.333 3.5 -55s3.33301 -39.334 6 -62.001c0.666992 -4 0 -6.83301 -2 -8.5s-6 -3.5 -12 -5.5
c-6.66699 -2.66699 -11.167 -3.66699 -13.5 -3s-4.16602 2.66699 -5.49902 6c-9.33301 16 -18.666 35.167 -27.999 57.5s-17.666 46.333 -24.999 72s-13.333 52.167 -18 79.5s-7 54 -7 80z" />
    <glyph glyph-name="parenright" unicode=")" horiz-adv-x="300" 
d="M278 485c0 -75.333 -10.165 -146.665 -30.498 -213.998s-48.833 -130.5 -85.5 -189.5s-80 -113.833 -130 -164.5s-105 -97 -165 -139c-4 -3.33301 -7.33301 -4.33301 -10 -3s-5.66699 4.66602 -9 9.99902s-4.66602 9.33301 -3.99902 12s3.66699 6.66699 9 12
c42.667 38 83.667 82.667 123 134s74 107.666 104 168.999s54 126.833 72 196.5s27 142.167 27 217.5c0 23.333 -0.166992 44.666 -0.5 63.999s-1 38 -2 56s-2.16699 36.333 -3.5 55s-3.33301 39.334 -6 62.001c-0.666992 4 0 6.83301 2 8.5s6 3.5 12 5.5
c6.66699 2.66699 11.167 3.66699 13.5 3s4.16602 -2.66699 5.49902 -6c9.33301 -16 18.666 -35.167 27.999 -57.5s17.666 -46.333 24.999 -72s13.333 -52.167 18 -79.5s7 -54 7 -80z" />
    <glyph glyph-name="asterisk" unicode="*" horiz-adv-x="300" 
d="M207 377c-15.333 0 -25.667 2.99414 -31 8.99414s-7.33301 13.667 -6 23c0.666992 4.66699 3.33398 11.5 8.00098 20.5l16 29.5l18.5 32c6.33301 10.667 11.166 20 14.499 28l-4 2c-16 -15.333 -30.833 -31 -44.5 -47s-28.167 -29.333 -43.5 -40
c-7.33301 -5.33301 -15.833 -6 -25.5 -2s-16.834 9.66699 -21.501 17c-8.66699 14 -11 25.833 -7 35.5s9.33301 16.167 16 19.5c4 2 10.833 4 20.5 6s20.5 4 32.5 6s24.167 4.16699 36.5 6.5s23.5 4.83301 33.5 7.5v4c-20.667 3.33301 -40.334 6.16602 -59.001 8.49902
s-32.667 5.16602 -42 8.49902c-7.33301 2.66699 -12.666 8.83398 -15.999 18.501s-1.33301 21.5 6 35.5c7.33301 13.333 16.333 21.333 27 24s18.667 1.33398 24 -3.99902c7.33301 -6.66699 16.666 -18.167 27.999 -34.5s24.333 -32.166 39 -47.499l5 3l-6.5 31.5l-7 31.5
c-2.33301 10 -4.33301 19 -6 27s-2.16699 14 -1.5 18c1.33301 7.33301 5.83301 14.333 13.5 21s19.5 10 35.5 10c14.667 0 25 -2.5 31 -7.5s9 -10.833 9 -17.5c0 -4.66699 -2.16699 -11.5 -6.5 -20.5s-9.66602 -19 -15.999 -30l-19.5 -33.5
c-6.66699 -11.333 -12.334 -21.666 -17.001 -30.999l3 -2c8.66699 6.66699 17.5 14.334 26.5 23.001l25.5 25.5c8 8.33301 15.5 15.666 22.5 21.999s13.167 10.5 18.5 12.5c9.33301 3.33301 17.833 3 25.5 -1s13.167 -10.667 16.5 -20c4 -12 4.33301 -23.5 1 -34.5
s-11.666 -18.167 -24.999 -21.5c-12 -3.33301 -28 -5.66602 -48 -6.99902s-40 -3.66602 -60 -6.99902v-4c19.333 -5.33301 38.833 -9 58.5 -11s35.167 -6 46.5 -12c9.33301 -5.33301 14.5 -12.666 15.5 -21.999s-2.5 -19 -10.5 -29
c-9.33301 -11.333 -19.5 -18.166 -30.5 -20.499s-20.5 0.166992 -28.5 7.5s-16.5 18.5 -25.5 33.5s-18.833 29.167 -29.5 42.5l-6 -1c0.666992 -8.66699 2 -18.5 4 -29.5s4.33301 -21.833 7 -32.5s4.83398 -20.334 6.50098 -29.001s2.16699 -14.667 1.5 -18
c-1.33301 -7.33301 -5.33301 -14.666 -12 -21.999s-19 -11 -37 -11z" />
    <glyph glyph-name="plus" unicode="+" 
d="M222 35v171h-159v72h159v167h77v-167h159v-72h-159v-171h-77z" />
    <glyph glyph-name="comma" unicode="," horiz-adv-x="250" 
d="M9 -148c-3.33301 0 -6.16797 0.169922 -8.50098 0.50293s-4.16602 3.5 -5.49902 9.5c-1.33301 5.33301 -0.666016 9.33301 2.00098 12s6 4.66699 10 6c6.66699 2 15.167 5.66699 25.5 11s20.166 12 29.499 20s17.333 17.167 24 27.5s10 21.5 10 33.5
c0 13.333 -2.16699 23.666 -6.5 30.999s-11.166 15.666 -20.499 24.999c-1.33301 1.33301 -3.66602 3.5 -6.99902 6.5s-6.83301 6.66699 -10.5 11s-6.83398 9.16602 -9.50098 14.499s-4 11.333 -4 18c0 16 4.33301 31 13 45s20.667 21 36 21
c18.667 0 34.167 -4.33301 46.5 -13s22.166 -19.167 29.499 -31.5s12.333 -25.666 15 -39.999s4 -26.833 4 -37.5c0 -32.667 -8 -59.834 -24 -81.501s-34.167 -39 -54.5 -52s-39.833 -22.333 -58.5 -28s-30.667 -8.5 -36 -8.5z" />
    <glyph glyph-name="hyphen" unicode="-" horiz-adv-x="414" 
d="M61 272c0 6.66699 3 10 9 10h322c6 0 9 -2.66699 9 -8v-55c0 -6 -3 -9 -9 -9h-323c-5.33301 0 -8 2.33301 -8 7v55z" />
    <glyph glyph-name="period" unicode="." horiz-adv-x="250" 
d="M99 -10c-20.667 0 -37.666 6.66602 -50.999 19.999s-20 31 -20 53c0 8 1.5 16.333 4.5 25s7.5 16.334 13.5 23.001s13.333 12.167 22 16.5s19 6.5 31 6.5c13.333 0 24.666 -2.33301 33.999 -7s17 -10.667 23 -18s10.333 -15.333 13 -24s4 -17 4 -25
c0 -19.333 -6.5 -35.833 -19.5 -49.5s-31.167 -20.5 -54.5 -20.5z" />
    <glyph glyph-name="slash" unicode="/" horiz-adv-x="330" 
d="M473 664c6 -4 6.66602 -9.33398 1.99902 -16.001l-480 -659c-5.33301 -7.33301 -10.666 -8.66602 -15.999 -3.99902l-32 23c-4.66699 4 -4.66699 9 0 15l478 658c4 6 8.66699 7.66699 14 5z" />
    <glyph glyph-name="zero" unicode="0" 
d="M197 32c15.333 0 31.334 10.002 48.001 30.002s32.667 45.667 48 77s29.833 66.166 43.5 104.499s25.5 75.833 35.5 112.5s18 70.334 24 101.001s9 54 9 70c0 23.333 -3 40.5 -9 51.5s-18.333 17.167 -37 18.5c-16 0 -32.5 -9.5 -49.5 -28.5s-33.333 -43.5 -49 -73.5
s-30.334 -63.667 -44.001 -101s-25.667 -74.333 -36 -111s-18.5 -70.834 -24.5 -102.501s-9 -57.167 -9 -76.5c0 -20.667 3.5 -37.834 10.5 -51.501s20.167 -20.5 39.5 -20.5zM200.001 -14.998c-28.667 0 -52.8311 5.16699 -72.498 15.5s-35.5 24.5 -47.5 42.5
s-20.5 39 -25.5 63s-7.5 49.333 -7.5 76c0 32.667 3 67 9 103s15 71 27 105s26.833 66.5 44.5 97.5s38 58.167 61 81.5s48.667 41.833 77 55.5s59.166 20.5 92.499 20.5c26.667 0 49.5 -4.33301 68.5 -13s34.167 -20.667 45.5 -36s19.666 -33.833 24.999 -55.5
s8 -45.5 8 -71.5c0 -37.333 -3.16699 -75 -9.5 -113s-15.5 -75 -27.5 -111s-26.833 -69.833 -44.5 -101.5s-37.667 -59.167 -60 -82.5s-47.333 -41.833 -75 -55.5s-57.167 -20.5 -88.5 -20.5z" />
    <glyph glyph-name="one" unicode="1" 
d="M372 3c-0.666992 -3.33301 -1.50098 -5.16992 -2.50098 -5.50293s-3.16699 -0.5 -6.5 -0.5c-2 0 -10.167 0.166992 -24.5 0.5s-30.166 0.666016 -47.499 0.999023l-50.5 1c-16.333 0.333008 -27.833 0.5 -34.5 0.5c-8.66699 0 -22 -0.166992 -40 -0.5l-54.5 -1
c-18.333 -0.333008 -34.666 -0.666016 -48.999 -0.999023s-22.5 -0.5 -24.5 -0.5c-4.66699 0 -6.33398 2.33301 -5.00098 7l6 25c0.666992 4.66699 4.66699 7 12 7h25c8.66699 0 17.167 0.5 25.5 1.5s16.5 4.16699 24.5 9.5s15.5 13.666 22.5 24.999s13.833 27 20.5 47
l95 292c10 30 16.667 50.5 20 61.5s5 18.833 5 23.5c0 3.33301 -1.33301 6.5 -4 9.5s-6.66699 4.5 -12 4.5c-4.66699 0 -17 -2.66699 -37 -8l-62 -18c-3.33301 -0.666992 -6 0.333008 -8 3l-9 18c-2.66699 4.66699 -1.66699 8 3 10l246 115
c9.33301 4.66699 17.5 8.33398 24.5 11.001s13.5 4 19.5 4c5.33301 0 9.16602 -1.66699 11.499 -5s3.5 -6.66602 3.5 -9.99902c0 -2.66699 -0.333008 -6.16699 -1 -10.5s-1.66699 -8.16602 -3 -11.499l-10.5 -30l-22.5 -63l-26 -73.5
c-8.66699 -25 -15.334 -45.167 -20.001 -60.5l-48 -148c-1.33301 -3.33301 -4.16602 -12.333 -8.49902 -27l-14.5 -47l-15 -47l-9 -28c-4.66699 -15.333 -5.16699 -27.166 -1.5 -35.499s13.834 -12.5 30.501 -12.5h54c6 0 8.33301 -3.33301 7 -10z" />
    <glyph glyph-name="two" unicode="2" 
d="M67 0c-11.333 0 -21.168 -0.161133 -29.501 -0.494141s-16.166 -0.5 -23.499 -0.5c-7.33301 -0.666992 -13.5 -1.16699 -18.5 -1.5s-9.16699 -0.5 -12.5 -0.5c-10 0 -15 5 -15 15c0 8.66699 5.33301 16.667 16 24c23.333 16 48.5 34.333 75.5 55s54 42.667 81 66
s53 47.666 78 72.999s47.167 51.166 66.5 77.499s34.833 52.833 46.5 79.5s17.834 52.334 18.501 77.001c0 10.667 -1.5 21.667 -4.5 33s-7.66699 21.666 -14 30.999s-14.833 16.833 -25.5 22.5s-23.667 8.5 -39 8.5c-14.667 0 -28.5 -3 -41.5 -9s-25 -13.5 -36 -22.5
s-20.5 -18.5 -28.5 -28.5s-14.333 -18.667 -19 -26c-5.33301 -8.66699 -9.33301 -12.334 -12 -11.001l-21 10c-2.66699 2.66699 -2.66699 6.66699 0 12c5.33301 14 14 30.167 26 48.5s27.167 35.833 45.5 52.5s39.833 30.834 64.5 42.501s52 17.5 82 17.5
c49.333 0 87.333 -14.333 114 -43s40 -65.334 40 -110.001c0 -28.667 -6.66699 -56.834 -20 -84.501s-30.666 -54.334 -51.999 -80.001s-45 -50 -71 -73s-51.833 -44.167 -77.5 -63.5s-49.667 -36.5 -72 -51.5l-53.5 -35.5v-11h148c29.333 0 54.333 6.66699 75 20
s37.667 29.666 51 48.999c5.33301 8 9.66602 11 12.999 9l14 -9c4 -2.66699 4.33301 -6.66699 1 -12c-5.33301 -9.33301 -11.833 -21.5 -19.5 -36.5s-15 -30.333 -22 -46s-13.167 -30.667 -18.5 -45s-9 -24.833 -11 -31.5s-5.33301 -10 -10 -10
s-8.33398 0.833008 -11.001 2.5s-6 4.16699 -10 7.5c-4 4 -11.167 6.5 -21.5 7.5s-24.833 1.5 -43.5 1.5h-203z" />
    <glyph glyph-name="three" unicode="3" 
d="M144 509c-3.33301 2 -2.33496 6.99707 2.99805 14.9971c6 10 14.667 21.833 26 35.5s25.333 26.834 42 39.501s36 23.5 58 32.5s46.667 13.5 74 13.5c26 0 48 -3.16699 66 -9.5s32.333 -14.666 43 -24.999s18.334 -22 23.001 -35s7 -25.833 7 -38.5
c0 -19.333 -4 -37.833 -12 -55.5s-18.833 -34.167 -32.5 -49.5s-29.334 -29.166 -47.001 -41.499s-36.167 -22.5 -55.5 -30.5c32 -10 56.167 -27.333 72.5 -52s24.5 -51.667 24.5 -81c0 -35.333 -7.83301 -67.666 -23.5 -96.999s-36.5 -54.833 -62.5 -76.5
s-56 -38.5 -90 -50.5s-69.333 -18 -106 -18c-27.333 0 -51 3.33301 -71 10s-36.667 15.334 -50 26.001s-23.333 22.5 -30 35.5s-10 26.167 -10 39.5c0 6 0.833008 12.167 2.5 18.5s4.16699 12.166 7.5 17.499s7.83301 9.83301 13.5 13.5s12.5 5.5 20.5 5.5
c12.667 0 22.667 -2.5 30 -7.5s12.833 -11 16.5 -18s5.83398 -14.333 6.50098 -22s0.666992 -14.167 0 -19.5c-1.33301 -6.66699 -0.666016 -13.667 2.00098 -21s6.83398 -14 12.501 -20s12.5 -11 20.5 -15s17 -6 27 -6c20.667 0 40.334 4.66699 59.001 14
s35.167 22.5 49.5 39.5s25.666 37.333 33.999 61s12.5 49.834 12.5 78.501c0 23.333 -6.5 46 -19.5 68s-34.5 37 -64.5 45c-9.33301 2.66699 -15.666 5.66699 -18.999 9s-5 7 -5 11c0 5.33301 1.83301 10.166 5.5 14.499s9.16699 6.83301 16.5 7.5
c24.667 1.33301 46.167 5.66602 64.5 12.999s33.666 16.666 45.999 27.999s21.666 24.333 27.999 39s9.5 30 9.5 46c0 6.66699 -1.33301 14 -4 22s-7 15.5 -13 22.5s-14 12.833 -24 17.5s-22.333 7 -37 7c-14 0 -27.333 -2.16699 -40 -6.5s-24.167 -9.66602 -34.5 -15.999
s-19.333 -13 -27 -20s-13.167 -13.167 -16.5 -18.5c-1.33301 -2 -3 -4 -5 -6s-4.66699 -2 -8 0z" />
    <glyph glyph-name="four" unicode="4" 
d="M284 249l72 197.999c3.33301 8.66699 2.66602 14 -2.00098 16s-10.667 -0.666992 -18 -8l-205 -191c-5.33301 -5.33301 -7.66602 -9.16602 -6.99902 -11.499s3.66699 -3.5 9 -3.5h151zM208 -0.000976562c-3.33301 0 -5.50195 1.66797 -6.50195 5.00098
s0.166992 9.66602 3.5 18.999l54 144h-229c-18 0 -27 6 -27 18c0 6 2.66699 12 8 18s10.666 11.333 15.999 16l420 385c11.333 10.667 22.333 20 33 28s21 12 31 12c7.33301 0 12 -3.83301 14 -11.5s1.66699 -15.5 -1 -23.5l-120 -361h80c4 0 6.33301 -1.16699 7 -3.5
s0.333984 -4.83301 -0.999023 -7.5l-20 -58c-3.33301 -8 -8.33301 -12 -15 -12h-77l-48 -148c-3.33301 -8.66699 -6.16602 -14.167 -8.49902 -16.5s-6.16602 -3.5 -11.499 -3.5h-102z" />
    <glyph glyph-name="five" unicode="5" 
d="M231 531l-36.002 -101.996c20 -0.666992 42.5 -2.66699 67.5 -6s48.5 -10.333 70.5 -21c38.667 -18.667 64.834 -42.667 78.501 -72s20.5 -61.333 20.5 -96c-1.33301 -25.333 -8.5 -52.5 -21.5 -81.5s-32 -56 -57 -81s-56.167 -45.667 -93.5 -62s-81 -24.5 -131 -24.5
c-14 0 -28 1 -42 3s-26.833 5.16699 -38.5 9.5s-21.167 10.333 -28.5 18s-11 17.167 -11 28.5s2.66699 20.666 8 27.999s12.666 11 21.999 11c17.333 0 33.666 -8.66699 48.999 -26c6.66699 -7.33301 15.667 -12.833 27 -16.5s26.666 -5.5 45.999 -5.5
c20.667 0 40.167 4.83301 58.5 14.5s34.333 22.334 48 38.001s24.334 33.167 32.001 52.5s11.5 38.666 11.5 57.999c0 25.333 -4 45.666 -12 60.999s-19 27.666 -33 36.999c-11.333 7.33301 -26.666 13.5 -45.999 18.5s-38.666 7.5 -57.999 7.5
c-12.667 0 -21.834 0.333008 -27.501 1s-9.5 1.66699 -11.5 3c-5.33301 5.33301 -6.66602 11.666 -3.99902 18.999l94 276c1.33301 4 3.33301 6.5 6 7.5s5.66699 1.5 9 1.5h212c16 0 27.833 3.83301 35.5 11.5s15.834 17.167 24.501 28.5c4 4.66699 9.66699 4.66699 17 0
c6 -4 9.66699 -7 11 -9s1 -4.66699 -1 -8l-57 -112c-2.66699 -4.66699 -6 -7.5 -10 -8.5s-10.667 -1.5 -20 -1.5h-209z" />
    <glyph glyph-name="six" unicode="6" 
d="M224 24c20 0 37.5 8.5 52.5 25.5s27.333 38.167 37 63.5s16.834 52.333 21.501 81s6.66699 54.667 6 78c-0.666992 18.667 -6.33398 35.667 -17.001 51s-26 23 -46 23c-18.667 0 -34 -3.33301 -46 -10s-20.667 -14 -26 -22c-18.667 -31.333 -31 -64 -37 -98
s-9 -64 -9 -90c0 -14.667 1 -28.167 3 -40.5s5.5 -23 10.5 -32s11.5 -16.167 19.5 -21.5s18.333 -8 31 -8zM224 -15c-60.667 0 -106.001 17.165 -136.001 51.498s-45 79.833 -45 136.5c0 54 11.833 105.667 35.5 155s54.167 94.5 91.5 135.5s79 76.667 125 107
s91.667 53.166 137 68.499c12.667 4 22.334 6 29.001 6c4 0 7.5 -2 10.5 -6s4.5 -9 4.5 -15c0 -10.667 -4.66699 -18 -14 -22c-60 -28 -109.667 -61.5 -149 -100.5s-71 -81.5 -95 -127.5l6 -6c13.333 7.33301 28.833 13.5 46.5 18.5s38.167 7.5 61.5 7.5
c19.333 0 37.5 -3.33301 54.5 -10s31.667 -16.167 44 -28.5s22 -27.166 29 -44.499s10.5 -36.666 10.5 -57.999c0 -36 -6.33301 -70.167 -19 -102.5s-30 -60.666 -52 -84.999s-48 -43.833 -78 -58.5s-62.333 -22 -97 -22z" />
    <glyph glyph-name="seven" unicode="7" 
d="M528 630c10.667 0 15.999 -3.33301 15.999 -10c0 -4 -1.16699 -8.33301 -3.5 -13s-4.5 -8.66699 -6.5 -12c-1.33301 -2 -5.66602 -9.16699 -12.999 -21.5l-27 -46l-35.5 -62.5l-38.5 -72l-52.5 -101.5l-47 -95.5l-38.5 -81.5c-11.333 -24.333 -20 -43.833 -26 -58.5
c-9.33301 -22.667 -19.5 -40.167 -30.5 -52.5s-25.833 -18.5 -44.5 -18.5c-18 0 -30.833 5.33301 -38.5 16s-11.5 21.667 -11.5 33c0 10.667 3 22.5 9 35.5s12.667 24.167 20 33.5l21 29.5l32.5 45l39.5 55.5l43 62l26 39.5l30 46.5l30 48l27.5 44l21.5 35l12 20h-201
c-15.333 0 -28.333 -1.33301 -39 -4s-20.167 -6.83398 -28.5 -12.501s-16.166 -12.667 -23.499 -21s-15.333 -18.166 -24 -29.499c-5.33301 -6.66699 -11 -7.66699 -17 -3c-6.66699 4 -10.5 7 -11.5 9s-0.833008 4.66699 0.5 8l90 179
c3.33301 5.33301 6.16602 8.5 8.49902 9.5s5.83301 0.833008 10.5 -0.5c5.33301 -1.33301 8.5 -3 9.5 -5s1.16699 -5 0.5 -9c-1.33301 -8 1 -13.167 7 -15.5s16 -3.5 30 -3.5h273z" />
    <glyph glyph-name="eight" unicode="8" 
d="M326 607c-33.333 0 -58 -10.168 -74 -30.501s-24 -45.166 -24 -74.499c0 -12 2.33301 -23.667 7 -35s11 -22.5 19 -33.5s17.5 -22.333 28.5 -34l35.5 -36.5c26.667 14 49.5 33.167 68.5 57.5s28.5 55.5 28.5 93.5c0 10 -1.5 20.5 -4.5 31.5s-8 21 -15 30
s-16.167 16.5 -27.5 22.5s-25.333 9 -42 9zM223 20.999c21.333 0 38.5 4.16504 51.5 12.498s22.833 18.333 29.5 30s11 23.334 13 35.001s3 21.167 3 28.5c0 16.667 -1.83301 31.667 -5.5 45s-9.16699 25.833 -16.5 37.5s-16.333 23 -27 34l-36 35.5
c-26.667 -11.333 -49.167 -29.833 -67.5 -55.5s-27.5 -60.167 -27.5 -103.5c0 -29.333 7.5 -53.166 22.5 -71.499s35.167 -27.5 60.5 -27.5zM213 -15.0029c-36.667 0 -66.3359 4.99609 -89.0029 14.9961s-40.334 22.167 -53.001 36.5s-21.334 29.333 -26.001 45
s-7 29.167 -7 40.5c0 26.667 6.5 50 19.5 70s28.833 37.167 47.5 51.5s38 26.5 58 36.5l50 25l-32 32.5c-11.333 11.667 -21.666 24.167 -30.999 37.5s-17.166 27.333 -23.499 42s-9.5 30.334 -9.5 47.001c0 20 4.16699 40.667 12.5 62s21.833 40.833 40.5 58.5
s42.834 32.167 72.501 43.5s65.5 17 107.5 17c26 0 49.167 -3.16699 69.5 -9.5s37.5 -15.166 51.5 -26.499s24.5 -24.666 31.5 -39.999s10.5 -32 10.5 -50c0 -25.333 -6.83301 -48 -20.5 -68s-29.667 -37.667 -48 -53s-37.166 -28.166 -56.499 -38.499
s-34.666 -17.833 -45.999 -22.5c12.667 -11.333 24.5 -22.833 35.5 -34.5s20.833 -24.167 29.5 -37.5s15.5 -27.5 20.5 -42.5s7.5 -30.833 7.5 -47.5c0 -26 -5.16699 -50.5 -15.5 -73.5s-25 -43.167 -44 -60.5s-42.333 -31 -70 -41s-58.5 -15 -92.5 -15z" />
    <glyph glyph-name="nine" unicode="9" 
d="M262 281c19.333 0 34.834 3.66699 46.501 11s22.167 20.666 31.5 39.999c6 12 11.167 25.167 15.5 39.5s8.16602 29.166 11.499 44.499s5.83301 30.5 7.5 45.5s2.5 28.833 2.5 41.5c0 10.667 -0.666992 22 -2 34s-3.83301 23.167 -7.5 33.5s-9.16699 18.833 -16.5 25.5
s-17 10 -29 10c-20 0 -37.333 -8.66699 -52 -26s-26.667 -38.166 -36 -62.499s-16.333 -49.666 -21 -75.999s-7 -48.5 -7 -66.5c0 -10 1 -20.667 3 -32s5.16699 -21.5 9.5 -30.5s10 -16.5 17 -22.5s15.833 -9 26.5 -9zM327.001 645
c59.333 0 103.004 -15.502 131.004 -46.502s42 -72.5 42 -124.5c0 -57.333 -12.667 -112.333 -38 -165s-58 -100.5 -98 -143.5s-84.833 -79.833 -134.5 -110.5s-98.834 -52.667 -147.501 -66c-3.33301 -1.33301 -6.83301 -2.33301 -10.5 -3s-7.83398 -1 -12.501 -1
s-8.16699 1.83301 -10.5 5.5s-3.5 7.83398 -3.5 12.501s1 8.83398 3 12.501s5.66699 6.83398 11 9.50098c33.333 16.667 62.666 34.167 87.999 52.5s47.666 36.833 66.999 55.5s36.333 37.5 51 56.5s27.667 37.5 39 55.5l-6 6c-9.33301 -4.66699 -19 -8.33398 -29 -11.001
c-13.333 -3.33301 -26.333 -5 -39 -5c-29.333 0 -53.666 5 -72.999 15s-34.833 22.667 -46.5 38s-19.834 32 -24.501 50s-7 34.667 -7 50c0 28.667 5.5 58.167 16.5 88.5s27 58 48 83s47 45.5 78 61.5s66.167 24 105.5 24z" />
    <glyph glyph-name="colon" unicode=":" horiz-adv-x="250" 
d="M178 427c14 0 25.665 -2.33203 34.998 -6.99902s16.833 -10.5 22.5 -17.5s9.83398 -14.5 12.501 -22.5s4 -15.667 4 -23c0 -18.667 -6.66699 -34.667 -20 -48s-31 -20 -53 -20c-19.333 0 -35.833 6.5 -49.5 19.5s-20.5 30.167 -20.5 51.5c0 7.33301 1.5 15 4.5 23
s7.33301 15.167 13 21.5s12.834 11.666 21.501 15.999s18.667 6.5 30 6.5zM82.998 -9.99902c-19.333 0 -35.835 6.5 -49.502 19.5s-20.5 29.833 -20.5 50.5c0 8 1.5 16 4.5 24s7.33301 15.167 13 21.5s12.834 11.666 21.501 15.999s18.667 6.5 30 6.5
c14 0 25.667 -2.33301 35 -7s16.833 -10.5 22.5 -17.5s9.83398 -14.667 12.501 -23s4 -16.166 4 -23.499c0 -18 -6.66699 -33.667 -20 -47s-31 -20 -53 -20z" />
    <glyph glyph-name="semicolon" unicode=";" horiz-adv-x="250" 
d="M167 427c12.667 0 23.6641 -2.33301 32.9971 -7s16.833 -10.5 22.5 -17.5s9.83398 -14.833 12.501 -23.5s4 -16.667 4 -24c0 -18 -6.5 -33.667 -19.5 -47s-30.5 -20 -52.5 -20c-19.333 0 -35.666 6.5 -48.999 19.5s-20 29.833 -20 50.5c0 8 1.5 16 4.5 24
s7.33301 15.333 13 22s12.834 12.167 21.501 16.5s18.667 6.5 30 6.5zM-1.00293 -148c-3.33301 0 -6.16699 0.170898 -8.5 0.503906s-4.16602 3.5 -5.49902 9.5c-1.33301 5.33301 -0.666016 9.33301 2.00098 12s6 4.66699 10 6c6.66699 2 15.167 5.66699 25.5 11
s20.166 12 29.499 20s17.333 17.167 24 27.5s10 21.5 10 33.5c0 13.333 -2.16699 23.666 -6.5 30.999s-11.166 15.666 -20.499 24.999c-1.33301 1.33301 -3.66602 3.5 -6.99902 6.5s-6.83301 6.66699 -10.5 11s-6.83398 9.16602 -9.50098 14.499s-4 11.333 -4 18
c0 16 4.33301 31 13 45s20.667 21 36 21c18 0 33 -4.5 45 -13.5s21.667 -20 29 -33s12.666 -26.333 15.999 -40s5 -25.5 5 -35.5c0 -32.667 -7.83301 -59.834 -23.5 -81.501s-33.5 -39 -53.5 -52s-39.333 -22.333 -58 -28s-31.334 -8.5 -38.001 -8.5z" />
    <glyph glyph-name="less" unicode="&#x3c;" 
d="M103 218v45l307 182v-77l-218 -123v-4l218 -122v-84z" />
    <glyph glyph-name="equal" unicode="=" 
d="M469 209v-72h-397v72h397zM469 366v-72h-397v72h397z" />
    <glyph glyph-name="greater" unicode="&#x3e;" 
d="M427 262v-45l-307 -182v77l218 123v4l-218 127v79z" />
    <glyph glyph-name="question" unicode="?" horiz-adv-x="425" 
d="M176 -10c-15.333 0 -29.833 5.00098 -43.5 15.001s-20.5 25.333 -20.5 46c0 16 5.33301 31 16 45s26 21 46 21c19.333 0 34.666 -6.33301 45.999 -19s17 -28.334 17 -47.001c0 -6.66699 -1.33301 -13.5 -4 -20.5s-6.66699 -13.5 -12 -19.5s-11.666 -11 -18.999 -15
s-16 -6 -26 -6zM315 685.001c35.333 0 63.8311 -5.17285 85.498 -15.5059s38.5 -22.5 50.5 -36.5s20.167 -28.5 24.5 -43.5s6.5 -26.833 6.5 -35.5c0 -33.333 -5 -63.333 -15 -90s-23.667 -50 -41 -70s-38 -37 -62 -51s-50.333 -25 -79 -33
c-34.667 -10 -62.5 -20.667 -83.5 -32s-31.5 -24.333 -31.5 -39c0 -11.333 3.83301 -20.166 11.5 -26.499s23.167 -9.5 46.5 -9.5c24 0 43.667 4.66699 59 14s25 16 29 20c3.33301 3.33301 6.33301 3 9 -1l10 -11c2.66699 -2.66699 3.33398 -5.33398 2.00098 -8.00098
c-3.33301 -5.33301 -8.33301 -11.666 -15 -18.999s-15 -14.666 -25 -21.999s-21.167 -13.5 -33.5 -18.5s-25.166 -7.5 -38.499 -7.5c-29.333 0 -54.333 8.33301 -75 25s-31 43.667 -31 81c0 24 5.66699 45.667 17 65s25 36.5 41 51.5s32.667 27.5 50 37.5
s31.666 18 42.999 24l48 25c14.667 8 27.167 17 37.5 27s18.5 21.5 24.5 34.5s9 28.833 9 47.5c0 6.66699 -1.33301 14.334 -4 23.001s-7.16699 17 -13.5 25s-14.666 14.833 -24.999 20.5s-23.5 8.5 -39.5 8.5c-32 0 -58.667 -7.83301 -80 -23.5s-32 -36.5 -32 -62.5
c0 -15.333 3.16699 -25.666 9.5 -30.999s12.166 -8 17.499 -8c8 0 13.333 3 16 9c-1.33301 3.33301 -2.5 6.83301 -3.5 10.5s-1.5 8.16699 -1.5 13.5c0 13.333 4.5 25.166 13.5 35.499s22.5 15.5 40.5 15.5c14.667 0 25.834 -4.66699 33.501 -14s11.5 -21 11.5 -35
c0 -13.333 -2.66699 -25.166 -8 -35.499s-12.5 -19 -21.5 -26s-19 -12.167 -30 -15.5s-22.167 -5 -33.5 -5s-22.5 1.66699 -33.5 5s-20.833 8.33301 -29.5 15s-15.667 15.334 -21 26.001s-8 23.334 -8 38.001c0 14 3.66699 28.5 11 43.5s18 28.833 32 41.5s31.5 23 52.5 31
s45.167 12 72.5 12z" />
    <glyph glyph-name="at" unicode="@" horiz-adv-x="794" 
d="M649 523c3.33301 0 5.50586 -1.1709 6.50586 -3.50391s0.833008 -4.5 -0.5 -6.5l-13.5 -30l-20 -45.5l-20 -48c-6.33301 -15.667 -10.833 -27.834 -13.5 -36.501c-2 -7.33301 -4.83301 -16.666 -8.5 -27.999s-7.33398 -23.333 -11.001 -36s-6.83398 -24.667 -9.50098 -36
s-4 -20 -4 -26c-0.666992 -6.66699 1.66602 -11.5 6.99902 -14.5s11 -4.5 17 -4.5c9.33301 0 22 4.66699 38 14s31.667 23.5 47 42.5s28.666 43.167 39.999 72.5s17 64.333 17 105c0 67.333 -18 118 -54 152s-86.333 51 -151 51c-48 0 -93 -11.5 -135 -34.5
s-78.5 -52.667 -109.5 -89s-55.5 -77.166 -73.5 -122.499s-27 -90.333 -27 -135c0 -37.333 6.16699 -70.666 18.5 -99.999s29.166 -54.166 50.499 -74.499s46.5 -35.833 75.5 -46.5s60.167 -16 93.5 -16c24.667 0 51.167 1.83301 79.5 5.5s55.5 12.834 81.5 27.501
c6.66699 4 11 4.33301 13 1l8 -20c1.33301 -3.33301 -1 -7 -7 -11c-9.33301 -6 -21 -11.667 -35 -17s-29.5 -10 -46.5 -14s-35 -7.33301 -54 -10s-37.833 -4 -56.5 -4c-51.333 0 -96.666 6.5 -135.999 19.5s-72.333 31.333 -99 55s-46.834 51.667 -60.501 84
s-20.5 67.833 -20.5 106.5c0 37.333 5.66699 74 17 110s27 70.167 47 102.5s44 62.166 72 89.499s58.667 50.833 92 70.5s68.833 35 106.5 46s76.5 16.5 116.5 16.5c47.333 0 88.5 -6 123.5 -18s63.833 -29 86.5 -51s39.5 -48.5 50.5 -79.5s16.5 -65.833 16.5 -104.5
c0 -31.333 -6.16699 -62.666 -18.5 -93.999s-30.5 -59.833 -54.5 -85.5s-53.5 -46.5 -88.5 -62.5s-75.167 -24 -120.5 -24c-20 0 -34.167 3.16699 -42.5 9.5s-12.5 13.5 -12.5 21.5c0 7.33301 1.83301 18.833 5.5 34.5s9.16699 33.167 16.5 52.5l-8 4l-24 -31.5
c-10.667 -13.667 -23 -27.167 -37 -40.5s-29.167 -25 -45.5 -35s-33.5 -15 -51.5 -15c-19.333 0 -35.333 5.66699 -48 17s-18.334 30.333 -17.001 57c0 18 3.66699 37.833 11 59.5s17.333 43.334 30 65.001s27.334 42.5 44.001 62.5s34 37.667 52 53
s36.167 27.666 54.5 36.999s35.833 14 52.5 14c18.667 0 32.167 -2.5 40.5 -7.5s16.166 -11.833 23.499 -20.5l8 11c3.33301 4 6 6.5 8 7.5s5.66699 1.5 11 1.5h56zM529.006 452.996c0 12 -1.99805 22.3301 -5.99805 30.9971s-12.333 13 -25 13
c-11.333 0 -22.5 -4.5 -33.5 -13.5s-21.667 -20.5 -32 -34.5s-20 -29.667 -29 -47s-16.833 -34.666 -23.5 -51.999s-11.834 -33.666 -15.501 -48.999s-5.5 -27.666 -5.5 -36.999c0 -23.333 9.33301 -35 28 -35c4.66699 0 13 6.33301 25 19s24.667 27.5 38 44.5
s25.666 33.667 36.999 50s19 28.5 23 36.5c8.66699 17.333 14 32 16 44s3 22 3 30z" />
    <glyph glyph-name="A" unicode="A" horiz-adv-x="657" 
d="M463 336l74 248.999c2 7.33301 0.166992 11.833 -5.5 13.5s-10.5 -0.166016 -14.5 -5.49902l-205 -257h151zM285 299.999l-98.0039 -127c-17.333 -23.333 -32 -44.5 -44 -63.5s-18 -33.167 -18 -42.5s3.16699 -16.833 9.5 -22.5s16.833 -8.5 31.5 -8.5h25
c5.33301 0 7.66602 -3.33301 6.99902 -10l-3 -21c-0.666992 -2.66699 -1.66699 -4.66699 -3 -6s-4 -2 -8 -2c-5.33301 0 -19.166 0.5 -41.499 1.5s-55.5 1.5 -99.5 1.5c-38 0 -66.5 -0.5 -85.5 -1.5s-31.167 -1.5 -36.5 -1.5c-6 0 -8.66699 3 -8 9l4 22
c0.666992 5.33301 3 8 7 8h16c7.33301 0 16 1.66699 26 5s20.167 8 30.5 14s20.833 13.167 31.5 21.5s20.334 17.833 29.001 28.5l470 555c3.33301 3.33301 6.33301 5.66602 9 6.99902s7.33398 2 14.001 2c7.33301 0 17.333 0.666992 30 2s28.334 3.33301 47.001 6
c12.667 1.33301 22.667 3 30 5s13 3 17 3c8.66699 0 12 -3.33301 10 -10l-149 -555c-2.66699 -8.66699 -5.16699 -18.334 -7.5 -29.001s-3.5 -19.667 -3.5 -27c0 -8 3.5 -14.667 10.5 -20s15.5 -8 25.5 -8h21c6.66699 0 9.33398 -2.33301 8.00098 -7l-3 -23
c-0.666992 -2.66699 -1.66699 -4.83398 -3 -6.50098s-4.33301 -2.5 -9 -2.5c-6 0 -19.667 0.5 -41 1.5s-53.666 1.5 -96.999 1.5c-21.333 0 -39.5 -0.166992 -54.5 -0.5s-27.5 -0.666016 -37.5 -0.999023s-18.167 -0.666016 -24.5 -0.999023s-11.5 -0.5 -15.5 -0.5
c-8 0 -11.333 3.33301 -10 10l4 21c1.33301 5.33301 4 8 8 8h20c8 0 15.167 0.666992 21.5 2s12.5 4.83301 18.5 10.5s11.667 13.834 17 24.501s10.666 25 15.999 43l53 184h-167z" />
    <glyph glyph-name="B" unicode="B" horiz-adv-x="630" 
d="M299 364c6 -1.33301 12.668 -2.33301 20.001 -3s14.333 -1 21 -1c20 0 39.833 3.16699 59.5 9.5s37.5 16.333 53.5 30s28.833 31 38.5 52s14.5 46.5 14.5 76.5c0 14.667 -2.83301 28.667 -8.5 42s-13.334 25 -23.001 35s-20.5 17.833 -32.5 23.5s-24.333 8.5 -37 8.5
c-5.33301 0 -10.833 -0.166992 -16.5 -0.5s-11.5 -0.833008 -17.5 -1.5zM230.001 106c-2.66699 -13.333 -3.99805 -25.668 -3.99805 -37.001s4.66699 -19.333 14 -24c6 -3.33301 15.5 -6.16602 28.5 -8.49902s24.5 -3.5 34.5 -3.5c20.667 0 39.5 4.66699 56.5 14
s31.167 21.666 42.5 36.999s20.166 32.833 26.499 52.5s9.5 40.167 9.5 61.5c0 26.667 -5.33301 48.334 -16 65.001s-23.834 29.5 -39.501 38.5s-32 15 -49 18s-31.833 4.5 -44.5 4.5zM219.003 569.998c4 14.667 5.99902 26.668 5.99902 36.001
c0 8 -3.83301 14.167 -11.5 18.5s-17.167 6.5 -28.5 6.5h-28c-5.33301 0 -7.33301 3 -6 9l4 23c0.666992 3.33301 1.66699 5.33301 3 6s4.66602 1 9.99902 1h20c11.333 0 24.833 0.166992 40.5 0.5s32.834 0.666016 51.501 0.999023l53.5 1c17 0.333008 32.333 0.5 46 0.5
h29.5c8 0 19.167 -0.333008 33.5 -1s29.5 -2 45.5 -4s32.167 -5.33301 48.5 -10s30.833 -11 43.5 -19c16 -10 30 -23.833 42 -41.5s18 -39.5 18 -65.5c0 -30 -6.16699 -56 -18.5 -78s-28.5 -40.667 -48.5 -56s-43 -27.5 -69 -36.5s-53 -15.5 -81 -19.5v-3
c104.667 -26 157 -80.333 157 -163c0 -2.66699 -0.5 -8.16699 -1.5 -16.5s-3.33301 -18 -7 -29s-9.16699 -23 -16.5 -36s-17.666 -25.833 -30.999 -38.5c-9.33301 -8.66699 -20.333 -16.667 -33 -24s-28.167 -13.5 -46.5 -18.5s-39.833 -9 -64.5 -12s-53.667 -4.5 -87 -4.5
c-25.333 0 -51.166 0.5 -77.499 1.5s-51.833 1.5 -76.5 1.5c-23.333 0 -46.5 -0.5 -69.5 -1.5s-46.167 -1.5 -69.5 -1.5c-6.66699 0 -9.66699 3.33301 -9 10l4 21c1.33301 5.33301 4.33301 8 9 8h33c14.667 0 26.167 5.33301 34.5 16s15.166 25 20.499 43z" />
    <glyph glyph-name="C" unicode="C" horiz-adv-x="682" 
d="M570 -17c-2 -4 -5.66211 -5.66699 -10.9951 -5l-21 5c-3.33301 1.33301 -4.33301 4 -3 8l2 8c0.666992 2.66699 1 5.66699 1 9s-1.16699 6.5 -3.5 9.5s-6.16602 4.5 -11.499 4.5c-4 0 -9.33301 -0.833008 -16 -2.5s-14.334 -4.5 -23.001 -8.5
c-4.66699 -2 -11.834 -4.5 -21.501 -7.5s-21 -5.83301 -34 -8.5s-26.667 -5 -41 -7s-28.5 -3 -42.5 -3c-40.667 0 -77.167 5.5 -109.5 16.5s-60 26.667 -83 47s-40.667 44.666 -53 72.999s-18.5 59.833 -18.5 94.5c0 40.667 3 77.167 9 109.5s14.833 62.5 26.5 90.5
s26.167 54.333 43.5 79s37.666 49.667 60.999 75c32.667 36 71.334 64.167 116.001 84.5s96 30.5 154 30.5c24 0 47.5 -2.5 70.5 -7.5s43.5 -13.5 61.5 -25.5c6.66699 -4.66699 14.5 -9.66699 23.5 -15s16.167 -8 21.5 -8c13.333 0 22 7 26 21c2 6 5 8.33301 9 7l21 -4
c4 -1.33301 5 -4.66602 3 -9.99902l-53 -212c-2 -5.33301 -5.66699 -7.33301 -11 -6l-22 2c-5.33301 0 -7.33301 3.33301 -6 10c2 24.667 1.33301 49.167 -2 73.5s-10.333 46.166 -21 65.499s-25.334 35 -44.001 47s-41.667 18 -69 18c-32 0 -61.5 -8.66699 -88.5 -26
s-54.833 -46.666 -83.5 -87.999c-18.667 -27.333 -34.167 -55.333 -46.5 -84s-22.166 -56.667 -29.499 -84s-12.5 -53.5 -15.5 -78.5s-4.5 -47.5 -4.5 -67.5c0 -34 4.66699 -62.333 14 -85s20.833 -41 34.5 -55s28 -24 43 -30s28.5 -9 40.5 -9
c17.333 0 36.166 1.83301 56.499 5.5s41 11.667 62 24s42 30 63 53s40.833 53.5 59.5 91.5c1.33301 4 4.66602 5.33301 9.99902 4l22 -6c3.33301 -1.33301 5.16602 -2.5 5.49902 -3.5s0.166016 -2.83301 -0.500977 -5.5z" />
    <glyph glyph-name="D" unicode="D" horiz-adv-x="793" 
d="M242 106l-4.99609 -24.0049c-1.33301 -6.66699 -2 -12.667 -2 -18c0 -4.66699 1.66699 -8.66699 5 -12s7.5 -6.16602 12.5 -8.49902s10.333 -4.16602 16 -5.49902s10.834 -2 15.501 -2c91.333 0 170.666 26.667 237.999 80c16.667 12.667 32.5 29 47.5 49
s28.167 42.333 39.5 67s20.5 50.834 27.5 78.501s10.5 55.834 10.5 84.501c0 32.667 -5.83301 63.834 -17.5 93.501s-27.834 54.167 -48.501 73.5l-23 21.5c-6.66699 6.33301 -13.334 11.833 -20.001 16.5s-13.334 8.66699 -20.001 12s-14.334 6.33301 -23.001 9
c-21.333 7.33301 -39.833 11.666 -55.5 12.999s-27.167 2 -34.5 2c-8 0 -15.833 -0.666992 -23.5 -2s-12.167 -4.66602 -13.5 -9.99902zM222.004 580.995c2.66699 10 3.16992 18.165 1.50293 24.498s-4.16699 11.333 -7.5 15s-7.33301 6.33398 -12 8.00098s-9 2.5 -13 2.5
h-45c-8.66699 0 -12 2.66699 -10 8l6 24c1.33301 3.33301 2.83301 5.33301 4.5 6s5.5 1 11.5 1s16 0.166992 30 0.5s28.333 1.16602 43 2.49902l63.5 2c21 0.666992 39.167 1 54.5 1c35.333 0 70.166 -1.16699 104.499 -3.5s67.166 -7 98.499 -14s60.5 -16.833 87.5 -29.5
s51.167 -29.334 72.5 -50.001c30.667 -31.333 50.834 -61.666 60.501 -90.999s14.5 -59.333 14.5 -90c0 -49.333 -6.83301 -92.5 -20.5 -129.5s-30.167 -69 -49.5 -96s-39.5 -49 -60.5 -66s-39.167 -29.833 -54.5 -38.5c-33.333 -19.333 -66.333 -33.833 -99 -43.5
s-63.834 -16.5 -93.501 -20.5s-57 -6.16699 -82 -6.5s-46.5 -0.5 -64.5 -0.5c-6.66699 0 -15.167 0.166992 -25.5 0.5l-32 1l-32.5 1c-10.667 0.333008 -19.334 0.5 -26.001 0.5c-26 0 -47.667 -0.166992 -65 -0.5s-31.333 -0.666016 -42 -0.999023
s-18.667 -0.666016 -24 -0.999023s-9 -0.5 -11 -0.5c-6 0 -8.66699 3.33301 -8 10l6 22c1.33301 4.66699 4.66602 7 9.99902 7h20c6.66699 0 13.5 1 20.5 3s13.833 5.83301 20.5 11.5s12.834 13.5 18.501 23.5s10.5 23 14.5 39z" />
    <glyph glyph-name="E" unicode="E" horiz-adv-x="675" 
d="M320 375l77.9961 -0.00292969c8.66699 0 17.667 0.833008 27 2.5s18.666 5.33398 27.999 11.001s19.166 14 29.499 25s20.833 25.5 31.5 43.5c3.33301 5.33301 6.66602 7.66602 9.99902 6.99902l19 -6c4.66699 -1.33301 6.33398 -3.66602 5.00098 -6.99902
c-15.333 -34.667 -26.833 -67.667 -34.5 -99s-13.834 -64.666 -18.501 -99.999c-0.666992 -4.66699 -3.66699 -7 -9 -7l-19 1c-3.33301 0 -5.33301 3.33301 -6 10c-3.33301 31.333 -14.166 53 -32.499 65s-43.833 18 -76.5 18h-42l-96 -303h192
c19.333 0 38.333 4.83301 57 14.5s36.334 21.667 53.001 36s32.334 29.666 47.001 45.999l39 44.5c4 4.66699 8 6 12 4l13 -9c1.33301 -1.33301 2.33301 -2.66602 3 -3.99902s0.333984 -4.33301 -0.999023 -9l-51 -145c-2.66699 -7.33301 -5.5 -12 -8.5 -14
s-7.5 -3 -13.5 -3h-19c-10 0 -22.5 0.166992 -37.5 0.5s-32 0.666016 -51 0.999023s-39.5 0.5 -61.5 0.5h-68.5c-23.667 0 -47.167 0.166992 -70.5 0.5s-46.166 0.5 -68.499 0.5h-62.5c-23.333 0 -42.5 -0.166992 -57.5 -0.5s-27.167 -0.5 -36.5 -0.5
c-9.33301 -0.666992 -16.166 -1.16699 -20.499 -1.5s-7.5 -0.5 -9.5 -0.5c-7.33301 0 -10 3.33301 -8 10l3 21c2 5.33301 4.66699 8 8 8h27c18.667 0 33.334 5 44.001 15s18.667 23 24 39l152 475c4 13.333 5.33301 24.5 4 33.5s-4.33301 16.167 -9 21.5
s-10.334 9 -17.001 11s-13 3 -19 3h-35c-4.66699 0 -6 2.66699 -4 8l6 24c1.33301 4.66699 5.33301 7 12 7c2.66699 0 7 -0.166992 13 -0.5s14.5 -0.666016 25.5 -0.999023s25.333 -0.666016 43 -0.999023s39.834 -0.5 66.501 -0.5c96.667 0 170 0.5 220 1.5
s81.667 1.5 95 1.5c7.33301 0 12.166 -1.16699 14.499 -3.5s4.5 -7.5 6.5 -15.5l32 -137c0.666992 -3.33301 -0.666016 -6 -3.99902 -8l-13 -7c-4 -2 -8.66699 -0.333008 -14 5l-111 120c-4 4.66699 -10 7 -18 7h-133z" />
    <glyph glyph-name="F" unicode="F" horiz-adv-x="640" 
d="M317 369l96.999 2.00293c34.667 0.666992 61.834 9.5 81.501 26.5s34.167 42.167 43.5 75.5c1.33301 3.33301 3 5.16602 5 5.49902s4.33301 0.166016 7 -0.500977l21 -3c4 -0.666992 5.33301 -3.66699 4 -9l-59 -251c-0.666992 -4.66699 -4 -6.33398 -10 -5.00098l-20 1
c-6.66699 0 -9.33398 3.33301 -8.00098 10c5.33301 36.667 2.5 63.167 -8.5 79.5s-31.5 25.5 -61.5 27.5l-103 6l-68 -224c-4.66699 -15.333 -7.16699 -27.833 -7.5 -37.5s1 -17.167 4 -22.5s7.66699 -9 14 -11s13.5 -3 21.5 -3h30c7.33301 0 10.333 -2.66699 9 -8l-7 -25
c-0.666992 -4 -4.66699 -6 -12 -6c-3.33301 0 -7.83301 0.166992 -13.5 0.5s-14 0.666016 -25 0.999023s-25.333 0.666016 -43 0.999023s-39.834 0.5 -66.501 0.5c-25.333 0 -46.166 -0.166992 -62.499 -0.5s-29.666 -0.666016 -39.999 -0.999023
s-18.166 -0.666016 -23.499 -0.999023s-9.33301 -0.5 -12 -0.5c-5.33301 0 -7.66602 2.66699 -6.99902 8l4 25c0.666992 4 3.66699 6 9 6h25c27.333 0 47 19.667 59 59l157 501c8 25.333 0.333008 38 -23 38h-24c-6.66699 0 -9 3 -7 9l6 22c1.33301 5.33301 5.33301 8 12 8
c7.33301 0 21.333 -0.5 42 -1.5s48.334 -1.5 83.001 -1.5c75.333 0 132.5 0.5 171.5 1.5s65.833 1.5 80.5 1.5c30 0 52.5 1.66699 67.5 5s25.833 5 32.5 5c8 0 12 -5.33301 12 -16c0 -6.66699 1 -18 3 -34s4.16699 -32.5 6.5 -49.5l6.5 -47
c2 -14.333 3.33301 -22.833 4 -25.5c0.666992 -4.66699 -1 -7.66699 -5 -9l-17 -8c-4.66699 -2 -9 0.333008 -13 7c-2 4 -6.83301 11.333 -14.5 22l-25 34.5l-26.5 35.5c-8.66699 11.333 -15.334 19 -20.001 23c-4.66699 3.33301 -8 5.83301 -10 7.5s-4.33301 3 -7 4
s-6.33398 1.5 -11.001 1.5s-11.334 0.333008 -20.001 1c-4 0 -13 0.333008 -27 1s-29.333 1.16699 -46 1.5l-48.5 1c-15.667 0.333008 -27.167 0.5 -34.5 0.5z" />
    <glyph glyph-name="G" unicode="G" horiz-adv-x="740" 
d="M509 192c4 20 2.66504 33.002 -4.00195 39.002s-15.667 9 -27 9h-35c-6.66699 0 -9 3.33301 -7 10l4 21c0.666992 5.33301 4.33398 8 11.001 8c7.33301 0 21.5 -0.5 42.5 -1.5s55.167 -1.5 102.5 -1.5c22 0 40.333 0.166992 55 0.5s26.667 0.666016 36 0.999023
s16.666 0.666016 21.999 0.999023s9.66602 0.5 12.999 0.5c6.66699 0 9.66699 -4 9 -12l-3 -19c-0.666992 -5.33301 -3.66699 -8 -9 -8h-16c-12 0 -22.5 -2.33301 -31.5 -7s-15.167 -13.667 -18.5 -27l-35 -154c-2 -6.66699 -4.16699 -11.334 -6.5 -14.001
s-6.83301 -5.66699 -13.5 -9c-7.33301 -3.33301 -17.666 -7.33301 -30.999 -12s-29.166 -9.5 -47.499 -14.5s-38.333 -9.16699 -60 -12.5s-44.167 -5 -67.5 -5c-48.667 0 -92 7.16699 -130 21.5s-70 33.833 -96 58.5s-45.833 53.334 -59.5 86.001s-20.5 67 -20.5 103
c0 61.333 11.333 118.333 34 171s53.5 98.167 92.5 136.5s84.5 68.5 136.5 90.5s107 33 165 33c21.333 0 40.833 -1.83301 58.5 -5.5s33.334 -8.16699 47.001 -13.5s25.334 -10.833 35.001 -16.5s17.167 -10.5 22.5 -14.5c8.66699 -6.66699 15.667 -10 21 -10
c6.66699 0 15.667 10.333 27 31c2 4.66699 5.66699 6 11 4l15 -4c4.66699 -1.33301 6.66699 -4 6 -8l-57 -201c-0.666992 -4 -3.66699 -6 -9 -6l-26 1c-4.66699 0 -7 3.66699 -7 11c0.666992 21.333 -1 43.166 -5 65.499s-12 42.5 -24 60.5s-28.5 32.833 -49.5 44.5
s-47.833 17.5 -80.5 17.5s-64.834 -10.667 -96.501 -32s-60 -50.166 -85 -86.499s-45.167 -78.333 -60.5 -126s-23 -97.834 -23 -150.501c0 -37.333 5.16699 -69.5 15.5 -96.5s23.166 -49.167 38.499 -66.5s32 -30 50 -38s34.667 -12 50 -12c39.333 0 65.333 3.66699 78 11
c4.66699 2.66699 8.83398 6.83398 12.501 12.501s6.16699 13.167 7.5 22.5z" />
    <glyph glyph-name="H" unicode="H" horiz-adv-x="820" 
d="M668 104c-6 -18.667 -7.49512 -34.667 -4.49512 -48s10.167 -20 21.5 -20h35c7.33301 0 10 -3.33301 8 -10l-4 -22c-0.666992 -4.66699 -4.66699 -7 -12 -7c-2.66699 0 -6.83398 0.166992 -12.501 0.5s-13.834 0.666016 -24.501 0.999023s-24 0.666016 -40 0.999023
s-35.333 0.5 -58 0.5c-46.667 0 -80.834 -0.5 -102.501 -1.5s-35.834 -1.5 -42.501 -1.5s-9.33398 3 -8.00098 9l5 23c0.666992 4.66699 3.66699 7 9 7h25c14.667 0 27.5 5.83301 38.5 17.5s22.167 34.167 33.5 67.5l62 189c2.66699 9.33301 0 14 -8 14h-276
c-10.667 0 -16.667 -3.33301 -18 -10l-68 -214c-4 -13.333 -6.16699 -24.166 -6.5 -32.499s1 -14.833 4 -19.5s7.33301 -7.83398 13 -9.50098s12.5 -2.5 20.5 -2.5h25c6 0 8.33301 -2.66699 7 -8l-3 -22c-1.33301 -6 -5 -9 -11 -9c-5.33301 0 -19.166 0.5 -41.499 1.5
s-57.833 1.5 -106.5 1.5c-45.333 0 -78 -0.5 -98 -1.5s-32.333 -1.5 -37 -1.5c-6.66699 0 -9.33398 2.33301 -8.00098 7l5 24c0.666992 5.33301 3.66699 8 9 8h24c16 0 29.167 6 39.5 18s19.833 30.667 28.5 56l157 477c4.66699 15.333 3.66699 27 -3 35
s-14.334 12 -23.001 12h-34c-6 0 -8.66699 2.33301 -8 7l5 24c0.666992 5.33301 4 8 10 8c4 0 18.833 -0.5 44.5 -1.5s60.5 -1.5 104.5 -1.5c35.333 0 64.5 0.5 87.5 1.5s36.833 1.5 41.5 1.5c7.33301 0 10.333 -2.66699 9 -8l-6 -24c-0.666992 -4.66699 -3.66699 -7 -9 -7
h-22c-15.333 0 -27.833 -3.66699 -37.5 -11s-17.5 -20.666 -23.5 -39.999l-67 -207c-2.66699 -8 0 -12 8 -12h277c7.33301 0 12.333 4 15 12l69 217c4.66699 14 3.16699 24.333 -4.5 31s-16.167 10 -25.5 10h-16c-4.66699 0 -6.66699 2.33301 -6 7l6 26c0.666992 4 4 6 10 6
c4.66699 0 19 -0.5 43 -1.5s55 -1.5 93 -1.5c32.667 0 59 0.5 79 1.5s32.667 1.5 38 1.5c8 0 11.333 -2.33301 10 -7l-5 -24c-1.33301 -5.33301 -4.33301 -8 -9 -8h-19c-13.333 0 -24.666 -3.66699 -33.999 -11s-17.333 -20.666 -24 -39.999z" />
    <glyph glyph-name="I" unicode="I" horiz-adv-x="385" 
d="M239 104c-6.66699 -24 -6.16992 -41.3359 1.49707 -52.0029s20.167 -16 37.5 -16h37c5.33301 0 7.33301 -3.33301 6 -10l-3 -21c-0.666992 -3.33301 -1.5 -5.5 -2.5 -6.5s-4.16699 -1.5 -9.5 -1.5s-21 0.5 -47 1.5s-67 1.5 -123 1.5c-44.667 0 -79.167 -0.5 -103.5 -1.5
s-39.166 -1.5 -44.499 -1.5c-6 0 -8.66699 3.33301 -8 10l5 23c0.666992 4 3.33398 6 8.00098 6h33c14.667 0 26.334 1.33301 35.001 4s15.5 6.83398 20.5 12.501s9 13 12 22s6.16699 20.167 9.5 33.5l125 460c6.66699 24.667 7 41.834 1 51.501s-13.333 14.5 -22 14.5h-46
c-6.66699 0 -9.66699 2.66699 -9 8l5 25c0.666992 4 5 6 13 6c6 0 22 -0.5 48 -1.5s61.667 -1.5 107 -1.5c44 0 77.167 0.5 99.5 1.5s37.166 1.5 44.499 1.5c9.33301 0 13 -4 11 -12l-5 -19c-0.666992 -2.66699 -1.66699 -4.66699 -3 -6s-4 -2 -8 -2h-31
c-13.333 0 -26.166 -4.16699 -38.499 -12.5s-22.5 -27.166 -30.5 -56.499z" />
    <glyph glyph-name="J" unicode="J" horiz-adv-x="406" 
d="M275 572c5.33301 16.667 6.33594 31.168 3.00293 43.501s-15 18.5 -35 18.5h-33c-6.66699 0 -9.66699 2.66699 -9 8l5 23c0.666992 5.33301 4 8 10 8c4 0 18.333 -0.5 43 -1.5s63 -1.5 115 -1.5c41.333 0 72.5 0.5 93.5 1.5s33.833 1.5 38.5 1.5
c6.66699 0 9.66699 -3.33301 9 -10l-4 -22c-0.666992 -4.66699 -4 -7 -10 -7h-25c-11.333 0 -23 -5 -35 -15s-23.333 -31.667 -34 -65l-128 -426c-16 -53.333 -32.833 -100.333 -50.5 -141s-38.5 -75.334 -62.5 -104.001c-8.66699 -10 -18.667 -20 -30 -30s-24 -19 -38 -27
s-29.5 -14.333 -46.5 -19s-35.833 -7 -56.5 -7c-21.333 0 -39.333 2.5 -54 7.5s-26.5 11.5 -35.5 19.5s-15.333 16.833 -19 26.5s-5.5 18.834 -5.5 27.501c0 16.667 5.16699 32 15.5 46s25.833 21 46.5 21c16 0 28.333 -5.33301 37 -16s13 -21.334 13 -32.001
c0 -8 -1 -15.5 -3 -22.5s-3 -13.833 -3 -20.5c0 -10 8.66699 -15 26 -15c12 0 22.667 3.5 32 10.5s18.166 18 26.499 33s16.666 34.333 24.999 58s17.166 52.167 26.499 85.5z" />
    <glyph glyph-name="K" unicode="K" horiz-adv-x="720" 
d="M311 359c15.333 0 29.3271 1.33398 41.9941 4.00098s21.667 6.66699 27 12c60.667 52 110.334 96.333 149.001 133s67 67.667 85 93c6.66699 9.33301 8.66699 17.166 6 23.499s-10.667 9.5 -24 9.5h-12c-6.66699 0 -9.33398 3.33301 -8.00098 10l4 21
c2 5.33301 5.66699 8 11 8s18.5 -0.5 39.5 -1.5s51.167 -1.5 90.5 -1.5c30 0 52.5 0.5 67.5 1.5s24.833 1.5 29.5 1.5c8.66699 0 12.334 -3.66699 11.001 -11l-4 -18c-1.33301 -3.33301 -2.5 -5.83301 -3.5 -7.5s-3.16699 -2.5 -6.5 -2.5h-28
c-12.667 0 -25.667 -3.16699 -39 -9.5s-24.666 -12.833 -33.999 -19.5c-8.66699 -6 -21.167 -15.667 -37.5 -29l-54.5 -45.5l-62 -53l-59.5 -51l-47 -40.5c-13 -11.333 -21.167 -18.333 -24.5 -21l21.5 -36l32.5 -53.5l37.5 -61l36.5 -58.5l30 -47.5
c8.66699 -13.667 14.667 -22.5 18 -26.5c8.66699 -11.333 19 -21.833 31 -31.5s23 -14.5 33 -14.5h24c7.33301 0 10.333 -3.33301 9 -10l-5 -21c-0.666992 -5.33301 -4.66699 -8 -12 -8c-3.33301 0 -7.66602 0.166992 -12.999 0.5s-13.5 0.666016 -24.5 0.999023
s-25.5 0.666016 -43.5 0.999023s-40.667 0.5 -68 0.5c-14.667 0 -29 -0.166992 -43 -0.5s-26.667 -0.666016 -38 -0.999023s-21 -0.666016 -29 -0.999023s-13.333 -0.5 -16 -0.5c-7.33301 0 -10.333 3 -9 9l2 22c1.33301 5.33301 4.33301 8 9 8h10c12 0 21.333 3 28 9
s7.66699 13.667 3 23c-2 2.66699 -6 10 -12 22l-21.5 42l-27 51l-27 51l-22 41.5c-6.33301 11.667 -10.166 19.167 -11.499 22.5c-4.66699 8 -10 13.5 -16 16.5s-11.667 4.5 -17 4.5l-71 -217c-7.33301 -22 -7.5 -38.5 -0.5 -49.5s15.5 -16.5 25.5 -16.5h22
c5.33301 0 7.66602 -3.33301 6.99902 -10l-4 -21c-1.33301 -5.33301 -5.66602 -8 -12.999 -8c-5.33301 0 -19.166 0.5 -41.499 1.5s-54.5 1.5 -96.5 1.5c-22.667 -0 -41.667 -0.166992 -57 -0.5s-27.833 -0.666016 -37.5 -0.999023s-17 -0.666016 -22 -0.999023
s-8.5 -0.5 -10.5 -0.5c-6.66699 0 -9.33398 4.33301 -8.00098 13l4 18c0.666992 2.66699 1.66699 4.66699 3 6s4.66602 2 9.99902 2h15c14 0 26.667 4.83301 38 14.5s20.333 24.167 27 43.5l154 477c7.33301 21.333 8.5 37.166 3.5 47.499s-13.833 15.5 -26.5 15.5h-25
c-8 0 -11 3.33301 -9 10l7 23c1.33301 4 5.33301 6 12 6c4.66699 0 16.834 -0.5 36.501 -1.5s51.5 -1.5 95.5 -1.5c22.667 0 41.667 0.166992 57 0.5s28 0.666016 38 0.999023s17.833 0.666016 23.5 0.999023s10.167 0.5 13.5 0.5c4.66699 0 6.66699 -4 6 -12l-3 -19
c-0.666992 -5.33301 -4.66699 -8 -12 -8h-20c-11.333 0 -22.166 -4.16699 -32.499 -12.5s-18.166 -21.166 -23.499 -38.499z" />
    <glyph glyph-name="L" unicode="L" horiz-adv-x="660" 
d="M218 65c-3.33301 -11.333 -2.66895 -19.002 1.99805 -23.002s11.334 -6 20.001 -6h77c36 0 63.833 0.333008 83.5 1s34.167 1.66699 43.5 3s17 3.83301 23 7.5s13.667 9.83398 23 18.501c8 7.33301 18 17 30 29l34.5 35.5l29 31.5c8.33301 9.33301 13.166 15 14.499 17
c4 7.33301 7.66699 10.666 11 9.99902l18 -8c4 -1.33301 5.33301 -3.66602 4 -6.99902c-1.33301 -4 -4.33301 -13.667 -9 -29l-15 -50l-16 -53.5l-12 -40.5c-3.33301 -10.667 -7.66602 -16 -12.999 -16c-3.33301 0 -7.16602 0.666992 -11.499 2
s-9.16602 2.66602 -14.499 3.99902s-11.166 2.66602 -17.499 3.99902s-12.833 2 -19.5 2c-11.333 0 -46.5 0.5 -105.5 1.5s-135.167 1.5 -228.5 1.5c-20 0 -39.667 -0.166992 -59 -0.5s-37 -0.666016 -53 -0.999023s-29.333 -0.666016 -40 -0.999023
s-17.334 -0.5 -20.001 -0.5c-6 0 -8.66699 3.33301 -8 10l4 21c1.33301 5.33301 4.33301 8 9 8h15c17.333 0 31.833 4.33301 43.5 13s22.167 28.334 31.5 59.001l144 464c7.33301 22 8.5 37.833 3.5 47.5s-14.833 14.5 -29.5 14.5h-37
c-6.66699 0 -9.33398 2.66699 -8.00098 8l7 25c0.666992 4 4.66699 6 12 6c5.33301 0 19.333 -0.5 42 -1.5s57 -1.5 103 -1.5c52 0 90.333 0.5 115 1.5s39.667 1.5 45 1.5c6 0 8.66699 -3.33301 8 -10l-5 -21c-2 -5.33301 -6 -8 -12 -8h-35
c-17.333 0 -31.5 -4.16699 -42.5 -12.5s-20.833 -26.5 -29.5 -54.5z" />
    <glyph glyph-name="M" unicode="M" horiz-adv-x="967" 
d="M825 588c1.33301 5.33301 0.166016 8.33594 -3.50098 9.00293s-7.5 -1.66602 -11.5 -6.99902l-407 -575c-4 -6 -8.5 -10 -13.5 -12s-9.83301 -3 -14.5 -3c-10 0 -16 7.33301 -18 22l-71 504c-1.33301 7.33301 -3 10.666 -5 9.99902s-4 -3.66699 -6 -9l-111 -325
c-11.333 -32 -19.166 -58.667 -23.499 -80s-6.5 -38.333 -6.5 -51s2.16699 -21.667 6.5 -27s9.5 -8 15.5 -8h32c6 0 8.33301 -2.66699 7 -8l-3 -23c-1.33301 -5.33301 -5.33301 -8 -12 -8c-5.33301 0 -16.166 0.5 -32.499 1.5s-39.833 1.5 -70.5 1.5
c-28 0 -49.833 -0.5 -65.5 -1.5s-26.167 -1.5 -31.5 -1.5c-4.66699 0 -6.66699 3.33301 -6 10l4 21c0.666992 5.33301 3 8 7 8h20c13.333 0 25.166 4.16699 35.499 12.5s20 20 29 35s17.667 33.333 26 55s17.166 46.167 26.499 73.5l117 332
c3.33301 8.66699 6.33301 18.667 9 30s4 20.666 4 27.999c0 11.333 -3.83301 19.5 -11.5 24.5s-16.167 7.5 -25.5 7.5h-39c-6.66699 0 -9.66699 2.66699 -9 8l4 21c2 6.66699 5.66699 10 11 10c2.66699 0 7.5 -0.166992 14.5 -0.5s18 -0.666016 33 -0.999023
s34.667 -0.666016 59 -0.999023s54.833 -0.5 91.5 -0.5c9.33301 0 15 -1.66699 17 -5s3.66699 -9.33301 5 -18l61 -449c1.33301 -6.66699 4 -10.334 8 -11.001s8 1.66602 12 6.99902l326 460c3.33301 5.33301 7 9.33301 11 12s10 4 18 4c23.333 0 45.833 0.166992 67.5 0.5
s41 0.666016 58 0.999023s31.167 0.666016 42.5 0.999023s18.666 0.5 21.999 0.5c6.66699 0 9.66699 -3.33301 9 -10l-4 -21c-0.666992 -5.33301 -4 -8 -10 -8h-20c-10 0 -19.667 -6.16699 -29 -18.5s-17.333 -30.166 -24 -53.499l-128 -464c-6 -21.333 -6 -37 0 -47
s13 -15 21 -15h31c6 0 8.33301 -2.66699 7 -8l-4 -23c-0.666992 -5.33301 -4.66699 -8 -12 -8c-3.33301 0 -8 0.166992 -14 0.5s-14.667 0.666016 -26 0.999023s-25.666 0.666016 -42.999 0.999023s-39 0.5 -65 0.5c-40.667 0 -71.167 -0.5 -91.5 -1.5
s-33.166 -1.5 -38.499 -1.5c-6.66699 0 -9.66699 3.33301 -9 10l2 19c0.666992 3.33301 1.66699 5.83301 3 7.5s4 2.5 8 2.5h18c24.667 0 42.167 6.33301 52.5 19s18.5 29.334 24.5 50.001z" />
    <glyph glyph-name="N" unicode="N" horiz-adv-x="740" 
d="M173 256c-11.333 -40 -20.001 -74.002 -26.001 -102.002s-9.33301 -50.667 -10 -68s1.33301 -30 6 -38s11.667 -12 21 -12h40c6 0 8.66699 -3.33301 8 -10l-3 -21c-1.33301 -3.33301 -2.5 -5.5 -3.5 -6.5s-3.83301 -1.5 -8.5 -1.5c-5.33301 0 -18 0.5 -38 1.5
s-46 1.5 -78 1.5c-34.667 0 -60.834 -0.5 -78.501 -1.5s-29.167 -1.5 -34.5 -1.5s-7.66602 3.33301 -6.99902 10l3 21c1.33301 5.33301 4.33301 8 9 8h17c23.333 0 42.666 11.167 57.999 33.5s31 58.5 47 108.5l109 342c6.66699 21.333 10 39.333 10 54s-2 26.5 -6 35.5
s-9.16699 15.333 -15.5 19s-12.5 5.5 -18.5 5.5h-40c-6.66699 0 -9 3.33301 -7 10l5 21c1.33301 3.33301 2.5 5.5 3.5 6.5s3.5 1.5 7.5 1.5c3.33301 0 8.5 -0.166992 15.5 -0.5s17 -0.666016 30 -0.999023s29.5 -0.666016 49.5 -0.999023s44.333 -0.5 73 -0.5
c10 0 17.833 -2 23.5 -6s10.5 -10.667 14.5 -20l230 -446c2.66699 -5.33301 5.5 -7.16602 8.5 -5.49902s5.5 5.5 7.5 11.5l82 267c18.667 59.333 27.334 101.333 26.001 126s-10.333 37 -27 37h-27c-7.33301 0 -10.666 2.66699 -9.99902 8l3 24c0.666992 4.66699 4 7 10 7
s17.5 -0.5 34.5 -1.5s43.5 -1.5 79.5 -1.5c26 0 45 0.5 57 1.5s21.667 1.5 29 1.5c5.33301 0 8.5 -1 9.5 -3s1.16699 -5 0.5 -9l-4 -19c-0.666992 -5.33301 -3.66699 -8 -9 -8h-25c-12.667 0 -24.834 -9.33301 -36.501 -28s-23.167 -44 -34.5 -76l-178 -504
c-6 -17.333 -13 -26 -21 -26c-11.333 0 -20.666 6.66699 -27.999 20l-263 500c-2.66699 4.66699 -5.5 6.66699 -8.5 6s-5.16699 -3.33398 -6.5 -8.00098z" />
    <glyph glyph-name="O" unicode="O" horiz-adv-x="764" 
d="M359 35c33.333 0 65.499 13.002 96.499 39.002s58.5 60.167 82.5 102.5s43.333 90.666 58 144.999s22 110.166 22 167.499c0 47.333 -10.5 83.5 -31.5 108.5s-49.833 37.5 -86.5 37.5c-30 0 -57.167 -7.5 -81.5 -22.5s-44.166 -32.833 -59.499 -53.5
c-19.333 -23.333 -37.5 -49.5 -54.5 -78.5s-31.667 -59 -44 -90s-22 -62.667 -29 -95s-10.5 -63.5 -10.5 -93.5c0 -54 12 -95.333 36 -124s58 -43 102 -43zM371.999 -14.998c-28 0 -58.498 4.16602 -91.498 12.499s-63.5 25.166 -91.5 50.499
c-33.333 30.667 -56.833 65.667 -70.5 105s-20.5 81 -20.5 125c0 52.667 8.5 103.5 25.5 152.5s41.667 92.333 74 130s71.666 67.834 117.999 90.501s99.166 34 158.499 34c40.667 0 78.167 -6 112.5 -18s63.833 -30.167 88.5 -54.5s43.834 -54.5 57.501 -90.5
s20.5 -78 20.5 -126c0 -52.667 -9.33301 -103.667 -28 -153s-44.667 -93.166 -78 -131.499s-73.333 -69 -120 -92s-98.334 -34.5 -155.001 -34.5z" />
    <glyph glyph-name="P" unicode="P" horiz-adv-x="626" 
d="M283 319c9.33301 -5.33301 20.999 -9.33496 34.999 -12.002s26.333 -4 37 -4c26.667 0 50.334 5.83301 71.001 17.5s38 26.834 52 45.501s24.667 39.667 32 63s11 46.333 11 69c0 28.667 -5 52.167 -15 70.5s-21.5 32.833 -34.5 43.5s-26.167 17.834 -39.5 21.501
s-23.333 5.5 -30 5.5h-18.5c-5 0 -10.5 -0.666992 -16.5 -2zM212.999 563.998c2 8 3.49805 15.9971 4.49805 23.9971s1 15.167 0 21.5s-3.5 11.5 -7.5 15.5s-9.66699 6 -17 6h-47c-4.66699 0 -6.33398 3.33301 -5.00098 10l6 23c0.666992 2.66699 1.66699 4.33398 3 5.00098
s4.66602 1 9.99902 1c2.66699 0 14.167 0.166992 34.5 0.5s43.333 0.666016 69 0.999023l76 1c25 0.333008 43.167 0.5 54.5 0.5c28.667 0 53.5 -0.666992 74.5 -2s39.333 -3.66602 55 -6.99902s29.667 -8 42 -14s24.5 -14 36.5 -24
c10.667 -9.33301 19.834 -18.5 27.501 -27.5s14 -18.667 19 -29s8.5 -22 10.5 -35s3 -27.833 3 -44.5c0 -28 -5.5 -55.5 -16.5 -82.5s-28.333 -50.833 -52 -71.5s-54 -37.334 -91 -50.001s-81.5 -19 -133.5 -19c-17.333 0 -35.166 1.16699 -53.499 3.5
s-32.5 4.83301 -42.5 7.5l-46 -169c-4 -19.333 -4 -36.333 0 -51s14.667 -22 32 -22h40c6.66699 0 9.33398 -3.33301 8.00098 -10l-3 -21c-0.666992 -5.33301 -4.66699 -8 -12 -8c-6 0 -20.5 0.5 -43.5 1.5s-57.833 1.5 -104.5 1.5
c-23.333 0 -43.166 -0.166992 -59.499 -0.5s-30.166 -0.666016 -41.499 -0.999023s-20.333 -0.666016 -27 -0.999023s-11.667 -0.5 -15 -0.5c-6 0 -8.66699 3.33301 -8 10l2 19c1.33301 6.66699 5 10 11 10h16c22 0 38.167 7.83301 48.5 23.5s18.166 33.834 23.499 54.501z
" />
    <glyph glyph-name="Q" unicode="Q" horiz-adv-x="770" 
d="M512 634c-25.333 -0.666992 -50.3311 -8.00098 -74.998 -22.001s-48.167 -32.667 -70.5 -56s-43 -50.166 -62 -80.499s-35.333 -62 -49 -95s-24.5 -65.833 -32.5 -98.5s-12 -63.334 -12 -92.001c0 -37.333 6.16699 -66.5 18.5 -87.5s26.666 -36.667 42.999 -47
s32.5 -16.666 48.5 -18.999s27.667 -3.5 35 -3.5c34 0 67.667 14 101 42s63.166 63.833 89.499 107.5s47.5 92.5 63.5 146.5s24 107 24 159c0 44 -8.83301 79.333 -26.5 106s-49.5 40 -95.5 40zM489.002 684.999c38.667 0 74.6758 -5.83984 108.009 -17.5068
s62.166 -29 86.499 -52s43.333 -52.167 57 -87.5s20.5 -76.333 20.5 -123c0 -24 -2.16699 -49.167 -6.5 -75.5s-11 -52.666 -20 -78.999s-20.5 -52.166 -34.5 -77.499s-30.667 -49.333 -50 -72c-13.333 -16 -28.833 -30.333 -46.5 -43s-36.334 -23.834 -56.001 -33.501
s-39.834 -17.834 -60.501 -24.501s-40.667 -12 -60 -16c-16 -3.33301 -33.667 -7.83301 -53 -13.5s-38.666 -12.167 -57.999 -19.5s-38 -15.166 -56 -23.499s-34 -16.5 -48 -24.5l2 -9c11.333 2 26.333 4.16699 45 6.5s47.667 3.5 87 3.5c44 0 78.667 -6 104 -18
s45.333 -27.667 60 -47c20.667 -27.333 36.667 -46.666 48 -57.999s21.666 -17 30.999 -17c8 0 14.667 2.83301 20 8.5s8 12.167 8 19.5c0 3.33301 -0.5 7.83301 -1.5 13.5s-2.5 10.834 -4.5 15.501c-2.66699 4.66699 -4.66699 9.16699 -6 13.5s-2 10.833 -2 19.5
c0 12.667 4.16699 23.167 12.5 31.5s20.5 12.5 36.5 12.5c18.667 0 31.5 -6 38.5 -18s10.5 -25.667 10.5 -41c0 -36 -15 -64 -45 -84s-72 -30 -126 -30c-31.333 0 -56.5 5.16699 -75.5 15.5s-36.5 23.5 -52.5 39.5c-10.667 10.667 -22 20.834 -34 30.501
s-25.167 18 -39.5 25s-30.5 12.667 -48.5 17s-38.667 6.5 -62 6.5c-15.333 0 -26.666 -0.666992 -33.999 -2s-12 -3.66602 -14 -6.99902c-14.667 -24.667 -29.334 -37 -44.001 -37c-8 0 -14.5 1.83301 -19.5 5.5s-9 8.16699 -12 13.5s-5 10.833 -6 16.5
s-1.5 10.834 -1.5 15.501c0 10 9 20.667 27 32s39 22.833 63 34.5s48.167 22.5 72.5 32.5s43.166 18.667 56.499 26v7c-30.667 5.33301 -58.834 15 -84.501 29s-47.834 32.833 -66.501 56.5s-33.167 52.167 -43.5 85.5s-15.5 72 -15.5 116
c0 34.667 4.83301 68.334 14.5 101.001s21.5 62.5 35.5 89.5s28.833 50.667 44.5 71s29.5 35.5 41.5 45.5c15.333 12.667 30.666 24.667 45.999 36s32.666 21.333 51.999 30s41.666 15.667 66.999 21s56 8 92 8z" />
    <glyph glyph-name="R" unicode="R" horiz-adv-x="705" 
d="M291 359c14.667 0 33.8311 0.328125 57.498 0.995117s51.167 8.33398 82.5 23.001c10.667 4.66699 21.667 11.834 33 21.501s21.333 20.834 30 33.501s15.834 27 21.501 43s8.5 33 8.5 51c0 10.667 -1.83301 22.334 -5.5 35.001s-9.5 24.334 -17.5 35.001
s-18.667 19.5 -32 26.5s-29.666 10.5 -48.999 10.5h-23c-6 0 -12 -0.333008 -18 -1zM226.997 580.995c5.33301 16 5.83398 28.332 1.50098 36.999s-15.166 13 -32.499 13h-29c-6.66699 0 -9.33398 2.66699 -8.00098 8l5 23c0.666992 3.33301 1.66699 5.5 3 6.5
s4.66602 1.5 9.99902 1.5c26 0 51.667 0.166992 77 0.5s49 0.666016 71 0.999023s41.5 0.666016 58.5 0.999023s30.167 0.5 39.5 0.5c24 0 50.167 -1.16699 78.5 -3.5s54.666 -8.16602 78.999 -17.499s44.666 -24 60.999 -44s24.5 -47.333 24.5 -82
c0 -24 -6.16699 -46.667 -18.5 -68s-29.333 -40.5 -51 -57.5s-47.167 -31.167 -76.5 -42.5s-61.333 -18.666 -96 -21.999v-2c9.33301 -2.66699 17.5 -6.5 24.5 -11.5s13 -10.333 18 -16s9.16699 -11.334 12.5 -17.001l9 -15.5c0.666992 -2 3.16699 -7 7.5 -15
s9.33301 -18 15 -30l18.5 -38.5l19.5 -39.5l17.5 -34.5c5.33301 -10.333 9.33301 -17.833 12 -22.5c13.333 -21.333 27 -36.333 41 -45s29 -13 45 -13h25c6 0 8.33301 -3.33301 7 -10l-3 -21c-1.33301 -5.33301 -4.66602 -8 -9.99902 -8s-13.333 0.5 -24 1.5
s-30.667 1.5 -60 1.5c-17.333 0 -31.666 -0.166992 -42.999 -0.5s-21 -0.666016 -29 -0.999023s-14.667 -0.666016 -20 -0.999023s-10.333 -0.5 -15 -0.5c-5.33301 0 -9.66602 2.33301 -12.999 7s-8.66602 13 -15.999 25c-2.66699 4 -6.83398 12.333 -12.501 25l-20 44
l-24.5 53.5l-24 54l-19 44.5c-5.33301 12.667 -9 21 -11 25c-5.33301 13.333 -11.333 23.333 -18 30s-13.167 11.334 -19.5 14.001s-12.5 4 -18.5 4h-15l-71 -215c-4.66699 -14 -7.33398 -25.667 -8.00098 -35s0 -16.833 2 -22.5s4.83301 -9.5 8.5 -11.5s7.5 -3 11.5 -3h43
c6 0 8.33301 -2.66699 7 -8l-3 -25c-0.666992 -4 -4.66699 -6 -12 -6c-5.33301 0 -19.5 0.5 -42.5 1.5s-56.167 1.5 -99.5 1.5c-40.667 0 -71 -0.5 -91 -1.5s-33 -1.5 -39 -1.5c-4.66699 0 -6.66699 3.33301 -6 10l4 21c0.666992 5.33301 4 8 10 8h32
c8 0 15.667 4.66699 23 14s13 20.666 17 33.999z" />
    <glyph glyph-name="S" unicode="S" horiz-adv-x="530" 
d="M501 475c-1.33301 -4 -3.99609 -5.99609 -7.99609 -5.99609l-22 1c-5.33301 0 -8 3 -8 9c0.666992 10 0.166992 23.667 -1.5 41s-6.16699 34.5 -13.5 51.5s-18.333 31.833 -33 44.5s-34.334 19 -59.001 19c-14 0 -26.167 -2.83301 -36.5 -8.5s-19 -13 -26 -22
s-12.167 -18.667 -15.5 -29s-5 -19.833 -5 -28.5c0 -17.333 2.66699 -32.5 8 -45.5s12.333 -25 21 -36s18.5 -21.667 29.5 -32s22.167 -21.5 33.5 -33.5l37 -37c13.333 -13.333 25.666 -28.5 36.999 -45.5s20.833 -36.667 28.5 -59s11.5 -47.833 11.5 -76.5
c0 -31.333 -5.5 -59.333 -16.5 -84s-26 -45.334 -45 -62.001s-41.333 -29.334 -67 -38.001s-53.167 -13 -82.5 -13c-32 0 -59.5 7.5 -82.5 22.5s-41.5 30.833 -55.5 47.5c-4.66699 5.33301 -9.66699 8.16602 -15 8.49902s-9.33301 -1.16699 -12 -4.5
c-3.33301 -4 -7.66602 -9.5 -12.999 -16.5s-9.66602 -14.167 -12.999 -21.5c-2 -4 -5.33301 -5 -10 -3l-13 5c-4 1.33301 -5.33301 4.66602 -4 9.99902l74 218c1.33301 4 4.33301 5.33301 9 4l22 -4c3.33301 -1.33301 4.66602 -4.66602 3.99902 -9.99902
c-4.66699 -34.667 -4.33398 -64.834 0.999023 -90.501s13.5 -47 24.5 -64s24.167 -29.833 39.5 -38.5s31 -13 47 -13s30 2.83301 42 8.5s22.333 13 31 22s15.167 19.333 19.5 31s6.5 23.5 6.5 35.5c0 14.667 -2.83301 28.5 -8.5 41.5s-12.834 25.167 -21.501 36.5
s-18.667 22.666 -30 33.999s-22.333 23 -33 35l-44.5 49c-14.333 16 -27 32.833 -38 50.5s-19.667 37 -26 58s-9.5 45.167 -9.5 72.5c0 18 3.66699 37.333 11 58s19 39.667 35 57s36.667 31.833 62 43.5s56 17.5 92 17.5c14 0 27.167 -1.83301 39.5 -5.5
s23.666 -8 33.999 -13s19.333 -10 27 -15l17.5 -11.5c2.66699 -1.33301 4.83398 -2.16602 6.50098 -2.49902s4.16699 -0.5 7.5 -0.5c6.66699 0 12 11 16 33c0.666992 2.66699 4 3.66699 10 3l13 -1c5.33301 -0.666992 7.66602 -3 6.99902 -7z" />
    <glyph glyph-name="T" unicode="T" horiz-adv-x="660" 
d="M106 28c0.666992 2.66699 1.66699 4.66895 3 6.00195s4 2 8 2h27c13.333 0 24.666 1.83301 33.999 5.5s17.5 9.5 24.5 17.5s13.333 18.333 19 31s11.5 28.334 17.5 47.001l150 495c-26.667 0 -49.5 -0.166992 -68.5 -0.5s-35.167 -1.33301 -48.5 -3
s-24.333 -4.16699 -33 -7.5s-16.334 -8 -23.001 -14l-25 -23l-31.5 -30l-32.5 -31.5c-10.667 -10.333 -19.667 -19.5 -27 -27.5c-2.66699 -2.66699 -5.66699 -3.33398 -9 -2.00098l-20 11c-3.33301 1.33301 -3.66602 4.33301 -0.999023 9c2 4 5.16699 10.833 9.5 20.5l15 33
l17.5 38.5l16.5 37l12.5 28.5c3.33301 7.66699 5 12.167 5 13.5c2 6.66699 5.33301 10 10 10c3.33301 0 6.5 -0.833008 9.5 -2.5s7.16699 -4.16699 12.5 -7.5c18.667 -9.33301 81 -14 187 -14h211c24.667 0 46 0.333008 64 1s33.5 1.66699 46.5 3
s23.833 3.16602 32.5 5.49902s15.667 5.16602 21 8.49902c6.66699 4 11.334 6 14.001 6c3.33301 0 6 -0.666992 8 -2s2.66699 -3 2 -5c-0.666992 -4 -1.66699 -15.167 -3 -33.5s-2.5 -38.666 -3.5 -60.999s-1.83301 -44 -2.5 -65s-0.666992 -36.5 0 -46.5
c0 -4.66699 -2.66699 -7.33398 -8 -8.00098l-18 -3c-4.66699 -0.666992 -9.33398 4.33301 -14.001 15c-3.33301 8 -6.66602 17.333 -9.99902 28s-7 21.334 -11 32.001s-8 20.5 -12 29.5s-7.66699 16.167 -11 21.5c-4.66699 7.33301 -12.167 13.333 -22.5 18
s-22.166 8.33398 -35.499 11.001s-27.833 4.5 -43.5 5.5s-30.834 1.5 -45.501 1.5l-154 -510c-9.33301 -32 -10.833 -54.333 -4.5 -67s22.166 -19 47.499 -19h39c6 0 8.33301 -3.33301 7 -10l-4 -21c-0.666992 -2.66699 -1.66699 -4.66699 -3 -6s-4.66602 -2 -9.99902 -2
c-3.33301 0 -8.83301 0.166992 -16.5 0.5s-18.834 0.666016 -33.501 0.999023s-33.667 0.666016 -57 0.999023s-52.666 0.5 -87.999 0.5c-36 0 -66.333 -0.5 -91 -1.5s-39.667 -1.5 -45 -1.5c-4 0 -6.5 0.833008 -7.5 2.5s-1.16699 4.16699 -0.5 7.5z" />
    <glyph glyph-name="U" unicode="U" horiz-adv-x="742" 
d="M278 312c-1.33301 -5.33301 -3.66992 -13.6699 -7.00293 -25.0029s-6.66602 -23.666 -9.99902 -36.999s-6.16602 -27 -8.49902 -41s-3.5 -26.667 -3.5 -38c0 -29.333 4.83301 -52.333 14.5 -69s21 -29.5 34 -38.5s26 -14.667 39 -17s22.5 -3.5 28.5 -3.5
c25.333 0 49.666 3.5 72.999 10.5s42.666 16.833 57.999 29.5c24 18.667 44.833 43.334 62.5 74.001s33.834 73.667 48.501 129l61 230c12 42 17 72.167 15 90.5s-11.667 27.5 -29 27.5h-26c-7.33301 0 -10.333 2.66699 -9 8l3 21
c1.33301 3.33301 2.66602 5.83301 3.99902 7.5s4.33301 2.5 9 2.5c6 0 18.167 -0.5 36.5 -1.5s41.833 -1.5 70.5 -1.5c29.333 0 50.5 0.5 63.5 1.5s22.167 1.5 27.5 1.5c4.66699 0 7.5 -0.833008 8.5 -2.5s1.16699 -4.83398 0.5 -9.50098l-3 -19
c-0.666992 -2.66699 -1.66699 -4.66699 -3 -6s-4 -2 -8 -2h-11c-15.333 0 -28.833 -9.66699 -40.5 -29s-23.167 -46 -34.5 -80l-76 -246c-13.333 -43.333 -28.333 -83 -45 -119s-37.667 -67 -63 -93s-56 -46.167 -92 -60.5s-80 -21.5 -132 -21.5
c-31.333 0 -60.5 3.66699 -87.5 11s-50.333 18.666 -70 33.999s-35.167 34.333 -46.5 57s-17 49.667 -17 81c0 10.667 0.833008 22.167 2.5 34.5s3.66699 24.333 6 36s4.66602 22.334 6.99902 32.001l5.5 22.5l85 279c7.33301 22.667 8 38.667 2 48s-15 14 -27 14h-36
c-5.33301 0 -7.66602 2.66699 -6.99902 8l5 23c0.666992 3.33301 1.66699 5.5 3 6.5s4.66602 1.5 9.99902 1.5c2.66699 0 7.33398 -0.166992 14.001 -0.5s15.834 -0.666016 27.501 -0.999023s26.5 -0.666016 44.5 -0.999023s40.333 -0.5 67 -0.5
c40.667 0 70.334 0.5 89.001 1.5s30.667 1.5 36 1.5c6.66699 0 9.66699 -4 9 -12l-4 -19c-1.33301 -5.33301 -4.66602 -8 -9.99902 -8h-25c-3.33301 0 -7.5 -0.5 -12.5 -1.5s-10.167 -3.33301 -15.5 -7s-10.5 -9.16699 -15.5 -16.5s-9.5 -17.333 -13.5 -30z" />
    <glyph glyph-name="V" unicode="V" horiz-adv-x="598" 
d="M118 663c0.666992 6.66699 4.33398 9.99609 11.001 9.99609s21.5 -0.5 44.5 -1.5s58.167 -1.5 105.5 -1.5c36.667 0 65.334 0.5 86.001 1.5s34 1.5 40 1.5c5.33301 0 8.66602 -0.833008 9.99902 -2.5s1.66602 -4.16699 0.999023 -7.5l-4 -21
c-0.666992 -5.33301 -3.66699 -8 -9 -8h-24c-14 0 -25.667 -3.16699 -35 -9.5s-15.333 -17.166 -18 -32.499l-62 -368c-2 -13.333 -0.833008 -20.666 3.5 -21.999s9.5 2 15.5 10l243 320c23.333 30.667 37.666 55.334 42.999 74.001s0.666016 28 -14.001 28h-17
c-9.33301 0 -13 4 -11 12l4 19c0.666992 5.33301 4.66699 8 12 8s19.333 -0.5 36 -1.5s37.667 -1.5 63 -1.5c28.667 0 50.167 0.5 64.5 1.5s24.833 1.5 31.5 1.5c5.33301 0 8.5 -1.16699 9.5 -3.5s1.16699 -5.16602 0.5 -8.49902l-3 -17
c-0.666992 -6.66699 -3.66699 -10 -9 -10h-16c-8.66699 0 -18.667 -3.5 -30 -10.5s-23.333 -16.333 -36 -28s-25.5 -24.5 -38.5 -38.5s-25.167 -28 -36.5 -42l-420 -518c-3.33301 -4 -7.83301 -7.83301 -13.5 -11.5s-12.5 -5.5 -20.5 -5.5
c-9.33301 0 -14.666 3.5 -15.999 10.5s-1.33301 16.5 0 28.5l74 560c2 15.333 0.833008 28.333 -3.5 39s-12.5 16 -24.5 16h-33c-7.33301 0 -10.666 2.33301 -9.99902 7z" />
    <glyph glyph-name="W" unicode="W" horiz-adv-x="851" 
d="M130 665c0.666992 2.66699 1.66309 4.67188 2.99609 6.00488s4.33301 2 9 2c5.33301 0 18.166 -0.5 38.499 -1.5s49.833 -1.5 88.5 -1.5c31.333 0 56.333 0.5 75 1.5s31 1.5 37 1.5c8 0 11.333 -2.66699 10 -8l-4 -23c-1.33301 -5.33301 -4.66602 -8 -9.99902 -8h-12
c-15.333 0 -27.166 -3.83301 -35.499 -11.5s-13.833 -21.834 -16.5 -42.501l-49 -372c-1.33301 -6.66699 0 -10.5 4 -11.5s7.66699 1.16699 11 6.5l189 281c11.333 17.333 20.5 36.666 27.5 57.999s10.5 39.333 10.5 54c0 11.333 -1.66699 20.5 -5 27.5
s-8.66602 10.5 -15.999 10.5h-10c-7.33301 0 -10.333 2 -9 6l4 27c0.666992 4 4.66699 6 12 6c5.33301 0 15.5 -0.5 30.5 -1.5s40.167 -1.5 75.5 -1.5c30.667 0 53.334 0.5 68.001 1.5s25 1.5 31 1.5c6.66699 0 9.66699 -4 9 -12l-3 -19
c-0.666992 -5.33301 -4.33398 -8 -11.001 -8h-11c-7.33301 0 -14.166 -3.5 -20.499 -10.5s-10.166 -19.5 -11.499 -37.5l-36 -382c-1.33301 -10.667 -0.166016 -16.5 3.50098 -17.5s8.5 2.83301 14.5 11.5c4 5.33301 11.167 16.333 21.5 33l33.5 54.5l35.5 58l26.5 43.5
c12 21.333 23 42.166 33 62.499s18.833 39.166 26.5 56.499s13.834 32.5 18.501 45.5s8 23.167 10 30.5c3.33301 13.333 4 25.333 2 36s-10.667 16 -26 16h-19c-6 0 -8.66699 2.66699 -8 8l4 21c0.666992 3.33301 1.66699 5.83301 3 7.5s4 2.5 8 2.5
c6.66699 0 16.667 -0.5 30 -1.5s34 -1.5 62 -1.5c33.333 0 57.5 0.5 72.5 1.5s25.833 1.5 32.5 1.5c8.66699 0 12.667 -2.66699 12 -8l-5 -23c-0.666992 -5.33301 -3.33398 -8 -8.00098 -8h-17c-8.66699 0 -16.834 -1.83301 -24.501 -5.5s-15.167 -10.834 -22.5 -21.501
c-2 -2.66699 -7.16699 -10.834 -15.5 -24.501l-31 -51l-40.5 -65.5l-41.5 -67.5l-35.5 -58.5l-22 -36c-4.66699 -8 -11.834 -19.333 -21.501 -34l-33 -49.5l-39.5 -57.5l-40.5 -58l-36 -51.5l-25.5 -36.5c-7.33301 -10.667 -14.833 -19.5 -22.5 -26.5
s-15.834 -10.5 -24.501 -10.5c-9.33301 0 -15.5 3.33301 -18.5 10s-3.83301 16.667 -2.5 30l15 397c0.666992 6 -1 8.83301 -5 8.5s-7.66699 -3.16602 -11 -8.49902c-2 -2.66699 -9.83301 -13.667 -23.5 -33l-50 -70.5l-64.5 -90l-66.5 -92.5l-56 -77.5l-32.5 -44.5
c-6.66699 -9.33301 -13.167 -16.5 -19.5 -21.5s-14.166 -7.5 -23.499 -7.5c-14 0 -20 13 -18 39l55 562c3.33301 35.333 -0.666992 53 -12 53h-25c-7.33301 0 -10.666 2.33301 -9.99902 7z" />
    <glyph glyph-name="X" unicode="X" horiz-adv-x="635" 
d="M217 572c-6.66699 18.667 -13.502 33.6689 -20.502 45.002s-16.833 17 -29.5 17h-26c-6 0 -8.66699 3.33301 -8 10l3 19c0.666992 6.66699 3.33398 10 8.00098 10c8.66699 0 24.5 -0.5 47.5 -1.5s55.5 -1.5 97.5 -1.5c31.333 0 55.333 0.5 72 1.5s28.334 1.5 35.001 1.5
c7.33301 0 10.333 -3 9 -9l-3 -22c-0.666992 -2.66699 -1.5 -4.66699 -2.5 -6s-3.16699 -2 -6.5 -2h-19c-13.333 0 -20.5 -5.33301 -21.5 -16s0.166992 -22 3.5 -34l49 -162c2 1.33301 6.83301 6.16602 14.5 14.499l27.5 29.5l34.5 36.5l34.5 37.5l28 31.5
c8 9 13 15.167 15 18.5c6 10 7 19.833 3 29.5s-13 14.5 -27 14.5h-18c-6 0 -8.66699 2.66699 -8 8l3 25c0.666992 4 4.66699 6 12 6c6.66699 0 19.667 -0.5 39 -1.5s47 -1.5 83 -1.5c26.667 0 47.5 0.5 62.5 1.5s25.167 1.5 30.5 1.5c8 0 11.333 -2.33301 10 -7l-3 -24
c-0.666992 -5.33301 -3.66699 -8 -9 -8h-17c-12 0 -25 -3.66699 -39 -11s-27.333 -15.666 -40 -24.999c-2 -1.33301 -8.66699 -7.5 -20 -18.5l-41.5 -40l-52 -50.5l-51 -50l-40.5 -39c-11.333 -10.667 -17.666 -16.667 -18.999 -18l99 -294
c5.33301 -15.333 13.5 -27.833 24.5 -37.5s21.5 -14.5 31.5 -14.5h20c5.33301 0 8 -3.33301 8 -10l-2 -21c0 -3.33301 -0.5 -5.5 -1.5 -6.5s-3.83301 -1.5 -8.5 -1.5c-2.66699 0 -6.83398 0.166992 -12.501 0.5s-13.834 0.666016 -24.501 0.999023
s-24.167 0.666016 -40.5 0.999023s-36.833 0.5 -61.5 0.5c-32 0 -57.667 -0.5 -77 -1.5s-34 -1.5 -44 -1.5c-6 0 -8.33301 3 -7 9l4 22c1.33301 5.33301 4.33301 8 9 8h18c12.667 0 20.5 4.16699 23.5 12.5s3.16699 16.833 0.5 25.5c-0.666992 2 -2.5 8.33301 -5.5 19
s-6.83301 23.5 -11.5 38.5l-14.5 48l-14.5 48l-12.5 39.5c-3.66699 11.333 -6.16699 18.333 -7.5 21l-30.5 -31l-54.5 -57l-58.5 -64c-19 -21.333 -33.167 -39 -42.5 -53c-7.33301 -11.333 -10 -22 -8 -32s10.333 -15 25 -15h20c4.66699 0 6.33398 -3.33301 5.00098 -10
l-2 -19c-0.666992 -3.33301 -1.5 -5.83301 -2.5 -7.5s-4.16699 -2.5 -9.5 -2.5c-6 0 -19 0.5 -39 1.5s-51 1.5 -93 1.5c-24.667 0 -46.5 -0.5 -65.5 -1.5s-31.5 -1.5 -37.5 -1.5c-7.33301 0 -10.333 2.66699 -9 8l4 21c1.33301 3.33301 2.5 5.83301 3.5 7.5
s3.16699 2.5 6.5 2.5h22c12 0 22.833 1.83301 32.5 5.5s18.667 8.16699 27 13.5s16.166 11.333 23.499 18s15 13 23 19c2.66699 2 10.334 9 23.001 21l45.5 42.5l56 53l56 53.5l45.5 43.5l24 23.5z" />
    <glyph glyph-name="Y" unicode="Y" horiz-adv-x="600" 
d="M258 235c1.33301 7.33301 2.00684 15.8311 2.00684 25.498s-1 18.167 -3 25.5l-102 310c-4 11.333 -11.167 20.5 -21.5 27.5s-23.5 10.5 -39.5 10.5h-23c-5.33301 0 -7.66602 2.66699 -6.99902 8l4 23c0.666992 5.33301 4 8 10 8
c3.33301 0 7.66602 -0.166992 12.999 -0.5s13 -0.666016 23 -0.999023s22.667 -0.666016 38 -0.999023s34.666 -0.5 57.999 -0.5s43.166 0.166992 59.499 0.5s30 0.666016 41 0.999023s19.667 0.666016 26 0.999023s11.166 0.5 14.499 0.5c6.66699 0 9.66699 -2.66699 9 -8
l-2 -23c-0.666992 -5.33301 -3.66699 -8 -9 -8h-26c-14 0 -22 -4.83301 -24 -14.5s-1.33301 -20.167 2 -31.5l69 -260c2.66699 -9.33301 6.16699 -14.333 10.5 -15s8.83301 3.66602 13.5 12.999c1.33301 2.66699 5.83301 10.167 13.5 22.5l27.5 44l34.5 55l34.5 56.5
l27.5 47.5c7.66699 13.667 12.167 22.834 13.5 27.501c6.66699 19.333 6.83398 33.333 0.500977 42s-16.5 13 -30.5 13h-24c-6 0 -8.33301 3.33301 -7 10l2 23c0.666992 4 4.66699 6 12 6s20.166 -0.5 38.499 -1.5s41.5 -1.5 69.5 -1.5c34 0 59.167 0.5 75.5 1.5
s27.833 1.5 34.5 1.5c7.33301 0 10.666 -3.33301 9.99902 -10l-3 -22c-0.666992 -4.66699 -3.33398 -7 -8.00098 -7h-19c-17.333 0 -31.5 -4 -42.5 -12s-20.5 -18.333 -28.5 -31c-2.66699 -4 -9.33398 -13.5 -20.001 -28.5l-38 -54l-47.5 -67l-47.5 -67l-38 -55
c-10.667 -15.667 -17 -25.5 -19 -29.5c-5.33301 -9.33301 -10 -20.5 -14 -33.5s-8.66699 -30.833 -14 -53.5l-25 -111c-5.33301 -25.333 -5.33301 -41 0 -47s17.333 -9 36 -9h16c6 0 8.33301 -2.66699 7 -8l-3 -23c-0.666992 -2.66699 -1.66699 -4.66699 -3 -6s-4 -2 -8 -2
c-7.33301 0 -20.666 0.5 -39.999 1.5s-51 1.5 -95 1.5c-23.333 0 -43 -0.166992 -59 -0.5s-29.333 -0.666016 -40 -0.999023s-18.834 -0.666016 -24.501 -0.999023s-9.83398 -0.5 -12.501 -0.5c-6 0 -8.66699 2.66699 -8 8l4 23c0 5.33301 3 8 9 8h19c22 0 37.5 5 46.5 15
s15.167 22 18.5 36z" />
    <glyph glyph-name="Z" unicode="Z" horiz-adv-x="678" 
d="M48 0c-4 0 -7.49805 1.16895 -10.498 3.50195s-4.5 5.16602 -4.5 8.49902c0 6.66699 2.66699 13 8 19l508 601c-64.667 0 -121 -1.5 -169 -4.5s-86 -9.16699 -114 -18.5c-17.333 -6.66699 -35.5 -18 -54.5 -34s-34.5 -36.667 -46.5 -62
c-3.33301 -5.33301 -7.66602 -7.33301 -12.999 -6l-17 7c-4.66699 1.33301 -6 3.66602 -4 6.99902l45 154c1.33301 4 2.66602 7.5 3.99902 10.5s3.33301 4.5 6 4.5c3.33301 0 6 -0.666992 8 -2s4.33301 -3 7 -5c4 -2.66699 12.5 -4.83398 25.5 -6.50098s27.167 -3 42.5 -4
s30.333 -1.66699 45 -2s25.667 -0.5 33 -0.5h357c10 0 15 -4 15 -12c0 -7.33301 -2.33301 -14 -7 -20l-502 -599c34.667 0 65.667 0.166992 93 0.5s52.166 1.33301 74.499 3s43 4.16699 62 7.5s38.167 8 57.5 14c15.333 5.33301 34.166 16.333 56.499 33s42.5 40 60.5 70
c3.33301 4.66699 6.66602 6.33398 9.99902 5.00098l16 -8c5.33301 -2 6.66602 -6 3.99902 -12l-54 -158c-2 -7.33301 -5.66699 -11 -11 -11c-6 0 -12.333 2 -19 6c-4 2.66699 -14.667 4.66699 -32 6s-36.666 2.33301 -57.999 3s-42.166 1.16699 -62.499 1.5
s-35.5 0.5 -45.5 0.5h-314z" />
    <glyph glyph-name="bracketleft" unicode="[" horiz-adv-x="310" 
d="M470 772c7.33301 0 10.0039 -2.33301 8.00391 -7l-7 -26c-1.33301 -3.33301 -6 -5 -14 -5h-98c-5.33301 0 -9.33301 -4.66699 -12 -14l-244 -890c-1.33301 -6.66699 0.666992 -10 6 -10h111c5.33301 0 7.66602 -2.33301 6.99902 -7l-6 -23
c-0.666992 -4.66699 -5.66699 -7 -15 -7h-208c-6.66699 0 -8.33398 4.66699 -5.00098 14l263 965c1.33301 3.33301 2.66602 5.83301 3.99902 7.5s4.66602 2.5 9.99902 2.5h200z" />
    <glyph glyph-name="backslash" unicode="\" horiz-adv-x="320" 
d="M252 -14c-4.66699 -0.666992 -8.00098 2.33301 -10.001 9l-136 667c-0.666992 1.33301 -0.5 3 0.5 5s3.16699 3.33301 6.5 4l46 14c6.66699 1.33301 10.667 -1 12 -7l135 -671c0.666992 -4.66699 -2.66602 -7.66699 -9.99902 -9z" />
    <glyph glyph-name="bracketright" unicode="]" horiz-adv-x="310" 
d="M249 725c1.33301 6.66699 -0.669922 10 -6.00293 10h-111c-5.33301 0 -7.66602 2.33301 -6.99902 7l6 23c0.666992 4.66699 5.66699 7 15 7h204c8 0 11 -4.66699 9 -14l-263 -965c-1.33301 -3.33301 -2.66602 -5.83301 -3.99902 -7.5s-4.66602 -2.5 -9.99902 -2.5h-200
c-7.33301 0 -10 2.33301 -8 7l7 26c1.33301 3.33301 6 5 14 5h98c5.33301 0 9.33301 4.66699 12 14z" />
    <glyph glyph-name="asciicircum" unicode="^" 
d="M254 685h33l208 -417h-80l-143 301h-6l-144 -301h-76z" />
    <glyph glyph-name="underscore" unicode="_" 
d="M0 -75h500v-50h-500v50z" />
    <glyph glyph-name="grave" unicode="`" horiz-adv-x="240" 
d="M276 473c-2.66699 -3.33301 -5.66699 -3.33105 -9 0.00195312l-119 79c-11.333 7.33301 -18.5 15.666 -21.5 24.999s-3 18 0 26s8 14.833 15 20.5s15.167 8.5 24.5 8.5s17.333 -2.5 24 -7.5s12 -10.5 16 -16.5l77 -119c2.66699 -2.66699 2.66699 -5.33398 0 -8.00098z
" />
    <glyph glyph-name="a" unicode="a" horiz-adv-x="476" 
d="M134 101c0 -11.333 1.99805 -19.166 5.99805 -23.499s10 -6.5 18 -6.5c6.66699 0 16.834 7 30.501 21s27.667 30.5 42 49.5s27.833 38.167 40.5 57.5s21.334 34 26.001 44c6 13.333 11.333 28.333 16 45s7 33.667 7 51c0 11.333 -4.83301 21.666 -14.5 30.999
s-19.5 14 -29.5 14c-24.667 0 -49.667 -22.667 -75 -68c-25.333 -44.667 -42.833 -85.5 -52.5 -122.5s-14.5 -67.833 -14.5 -92.5zM464.998 432c7.33301 0 9.99414 -3.99805 7.99414 -11.998l-16.5 -46l-21.5 -62l-20.5 -60c-6.33301 -18.667 -10.5 -32 -12.5 -40
c-1.33301 -4 -4 -13.167 -8 -27.5l-13 -45.5l-12.5 -44.5c-3.66699 -13.667 -5.5 -22.5 -5.5 -26.5c0 -8 4 -12 12 -12c4 0 8.83301 2.5 14.5 7.5s11.167 10.667 16.5 17l15 18.5l10 13c4 4.66699 7.33301 6 10 4l12 -8
c2.66699 -1.33301 2.33398 -5.66602 -0.999023 -12.999c-2.66699 -5.33301 -8 -13.666 -16 -24.999s-18.667 -23 -32 -35s-29.166 -22.5 -47.499 -31.5s-39.166 -13.5 -62.499 -13.5c-15.333 0 -26 3.33301 -32 10s-9 14 -9 22c0 3.33301 0.5 7.33301 1.5 12
s2.83301 11.667 5.5 21s6.5 21.666 11.5 36.999l20.5 60l-9 5l-34.5 -51.5c-13 -19 -27.833 -37.167 -44.5 -54.5s-35 -31.833 -55 -43.5s-41.667 -17.5 -65 -17.5c-6.66699 0 -14 2.16699 -22 6.5s-15.5 10.166 -22.5 17.499s-12.833 15.666 -17.5 24.999s-7 19 -7 29
c0 20.667 3.33301 44 10 70s15.834 52.333 27.501 79s25.834 52.667 42.501 78s34.834 47.666 54.501 66.999s40.667 35 63 47s45.5 18 69.5 18c22.667 0 39.667 -3.83301 51 -11.5s20.333 -15.5 27 -23.5l16 29c4.66699 7.33301 10.667 11 18 11h71z" />
    <glyph glyph-name="b" unicode="b" horiz-adv-x="470" 
d="M126 62c0 -9.33301 2.16797 -16.332 6.50098 -20.999s13.166 -7.66699 26.499 -9c11.333 0 26.166 5.66699 44.499 17s35.5 26.666 51.5 45.999c32 38 54.5 74.167 67.5 108.5s19.5 69.166 19.5 104.499c0 14.667 -2.33301 26.334 -7 35.001s-10.667 13 -18 13
c-13.333 0 -31.166 -11.167 -53.499 -33.5s-45.5 -52.5 -69.5 -90.5c-8.66699 -13.333 -17 -28.333 -25 -45s-15.167 -33 -21.5 -49s-11.5 -30.833 -15.5 -44.5s-6 -24.167 -6 -31.5zM347.001 678.001c5.33301 0 8.50195 -1.83398 9.50195 -5.50098
s0.5 -7.83398 -1.5 -12.501l-162 -361l10 -5c10.667 16.667 22.167 33 34.5 49s25.833 30.167 40.5 42.5s30.834 22.333 48.501 30s37.5 11.5 59.5 11.5c11.333 0 21.666 -2.66699 30.999 -8s17.166 -12.166 23.499 -20.499s11.166 -17.833 14.499 -28.5
s5 -21.334 5 -32.001c0 -14 -1.5 -30.333 -4.5 -49s-8.5 -38.667 -16.5 -60s-19 -43.833 -33 -67.5s-32 -47.167 -54 -70.5c-14 -14.667 -28.667 -28.167 -44 -40.5s-32.666 -23 -51.999 -32s-41.333 -16 -66 -21s-53 -7.5 -85 -7.5c-24 0 -44.833 5.83301 -62.5 17.5
s-26.5 29.834 -26.5 54.501c0 10 1.16699 21 3.5 33s5.16602 22 8.49902 30l91 240l93 235c5.33301 12.667 8 21.667 8 27c0 4.66699 -2.33301 8.33398 -7 11.001s-10 4 -16 4h-33c-4.66699 0 -6.66699 2.33301 -6 7l7 21c2 5.33301 5.33301 8 10 8h172z" />
    <glyph glyph-name="c" unicode="c" horiz-adv-x="331" 
d="M289 87c4 -2.66699 4.33496 -6.33203 1.00195 -10.999c-3.33301 -5.33301 -9.83301 -12.833 -19.5 -22.5s-21.667 -19.167 -36 -28.5s-30.833 -17.5 -49.5 -24.5s-38.667 -10.5 -60 -10.5c-11.333 0 -22.833 2.16699 -34.5 6.5s-22.334 11.166 -32.001 20.499
s-17.667 20.833 -24 34.5s-9.5 30.167 -9.5 49.5c0 30 6.16699 63.833 18.5 101.5s29.666 73.167 51.999 106.5s48.833 61.333 79.5 84s64 34 100 34c14.667 0 27 -2 37 -6s18 -8.83301 24 -14.5s10.333 -11.667 13 -18s4 -11.833 4 -16.5c0 -15.333 -5 -28.833 -15 -40.5
s-20 -17.5 -30 -17.5c-21.333 0 -34.666 8.66699 -39.999 26c-2.66699 8.66699 -6.5 16.167 -11.5 22.5s-11.833 9.5 -20.5 9.5c-9.33301 0 -17.333 -5.83301 -24 -17.5s-14.667 -28.167 -24 -49.5l-16.5 -42.5c-5 -13 -9.16699 -26.333 -12.5 -40s-6 -28.667 -8 -45
s-3 -35.5 -3 -57.5c0 -15.333 2.16699 -29.666 6.5 -42.999s14.833 -20 31.5 -20c15.333 0 31.166 4.16699 47.499 12.5s27.833 16.166 34.5 23.499c3.33301 4.66699 6.33301 6 9 4z" />
    <glyph glyph-name="d" unicode="d" horiz-adv-x="486" 
d="M325 325c0 18.667 -4.00293 34.333 -12.0029 47s-20.667 19 -38 19c-8.66699 0 -18.167 -5.5 -28.5 -16.5s-20.5 -25.333 -30.5 -43s-19.667 -37.5 -29 -59.5s-17.666 -44 -24.999 -66s-13.166 -42.667 -17.499 -62s-6.5 -35.333 -6.5 -48
c0 -12 2.16699 -20.833 6.5 -26.5s10.166 -8.5 17.499 -8.5c4.66699 0 10.834 3.5 18.501 10.5s16 16.167 25 27.5s18.333 23.833 28 37.5l28.5 40.5c6.66699 10 13.834 21.5 21.501 34.5s14.5 26.167 20.5 39.5s11 26.5 15 39.5s6 24.5 6 34.5zM537.997 677.999
c7.33301 0 11.835 -2.16602 13.502 -6.49902s1.5 -9.16602 -0.5 -14.499c-1.33301 -4.66699 -4.83301 -15.334 -10.5 -32.001l-20.5 -62l-26.5 -83l-29.5 -94.5l-29.5 -95.5l-26.5 -87l-20 -68.5c-5.33301 -19 -9 -32.5 -11 -40.5
c-3.33301 -14 -4.66602 -24.667 -3.99902 -32s4.33398 -11 11.001 -11c3.33301 0 8 2.33301 14 7s12 9.83398 18 15.501s11.5 11.167 16.5 16.5l9.5 9.99902c3.33301 3.33301 6.66602 3.66602 9.99902 0.999023l12 -12c2.66699 -2.66699 2.66699 -6 0 -10
c-2 -2 -7.16699 -7.83301 -15.5 -17.5s-19.666 -19.834 -33.999 -30.501s-31.5 -20.167 -51.5 -28.5s-42.333 -12.5 -67 -12.5c-12.667 0 -22.167 2.66699 -28.5 8s-9.5 12.666 -9.5 21.999c0 13.333 3.66699 32 11 56l25 78l-12 6l-38.5 -59.5
c-13.667 -20.333 -28.334 -38.666 -44.001 -54.999s-32.334 -29.666 -50.001 -39.999s-36.167 -15.5 -55.5 -15.5c-12.667 0 -23.834 3 -33.501 9s-17.834 13.667 -24.501 23s-11.834 19.5 -15.501 30.5s-5.5 21.5 -5.5 31.5c0 16 2.16699 34.333 6.5 55
s11.333 42.667 21 66s21.834 47 36.501 71s32 47.333 52 70c7.33301 8 16.166 16.667 26.499 26s21.833 18 34.5 26s26.5 14.833 41.5 20.5s31.167 8.5 48.5 8.5c14 0 27.833 -2.66699 41.5 -8s25.167 -13.333 34.5 -24l56 206c3.33301 10.667 2.83301 20.167 -1.5 28.5
s-13.166 12.5 -26.499 12.5h-29c-6.66699 0 -9.33398 2.33301 -8.00098 7l4 23c0.666992 2 1.83398 3.5 3.50098 4.5s6.16699 1.5 13.5 1.5h168z" />
    <glyph glyph-name="e" unicode="e" horiz-adv-x="390" 
d="M161 221c8.66699 -0.666992 22.332 2.33398 40.999 9.00098s35.334 17 50.001 31c8 7.33301 15.333 18.666 22 33.999s10 31.333 10 48c0 8 -1.66699 15.667 -5 23s-10.666 11 -21.999 11c-9.33301 0 -19 -5 -29 -15s-19.333 -22.833 -28 -38.5
s-16.334 -32.667 -23.001 -51s-12 -35.5 -16 -51.5zM330.998 100.001c3.33301 -2.66699 3.99805 -6.00586 1.99805 -10.0059c-4.66699 -9.33301 -12.667 -19.666 -24 -30.999s-25.166 -22.166 -41.499 -32.499s-35.166 -19 -56.499 -26s-44.333 -10.5 -69 -10.5
c-34 0 -62 9.66699 -84 29s-33 47 -33 83c0 18.667 2.16699 38.834 6.5 60.501s11.166 43.834 20.499 66.501s21.833 45 37.5 67s34.5 42.333 56.5 61c24.667 21.333 51.167 38.333 79.5 51s57.5 19 87.5 19c28 0 48 -6.66699 60 -20s18 -29.666 18 -48.999
c0 -28 -7.83301 -52.5 -23.5 -73.5s-38.167 -39.833 -67.5 -56.5c-28 -15.333 -54.667 -26.166 -80 -32.499s-47.666 -10.166 -66.999 -11.499c-2 -4.66699 -3.83301 -12.834 -5.5 -24.501s-2.5 -24.5 -2.5 -38.5c0 -17.333 4.66699 -32.5 14 -45.5
s22.666 -19.5 39.999 -19.5c24.667 0 46 5.5 64 16.5s32.667 22.833 44 35.5c2.66699 4 5.33398 5 8.00098 3z" />
    <glyph glyph-name="f" unicode="f" horiz-adv-x="309" 
d="M131 397c7.33301 18.667 13.502 36.501 18.502 53.501s10.833 34 17.5 51s15.5 34.833 26.5 53.5s26.5 39 46.5 61c6 6.66699 14.667 14.167 26 22.5s24.166 16.166 38.499 23.499s29.5 13.5 45.5 18.5s32 7.5 48 7.5c21.333 0 39.5 -2.16699 54.5 -6.5
s27.167 -9.83301 36.5 -16.5s16 -14.5 20 -23.5s6 -17.833 6 -26.5c0 -12.667 -4.83301 -24.167 -14.5 -34.5s-21.834 -15.5 -36.501 -15.5c-21.333 0 -36.333 4.83301 -45 14.5s-14.667 22.5 -18 38.5c-1.33301 5.33301 -4.16602 11.5 -8.49902 18.5
s-12.166 10.5 -23.499 10.5c-16.667 0 -31 -8 -43 -24s-22.5 -36.333 -31.5 -61s-17 -51.667 -24 -81l-20.5 -84h105c5.33301 0 7.66602 -3 6.99902 -9l-5 -25c-0.666992 -6.66699 -4.33398 -10 -11.001 -10h-104l-19.5 -76l-24 -94.5c-8.33301 -33 -17.166 -66 -26.499 -99
s-18.333 -62.5 -27 -88.5c-12 -36 -26.833 -71.333 -44.5 -106s-37.667 -65.834 -60 -93.501s-46.833 -50 -73.5 -67s-55.334 -25.5 -86.001 -25.5c-30 0 -53 6 -69 18s-24 27.667 -24 47c0 14 4.33301 26.333 13 37s20.667 16 36 16c16 0 28.333 -5.33301 37 -16
s13.667 -24 15 -40c1.33301 -11.333 8.66602 -17 21.999 -17c24.667 0 47.334 21.333 68.001 64s41.667 109.334 63 200.001l80 341h-84c-6 0 -8.33301 3 -7 9l6 27c0.666992 2.66699 1.66699 4.66699 3 6s4 2 8 2h83z" />
    <glyph glyph-name="g" unicode="g" horiz-adv-x="469" 
d="M178 -260c10.667 0 21.833 1.33301 33.5 4s22.5 7 32.5 13s18.333 13.5 25 22.5s10 19.833 10 32.5c0 10.667 -1.16699 19.667 -3.5 27s-6.16602 14 -11.499 20s-12.833 12.167 -22.5 18.5s-21.5 13.5 -35.5 21.5c-2.66699 1.33301 -8.16699 4.33301 -16.5 9l-27 15
l-28 15.5c-9 5 -15.833 9.16699 -20.5 12.5c-20.667 -12.667 -38.334 -27 -53.001 -43s-22 -37.333 -22 -64c0 -36 13.167 -62.333 39.5 -79s59.5 -25 99.5 -25zM168.999 188c0 -17.333 2.33398 -29.501 7.00098 -36.501s12.334 -10.5 23.001 -10.5
c12.667 0 24.667 6.16699 36 18.5s21.166 27.833 29.499 46.5s14.833 39 19.5 61s7 42.667 7 62c0 20.667 -1.16699 36.334 -3.5 47.001s-10.5 16 -24.5 16c-11.333 0 -20.833 -3.5 -28.5 -10.5s-16.167 -19.167 -25.5 -36.5c-10.667 -19.333 -18.834 -35.833 -24.501 -49.5
s-9.66699 -26 -12 -37s-3.5 -22 -3.5 -33v-37.5zM150 -297.001c-32 0 -61.833 3.33496 -89.5 10.002s-51.5 15.834 -71.5 27.501s-35.667 25 -47 40s-17 30.833 -17 47.5s2.16699 30.167 6.5 40.5s15.166 22.5 32.499 36.5c20.667 16.667 43.167 30.334 67.5 41.001l60.5 26
c-15.333 11.333 -25.666 21.666 -30.999 30.999s-8 19.666 -8 30.999s8.16699 23.833 24.5 37.5s38.166 26.167 65.499 37.5v2c-15.333 7.33301 -28.333 14.833 -39 22.5s-19.334 16.167 -26.001 25.5s-11.667 20.5 -15 33.5s-5 28.5 -5 46.5s4.5 37.833 13.5 59.5
s22.5 42 40.5 61s40.167 35 66.5 48s56.833 19.5 91.5 19.5c16.667 0 31.334 -1.66699 44.001 -5s23.334 -7.5 32.001 -12.5s15.667 -10.167 21 -15.5s9.33301 -10 12 -14c10.667 8 23.334 16 38.001 24s29.667 12 45 12c16 0 27.667 -5 35 -15s11.333 -20.333 12 -31
c-0.666992 -13.333 -4.83398 -23.833 -12.501 -31.5s-17.5 -11.5 -29.5 -11.5c-6 0 -11.833 1.5 -17.5 4.5s-10.5 6.5 -14.5 10.5c-2.66699 2.66699 -5.33398 5.16699 -8.00098 7.5s-5.66699 3.5 -9 3.5c-8.66699 0 -16 -3 -22 -9c2.66699 -6 4.33398 -13.5 5.00098 -22.5
s1 -19.167 1 -30.5c0 -12 -3.5 -27.5 -10.5 -46.5s-17.667 -38 -32 -57s-32.333 -36 -54 -51s-46.834 -24.5 -75.501 -28.5l-30 -3.5c-8.66699 -1 -13.667 -1.83301 -15 -2.5c-10.667 -4.66699 -19 -11 -25 -19s-9 -15.667 -9 -23c0 -5.33301 3 -10.833 9 -16.5
s11.333 -9.83398 16 -12.501l52 -27c24.667 -12.667 55.334 -29.334 92.001 -50.001c30.667 -17.333 51.334 -34.833 62.001 -52.5s16 -34.167 16 -49.5c0 -8.66699 -1 -17.834 -3 -27.501s-5.83301 -19.5 -11.5 -29.5s-13.667 -19.833 -24 -29.5s-23.5 -18.5 -39.5 -26.5
c-21.333 -11.333 -44.833 -20.166 -70.5 -26.499s-58.834 -9.5 -99.501 -9.5z" />
    <glyph glyph-name="h" unicode="h" 
d="M203 284l9.00195 -6.99902c11.333 18 23.833 36 37.5 54s28.334 34 44.001 48s32 25.5 49 34.5s34.5 13.5 52.5 13.5c18.667 0 33.667 -3.33301 45 -10s20.333 -15 27 -25s11.167 -21.333 13.5 -34s3.5 -25 3.5 -37c0 -36 -6.16699 -73.5 -18.5 -112.5
s-27.5 -74.5 -45.5 -106.5c-24 -41.333 -50.667 -74 -80 -98s-62 -36 -98 -36c-17.333 0 -32.333 5.33301 -45 16s-18.667 26.667 -18 48c-0.666992 12.667 2.83301 24.334 10.5 35.001s18.834 16 33.501 16c13.333 0 23 -4 29 -12s9.66699 -16.333 11 -25
c0.666992 -10 2.16699 -18.5 4.5 -25.5s7.16602 -10.5 14.499 -10.5c5.33301 0 10.5 3.5 15.5 10.5s9.66699 16 14 27s8.5 23.5 12.5 37.5l12 42c8 28 15.5 58.667 22.5 92s10.5 63.333 10.5 90c0 28.667 -10 43 -30 43c-9.33301 0 -19.833 -4.33301 -31.5 -13
s-23.334 -19 -35.001 -31s-23 -24.5 -34 -37.5s-19.833 -24.167 -26.5 -33.5c-12 -16.667 -22.333 -33 -31 -49s-15.334 -29.667 -20.001 -41l-57 -140c-2.66699 -4.66699 -8.33398 -7 -17.001 -7h-80c-10 0 -13.333 4 -10 12l208 559
c3.33301 7.33301 6.5 16.166 9.5 26.499s4.5 18.833 4.5 25.5c0 12.667 -10.333 19 -31 19h-28c-5.33301 0 -7.33301 2.66699 -6 8l5 20c1.33301 2.66699 2.5 4.66699 3.5 6s3.5 2 7.5 2h180c8 0 12 -3.33301 12 -10s-3.66699 -18.334 -11 -35.001z" />
    <glyph glyph-name="i" unicode="i" horiz-adv-x="296" 
d="M232 650c24 0 41.8311 -5.5 53.498 -16.5s17.5 -24.167 17.5 -39.5c0 -8 -1.83301 -15.833 -5.5 -23.5s-8.66699 -14.667 -15 -21s-13.666 -11.5 -21.999 -15.5s-17.166 -6 -26.499 -6c-19.333 0 -34.833 5.33301 -46.5 16s-17.5 25.667 -17.5 45
c0 15.333 6 29.333 18 42s26.667 19 44 19zM260.998 116l11.9971 -12c2.66699 -2.66699 3 -6 1 -10c-1.33301 -2 -6.16602 -8.5 -14.499 -19.5s-20.5 -22.833 -36.5 -35.5s-36 -24 -60 -34s-52 -15 -84 -15c-15.333 0 -25.666 3.16699 -30.999 9.5s-8 13.166 -8 20.499
c0 4.66699 1.16699 11.167 3.5 19.5s5.83301 19.833 10.5 34.5l18 54l27 78l27 79c4.66699 13.333 8.33398 24.5 11.001 33.5s4 16.5 4 22.5c0 8.66699 -4.33301 13 -13 13c-4 0 -9.5 -2.66699 -16.5 -8s-14.167 -11.833 -21.5 -19.5l-21 -22.5
c-6.66699 -7.33301 -11.334 -13 -14.001 -17c-4 -4 -7.66699 -4.33301 -11 -1l-9 9c-4 4 -5 7 -3 9c1.33301 1.33301 7 8.5 17 21.5s23.5 27 40.5 42s37 28.667 60 41s47.833 18.5 74.5 18.5c15.333 0 26.5 -3.5 33.5 -10.5s10.5 -15.5 10.5 -25.5
c0 -11.333 -2.83301 -25.166 -8.5 -41.499l-23.5 -68.5l-54 -153c-6.66699 -18.667 -11 -32.167 -13 -40.5s-3 -15.166 -3 -20.499c0 -3.33301 0.833008 -6.5 2.5 -9.5s5.16699 -4.5 10.5 -4.5c4.66699 0 11 2.83301 19 8.5s15.833 12 23.5 19s14.5 14 20.5 21
s9.66699 11.5 11 13.5c2.66699 3.33301 5.33398 3.66602 8.00098 0.999023z" />
    <glyph glyph-name="j" unicode="j" horiz-adv-x="279" 
d="M243 657c24 0 41.666 -6 52.999 -18s17 -25.333 17 -40c0 -18.667 -7.33301 -35.167 -22 -49.5s-31.667 -21.5 -51 -21.5s-36.166 6 -50.499 18s-21.5 25.667 -21.5 41c-0.666992 17.333 5.5 33.333 18.5 48s31.833 22 56.5 22zM-101.001 -230
c-16.667 0 -31.3311 1.99902 -43.998 5.99902s-23.167 9.16699 -31.5 15.5s-14.5 13.333 -18.5 21s-6 15.167 -6 22.5c-0.666992 16 3.83301 30.167 13.5 42.5s22.167 18.5 37.5 18.5c18.667 0 32.667 -5.83301 42 -17.5s14 -23.5 14 -35.5c0 -10 1.66699 -18.167 5 -24.5
s7.33301 -9.5 12 -9.5c12.667 0 24.834 6.66699 36.501 20s23.334 32.333 35.001 57s23.667 54.667 36 90s25.166 75 38.499 119l64 207c2.66699 8 4.16699 14.833 4.5 20.5s0.5 10.5 0.5 14.5s-1.5 7.5 -4.5 10.5s-6.83301 4.5 -11.5 4.5c-5.33301 0 -11.5 -2 -18.5 -6
s-14 -8.66699 -21 -14s-13.667 -10.833 -20 -16.5s-10.833 -9.83398 -13.5 -12.501s-5.33398 -2.66699 -8.00098 0l-10 11c-2.66699 2.66699 -3 5.33398 -1 8.00098c3.33301 4.66699 10.666 12.834 21.999 24.501s25.833 23.5 43.5 35.5s37.5 22.5 59.5 31.5
s45.667 13.5 71 13.5c10 0 19.333 -3.5 28 -10.5s13 -16.167 13 -27.5c0 -8 -2.83301 -25.5 -8.5 -52.5s-15.167 -59.833 -28.5 -98.5l-58 -173c-4 -12 -9.83301 -27.5 -17.5 -46.5s-17.334 -39.5 -29.001 -61.5s-25.167 -44 -40.5 -66s-32.5 -42 -51.5 -60
s-39.667 -32.667 -62 -44s-46.5 -17 -72.5 -17z" />
    <glyph glyph-name="k" unicode="k" horiz-adv-x="471" 
d="M5 0c-4 0 -6.66211 1.66895 -7.99512 5.00195s-1.33301 6.66602 0 9.99902l221 583c5.33301 13.333 5.66602 24 0.999023 32s-13.667 12 -27 12h-28c-5.33301 0 -7 3.33301 -5 10l6 18c1.33301 2.66699 2.66602 4.66699 3.99902 6s4 2 8 2h183
c5.33301 0 8.16602 -2.16699 8.49902 -6.5s-0.5 -8.83301 -2.5 -13.5l-151 -341l7 -4c8 10.667 18.5 22.667 31.5 36s27.333 25.833 43 37.5s32.167 21.334 49.5 29.001s34.666 11.5 51.999 11.5c19.333 0 35.666 -5.33301 48.999 -16s20 -27 20 -49
c0 -20.667 -7.33301 -40.167 -22 -58.5s-32 -34.833 -52 -49.5s-40.333 -27.334 -61 -38.001s-37.334 -18.334 -50.001 -23.001v-8l74 -113c8.66699 -12.667 16 -21.5 22 -26.5s11.667 -7.5 17 -7.5c8.66699 0 16.834 3 24.501 9s13.167 10.667 16.5 14
c2 2 3.66699 2.83301 5 2.5s2.66602 -1.16602 3.99902 -2.49902l11 -13c2 -2.66699 1 -6 -3 -10c-12.667 -13.333 -28 -24.666 -46 -33.999s-42 -14 -72 -14c-27.333 0 -47.666 4.66699 -60.999 14s-25 24.666 -35 45.999l-43 100c-3.33301 7.33301 -8 12.166 -14 14.499
s-12 3.5 -18 3.5l-56 -161c-1.33301 -4.66699 -6.33301 -7 -15 -7h-88zM175.005 195.002c20 -4 40.501 -1.49902 61.501 7.50098s40.333 21.167 58 36.5s32.167 32.166 43.5 50.499s17 34.5 17 48.5c0 6 -2 11.667 -6 17s-9.66699 8 -17 8
c-6.66699 0 -15.167 -3.16699 -25.5 -9.5s-20.833 -13.833 -31.5 -22.5s-20.334 -17.167 -29.001 -25.5s-14.667 -14.5 -18 -18.5l-16 -18c-6 -6.66699 -10.667 -13 -14 -19z" />
    <glyph glyph-name="l" unicode="l" horiz-adv-x="260" 
d="M333 678c9.33301 0 11.667 -5.99902 7 -17.999l-200 -561c-5.33301 -14 -7.33301 -24.667 -6 -32s6.66602 -11 15.999 -11c6 0 12.5 2 19.5 6s13.833 8.66699 20.5 14s12.834 10.666 18.501 15.999l13.5 13c2.66699 2.66699 5.66699 2.66699 9 0l11 -12
c2 -3.33301 2 -7 0 -11c-1.33301 -2 -6.83301 -7.83301 -16.5 -17.5s-22.667 -20 -39 -31s-35.666 -21 -57.999 -30s-46.833 -13.5 -73.5 -13.5c-10.667 0 -20.5 4.83301 -29.5 14.5s-13.5 18.834 -13.5 27.501c0 4 1 9.83301 3 17.5s4.5 16 7.5 25l9 26.5l8.5 24l157 454
c6.66699 19.333 8.83398 34.666 6.50098 45.999s-10.833 17 -25.5 17h-29c-6.66699 0 -9.33398 3 -8.00098 9l6 20c1.33301 4.66699 4.66602 7 9.99902 7h176z" />
    <glyph glyph-name="m" unicode="m" horiz-adv-x="768" 
d="M40 0c-9.33301 0 -12.3359 4.33203 -9.00293 12.999l65 189l16 46.5l15 43c4.66699 13 8.33398 24.167 11.001 33.5s4 16 4 20c0 3.33301 -0.666992 6.5 -2 9.5s-4.66602 4.5 -9.99902 4.5c-3.33301 0 -8.33301 -2.66699 -15 -8s-13.667 -11.5 -21 -18.5s-14 -14 -20 -21
s-10 -11.833 -12 -14.5c-3.33301 -4 -7 -4 -11 0l-11 10c-3.33301 3.33301 -4 6.33301 -2 9c4 6 11.167 15.167 21.5 27.5s23 24.666 38 36.999s31.667 23.166 50 32.499s37.5 14 57.5 14c21.333 0 36 -3.5 44 -10.5s12 -16.5 12 -28.5c0 -7.33301 -2.83301 -19 -8.5 -35
s-12.167 -32.667 -19.5 -50l-21 -48.5c-6.66699 -15 -11 -25.167 -13 -30.5l10 -7l37 62c14.667 24 31 47 49 69s37.667 40.667 59 56s44 23 68 23c16.667 0 31.334 -5.16699 44.001 -15.5s19 -21.5 19 -33.5c0 -7.33301 -2.16699 -18.333 -6.5 -33
s-9.16602 -30 -14.499 -46s-11 -31.167 -17 -45.5s-10.333 -25.5 -13 -33.5l9 -7l43.5 67.5c15.667 25 32.667 48.333 51 70s38 39.834 59 54.501s43.833 22 68.5 22c10.667 0 19.834 -2 27.501 -6s14 -9 19 -15s8.66699 -12.167 11 -18.5s3.5 -11.833 3.5 -16.5
c0 -8 -1.5 -18.667 -4.5 -32s-7 -28 -12 -44s-10.667 -33 -17 -51l-18.5 -54l-26.5 -73.5c-7.66699 -20.333 -11.5 -34.166 -11.5 -41.499c1.33301 -9.33301 5.33301 -14 12 -14c6 0 12.833 3.33301 20.5 10s15 14.167 22 22.5s13.167 16.333 18.5 24l10 14.5
c2.66699 4 5.33398 5.33301 8.00098 4l14 -10c3.33301 -2.66699 3.66602 -7 0.999023 -13c-0.666992 -2 -5.33398 -9.5 -14.001 -22.5s-20.834 -27 -36.501 -42s-34.667 -28.5 -57 -40.5s-47.166 -18 -74.499 -18c-16.667 0 -28.334 4 -35.001 12s-10.334 16 -11.001 24
c-0.666992 18 17.333 75.333 54 172l19.5 52c5 14 9 26 12 36s5.16699 18 6.5 24s2 11.333 2 16c0 12.667 -6 19 -18 19c-4 0 -11 -4.83301 -21 -14.5s-21.833 -22.834 -35.5 -39.501s-28.5 -35.834 -44.5 -57.501s-32 -44.5 -48 -68.5
c-3.33301 -5.33301 -8.33301 -14.166 -15 -26.499s-13 -27.166 -19 -44.499l-31 -88c-1.33301 -4 -6 -6 -14 -6h-85c-9.33301 0 -12.666 4.33301 -9.99902 13l60 166c12.667 34.667 23.5 65.667 32.5 93s13.5 45 13.5 53c0 5.33301 -1 10 -3 14s-6.66699 6 -14 6
c-4 0 -11.167 -4.66699 -21.5 -14s-22 -21.666 -35 -36.999s-27.167 -33 -42.5 -53s-30 -41 -44 -63c-6.66699 -9.33301 -13.5 -21 -20.5 -35s-14.167 -30 -21.5 -48l-33 -88c-1.33301 -4.66699 -6 -7 -14 -7h-84z" />
    <glyph glyph-name="n" unicode="n" horiz-adv-x="531" 
d="M34 0c-8.66699 0 -11.6709 3.66699 -9.00391 11l69 192l17 47c5.33301 15.333 10 29.5 14 42.5l10 33c2.66699 9 4 15.167 4 18.5c0 10.667 -4.33301 16 -13 16c-4 0 -9 -2.16699 -15 -6.5s-12.333 -9.33301 -19 -15s-13 -11.5 -19 -17.5s-10.667 -11 -14 -15
c-4 -4 -7.33301 -4.33301 -10 -1l-10 11c-3.33301 2.66699 -3.66602 6 -0.999023 10l20.5 24c9.66699 11.333 22.167 22.666 37.5 33.999s33.333 21.333 54 30s44 13 70 13c15.333 0 25.833 -4.5 31.5 -13.5s8.5 -17.5 8.5 -25.5c0 -7.33301 -4.66699 -23 -14 -47
s-20.666 -51.667 -33.999 -83l9 -7l31.5 46c13.667 20 29.834 39.5 48.501 58.5s39.167 35.667 61.5 50s45.833 21.5 70.5 21.5c10.667 0 20 -2.16699 28 -6.5s14.667 -9.83301 20 -16.5s9.33301 -14 12 -22s4 -15.333 4 -22c0 -5.33301 -1 -12.333 -3 -21
s-5.16699 -20.167 -9.5 -34.5s-10.333 -32.166 -18 -53.499l-27.5 -78l-25 -72c-4.66699 -14 -7 -24 -7 -30c0 -11.333 4.33301 -17 13 -17c2.66699 0 6.66699 1.66699 12 5s10.666 7.33301 15.999 12l15.5 14c5 4.66699 8.83301 8.66699 11.5 12c2.66699 4 6 4 10 0l9 -8
c4 -3.33301 4.33301 -7.33301 1 -12c-3.33301 -4 -9.33301 -10.833 -18 -20.5s-20.167 -19.334 -34.5 -29.001s-31.166 -18.334 -50.499 -26.001s-41 -11.5 -65 -11.5c-15.333 0 -25.833 3.83301 -31.5 11.5s-8.5 16.5 -8.5 26.5c0 9.33301 4.83301 28.333 14.5 57l37.5 109
l13 37c4.66699 13.333 9 26.333 13 39s7.33301 23.834 10 33.501s4 16.834 4 21.501c0 14.667 -6.66699 22 -20 22c-6 0 -14.5 -4.5 -25.5 -13.5s-23.167 -20.5 -36.5 -34.5s-26.666 -29.667 -39.999 -47s-25 -34 -35 -50l-30.5 -48.5c-9 -15 -15.167 -26.833 -18.5 -35.5
l-39 -112c-1.33301 -2 -2.83301 -3.5 -4.5 -4.5s-5.16699 -1.5 -10.5 -1.5h-85z" />
    <glyph glyph-name="o" unicode="o" horiz-adv-x="419" 
d="M149 48c7.33301 0 15 1.50195 23 4.50195s16.167 8.16699 24.5 15.5s17.166 17.5 26.499 30.5s19 29.167 29 48.5c8 14.667 15.667 30.5 23 47.5s13.833 33.833 19.5 50.5s10.167 32.167 13.5 46.5s5 26.166 5 35.499c0 12 -2.83301 22.167 -8.5 30.5
s-15.167 12.5 -28.5 12.5c-19.333 0 -37.166 -9.16699 -53.499 -27.5s-35.833 -47.833 -58.5 -88.5c-17.333 -30 -30 -59.333 -38 -88s-12 -53.334 -12 -74.001c0 -10 3 -19.833 9 -29.5s14.667 -14.5 26 -14.5zM163 -9.99805c-14.667 0 -29.667 2.66699 -45 8
s-29.5 14 -42.5 26s-23.667 27.833 -32 47.5s-12.5 43.5 -12.5 71.5c0 40.667 6.16699 80.834 18.5 120.501s32.5 74.834 60.5 105.501c20.667 21.333 42.834 36.333 66.501 45s49.167 13 76.5 13c13.333 0 28.166 -2 44.499 -6s31.666 -11.333 45.999 -22
s26.333 -25.5 36 -44.5s14.5 -43.833 14.5 -74.5c0 -14.667 -1.5 -31.834 -4.5 -51.501s-7.66699 -40.167 -14 -61.5s-14.833 -42.333 -25.5 -63s-24 -39.334 -40 -56.001c-19.333 -21.333 -40.666 -36.333 -63.999 -45s-51 -13 -83 -13z" />
    <glyph glyph-name="p" unicode="p" horiz-adv-x="497" 
d="M157 37c20.667 3.33301 42.8301 10.999 66.4971 22.999s45.834 27.833 66.501 47.5s37.834 42.334 51.501 68.001s20.5 54.167 20.5 85.5c0 22 -1.83301 40.167 -5.5 54.5s-8.5 26 -14.5 35s-12.667 15.333 -20 19s-14.333 5.5 -21 5.5h-11.5
c-4.33301 0 -9.16602 -0.666992 -14.499 -2zM338.996 552.999c2.66699 1.33301 4.66602 2 5.99902 2c3.33301 0 5 -1.33301 5 -4c0 -1.33301 -0.333008 -2.66602 -1 -3.99902l-2 -4l-54 -118c4.66699 1.33301 10 2 16 2h17c48 0 85.333 -13 112 -39s40 -59.667 40 -101
c0 -37.333 -9.16699 -73.833 -27.5 -109.5s-50.166 -69.834 -95.499 -102.501c-25.333 -18.667 -56.833 -34.667 -94.5 -48s-76.834 -22.333 -117.501 -27l-64 -196c-8.66699 -26 -10.834 -43.833 -6.50098 -53.5s15.833 -14.5 34.5 -14.5h28
c5.33301 0 7.33301 -2.66699 6 -8l-6 -22c-1.33301 -4 -5.33301 -6 -12 -6c-5.33301 0 -17 0.5 -35 1.5s-48 1.5 -90 1.5c-23.333 0 -42.666 -0.166992 -57.999 -0.5s-28 -0.666016 -38 -0.999023s-17.667 -0.666016 -23 -0.999023s-9.33301 -0.5 -12 -0.5
c-5.33301 0 -7.66602 2.66699 -6.99902 8l5 20c1.33301 5.33301 4 8 8 8h23c15.333 0 29.333 6 42 18s24 32.333 34 61l184 532c-12 -3.33301 -23.833 -8.16602 -35.5 -14.499s-22.5 -13.166 -32.5 -20.499s-18.833 -14.833 -26.5 -22.5s-13.5 -14.167 -17.5 -19.5
c-3.33301 -4.66699 -7 -5.33398 -11 -2.00098l-10 9c-2 1.33301 -2.83301 3.16602 -2.5 5.49902s1.16602 4.16602 2.49902 5.49902c5.33301 7.33301 12.5 16.333 21.5 27s19.833 21.5 32.5 32.5s27.334 21.667 44.001 32s35.334 19.166 56.001 26.499l30 102
c1.33301 3.33301 3.16602 6 5.49902 8s6.5 3.66699 12.5 5z" />
    <glyph glyph-name="q" unicode="q" horiz-adv-x="482" 
d="M171 32c15.333 0 30.1689 6.16699 44.502 18.5s28 28 41 47s24.667 40 35 63s19.333 45.333 27 67s13.667 41.5 18 59.5s6.5 31 6.5 39c0 15.333 -2.33301 28.5 -7 39.5s-14.334 16.5 -29.001 16.5c-11.333 0 -20.833 -2.33301 -28.5 -7s-17.834 -14 -30.501 -28
c-15.333 -17.333 -30 -37.5 -44 -60.5s-26.5 -46.833 -37.5 -71.5s-19.667 -49.167 -26 -73.5s-9.5 -45.833 -9.5 -64.5c0 -30 13.333 -45 40 -45zM470.003 425c6.66699 3.33301 13.6602 5.00195 20.9932 5.00195c4 0 7 -2.33301 9 -7s1 -12 -3 -22l-229 -614
c-6.66699 -18 -8.33398 -31 -5.00098 -39s9 -12 17 -12h28c6 0 8 -2.66699 6 -8l-6 -20c-1.33301 -5.33301 -4.66602 -8 -9.99902 -8c-6 0 -18.167 0.5 -36.5 1.5s-47.166 1.5 -86.499 1.5c-41.333 0 -71.666 -0.5 -90.999 -1.5s-31.666 -1.5 -36.999 -1.5
c-6 0 -8.66699 3.33301 -8 10l4 18c2 5.33301 5 8 9 8h25c15.333 0 29.166 3.16699 41.499 9.5s22.833 19.5 31.5 39.5l108 249l-8 6c-13.333 -14.667 -30.166 -26.667 -50.499 -36s-40.5 -14 -60.5 -14c-10.667 0 -22.167 2 -34.5 6s-24 10.667 -35 20
s-20.167 21.666 -27.5 36.999s-11 34.666 -11 57.999c0 16.667 1.16699 35.334 3.5 56.001s7.33301 42.334 15 65.001s18.334 45.834 32.001 69.501s31.5 46.5 53.5 68.5c12 11.333 23.667 20.666 35 27.999s23 13.166 35 17.499s24.833 7.33301 38.5 9
s28.834 2.5 45.501 2.5c20.667 0 37.834 -3.83301 51.501 -11.5s23.834 -15.834 30.501 -24.501c1.33301 -2 3.5 -3 6.5 -3s5.5 0.666992 7.5 2z" />
    <glyph glyph-name="r" unicode="r" horiz-adv-x="390" 
d="M51 0c-8.66699 0 -11.6699 3 -9.00293 9l48 162c4 14 8.83301 30 14.5 48l16 52.5c5 17 9.16699 32.333 12.5 46s5 22.834 5 27.501c0 5.33301 -1.5 9.83301 -4.5 13.5s-7.16699 5.5 -12.5 5.5c-4 0 -9 -1.83301 -15 -5.5s-12.167 -8.33398 -18.5 -14.001
s-12.5 -11.667 -18.5 -18s-10.667 -12.166 -14 -17.499c-4 -6 -8 -7.33301 -12 -4l-10 7c-2.66699 2 -2.66699 6 0 12c4 7.33301 10.5 16.833 19.5 28.5s20.333 23 34 34s29.334 20.5 47.001 28.5s37.5 12 59.5 12c19.333 0 32.833 -4.33301 40.5 -13s11.5 -17.667 11.5 -27
s-4.16699 -25.5 -12.5 -48.5l-30.5 -83.5l11 -6c6 14 14.333 31 25 51s22.667 39.5 36 58.5s28.333 35.167 45 48.5s34 20 52 20c14.667 0 27.834 -5 39.501 -15s17.5 -23 17.5 -39c0 -8.66699 -1.5 -17 -4.5 -25s-6.83301 -15 -11.5 -21s-9.5 -10.667 -14.5 -14
s-9.83301 -5 -14.5 -5c-14 0 -25 2.66699 -33 8l-12 8c-4 2.66699 -9.33301 4 -16 4c-8 0 -17 -4.33301 -27 -13s-20 -19.5 -30 -32.5s-19.5 -27.167 -28.5 -42.5s-16.167 -29.333 -21.5 -42c-5.33301 -12 -10.666 -25.333 -15.999 -40s-11 -31.334 -17 -50.001l-32 -101
c-2 -4.66699 -6.33301 -7 -13 -7h-86z" />
    <glyph glyph-name="s" unicode="s" horiz-adv-x="325" 
d="M96 -10c-36 0 -62.834 5.6709 -80.501 17.0039s-26.5 25.666 -26.5 42.999c0 15.333 4.16699 27.333 12.5 36s18.5 13 30.5 13c13.333 0 24.166 -4.16699 32.499 -12.5s15.5 -19.833 21.5 -34.5c2.66699 -7.33301 6.5 -13.333 11.5 -18s10.167 -7 15.5 -7
c30.667 0 46.334 22.333 47.001 67c0 8 -1.16699 15.333 -3.5 22s-5.66602 13.5 -9.99902 20.5s-9.33301 14.667 -15 23s-11.834 18.166 -18.501 29.499l-19 31.5c-5.33301 9 -9.66602 17.167 -12.999 24.5s-5.83301 14.833 -7.5 22.5s-2.5 16.167 -2.5 25.5
c0 17.333 3.5 34 10.5 50s17.5 30.333 31.5 43s31.333 22.667 52 30s44.667 11 72 11c10 0 20.167 -1 30.5 -3s19.5 -5.33301 27.5 -10s14.667 -11 20 -19s8 -17.667 8 -29c0 -15.333 -3.83301 -27.5 -11.5 -36.5s-18.834 -13.5 -33.501 -13.5c-10.667 0 -20.167 3 -28.5 9
s-13.5 17 -15.5 33c-1.33301 7.33301 -3.83301 14.166 -7.5 20.499s-9.16699 9.5 -16.5 9.5c-10 0 -18.5 -3 -25.5 -9s-10.5 -21.333 -10.5 -46c0 -9.33301 1.83301 -18.666 5.5 -27.999s8.33398 -18.333 14.001 -27s11.5 -16.834 17.5 -24.501s11 -13.834 15 -18.501
c16 -19.333 26.167 -36.333 30.5 -51s6.5 -31.667 6.5 -51c0 -20 -3.66699 -38.667 -11 -56s-18 -32.5 -32 -45.5s-31.5 -23.167 -52.5 -30.5s-44.833 -11 -71.5 -11z" />
    <glyph glyph-name="t" unicode="t" horiz-adv-x="321" 
d="M265 397l101 0.000976562c5.33301 0 7 -3 5 -9l-7 -26c-2 -6 -6.33301 -9 -13 -9h-101l-82 -220l-9 -28c-3.33301 -10.667 -5 -19 -5 -25c0 -5.33301 1.83301 -9.83301 5.5 -13.5s9.16699 -5.5 16.5 -5.5c4.66699 0 11.5 2.16699 20.5 6.5s18 9.33301 27 15
s17.167 11.167 24.5 16.5s11.666 9 12.999 11c2.66699 3.33301 5.66699 3.33301 9 0l11 -12c2.66699 -2.66699 3.66699 -5.33398 3 -8.00098c-3.33301 -4 -10.833 -11.5 -22.5 -22.5s-26.334 -22.333 -44.001 -34s-38 -21.834 -61 -30.501s-47.167 -13 -72.5 -13
c-17.333 0 -30.333 4.16699 -39 12.5s-13 16.166 -13 23.499c0 10 0.833008 20.333 2.5 31s4.5 21 8.5 31l91 265h-78c-6.66699 0 -8.66699 3.66699 -6 11l6 26c2 4.66699 5.66699 7 11 7h83l33 108c2 5.33301 4.83301 8.83301 8.5 10.5s12.167 2.83398 25.5 3.50098
c6.66699 0.666992 14.5 2.5 23.5 5.5s18 6.16699 27 9.5s17 6.83301 24 10.5s11.5 6.16699 13.5 7.5l8 4c2.66699 1.33301 5.33398 2 8.00098 2c3.33301 0 5.83301 -2.16699 7.5 -6.5s1.83398 -8.16602 0.500977 -11.499z" />
    <glyph glyph-name="u" unicode="u" horiz-adv-x="521" 
d="M494 417c10 0 13.335 -4.33105 10.002 -12.998l-70 -214c-13.333 -40 -22.666 -69.5 -27.999 -88.5s-8 -30.5 -8 -34.5c0.666992 -4.66699 2.16699 -7.83398 4.5 -9.50098s5.16602 -2.5 8.49902 -2.5c6.66699 0 15 6 25 18l29 35c3.33301 4 6.66602 4.33301 9.99902 1
l11 -8c2 -1.33301 2 -5 0 -11c-3.33301 -6.66699 -9.33301 -15.667 -18 -27s-19.834 -22.333 -33.501 -33s-29.834 -20 -48.501 -28s-39.667 -12 -63 -12c-13.333 0 -23.666 3 -30.999 9s-11 14.333 -11 25c0 4.66699 2 13.834 6 27.501s8.83301 28.5 14.5 44.5l16.5 46.5
l12 33.5l-11 6l-36 -53.5c-14.667 -21.667 -31.834 -42.834 -51.501 -63.501s-41 -38.334 -64 -53.001s-46.833 -22 -71.5 -22c-6.66699 0 -13.167 1.83301 -19.5 5.5s-12 8 -17 13s-9 10.333 -12 16s-4.16699 10.5 -3.5 14.5c0 10.667 1.16699 21.667 3.5 33
s6 24.333 11 39s11.333 31.167 19 49.5l26.5 64.5c13.333 33.333 23.333 60.5 30 81.5s10 34.833 10 41.5c0 11.333 -5.66699 17 -17 17c-7.33301 0 -17.666 -5.16699 -30.999 -15.5s-25.666 -22.5 -36.999 -36.5c-3.33301 -4.66699 -7 -5 -11 -1l-10 10
c-2 3.33301 -2 6.33301 0 9l22 26.5c9.33301 11 21 21.667 35 32s30.333 19.166 49 26.499s40.334 11 65.001 11c16.667 0 29.5 -4.66699 38.5 -14s13.5 -20.333 13.5 -33c0 -11.333 -4 -30.333 -12 -57s-22 -64.667 -42 -114c-12.667 -30.667 -22.834 -56.667 -30.501 -78
s-11.5 -36.666 -11.5 -45.999c0 -5.33301 1.83301 -9.66602 5.5 -12.999s7.5 -5 11.5 -5s12 5.83301 24 17.5s25 25.667 39 42l41 50c13.333 17 23 30.5 29 40.5c8.66699 14.667 16.167 29.167 22.5 43.5s13.166 32.166 20.499 53.499l32 96c1.33301 4.66699 6.33301 7 15 7
h89z" />
    <glyph glyph-name="v" unicode="v" horiz-adv-x="555" 
d="M254 -10c-17.333 0 -31.332 2.99512 -41.999 8.99512s-21 13.667 -31 23c-16 14.667 -24 42.334 -24 83.001c0 36.667 8.33301 73.667 25 111c6.66699 16 15 31.333 25 46s20 28.5 30 41.5s19.667 24.833 29 35.5l24 27l-6 7
c-11.333 -11.333 -25.666 -19.5 -42.999 -24.5s-35.333 -7.5 -54 -7.5h-49c-20.667 0 -34.834 -2.66699 -42.501 -8s-11.834 -12.333 -12.501 -21c0.666992 -6.66699 5 -12.5 13 -17.5s14.333 -8.83301 19 -11.5c3.33301 -2 7.83301 -6.66699 13.5 -14
s8.5 -17.666 8.5 -30.999s-3.33301 -23.5 -10 -30.5s-18 -10.5 -34 -10.5c-13.333 0 -25.666 6.5 -36.999 19.5s-17 32.5 -17 58.5c0 20.667 4.66699 40.334 14 59.001s17.666 32 24.999 40c4.66699 5.33301 10 10.833 16 16.5s13.167 10.834 21.5 15.501
s18.666 8.5 30.999 11.5s27.5 4.5 45.5 4.5c30.667 0 54.834 0.333008 72.501 1s31.5 1.16699 41.5 1.5s17 0.833008 21 1.5s7.33301 1 10 1c6.66699 0 11.834 -1.5 15.501 -4.5s3.16699 -8.16699 -1.5 -15.5l-36.5 -58c-10.333 -16.667 -19 -33.834 -26 -51.501
s-12.167 -36.834 -15.5 -57.501s-5 -46 -5 -76c0 -33.333 5.5 -58 16.5 -74s22.833 -24 35.5 -24c21.333 0 38.666 3.83301 51.999 11.5s24 17.167 32 28.5c10 14.667 18.333 28.5 25 41.5s11.834 26.333 15.501 40s6.16699 27.667 7.5 42s2 30.5 2 48.5
c1.33301 17.333 0.5 30.5 -2.5 39.5s-7.16699 16.167 -12.5 21.5c-2.66699 2.66699 -5.66699 7.83398 -9 15.501s-5 14.834 -5 21.501c0 3.33301 1.16699 7.83301 3.5 13.5s6.33301 11.334 12 17.001s12.667 10.5 21 14.5s18.5 6 30.5 6c9.33301 0 17.5 -2.33301 24.5 -7
s12.667 -11 17 -19s7.5 -17.167 9.5 -27.5s3 -20.833 3 -31.5c0 -16.667 -1 -32.167 -3 -46.5s-5.5 -29.166 -10.5 -44.499s-12.333 -32.166 -22 -50.499s-21.834 -39.5 -36.501 -63.5c-12 -20 -25.833 -38.833 -41.5 -56.5s-32.834 -33.334 -51.501 -47.001
s-38.667 -24.334 -60 -32.001s-43.666 -11.5 -66.999 -11.5z" />
    <glyph glyph-name="w" unicode="w" horiz-adv-x="776" 
d="M264 417c8 0 16.168 0.333984 24.501 1.00098l25.5 2c16.667 2 32.334 3 47.001 3c6.66699 0 11.334 -1.83301 14.001 -5.5s1.33398 -8.83398 -3.99902 -15.501c-6.66699 -8.66699 -15.5 -22.167 -26.5 -40.5s-21.667 -39 -32 -62s-19.166 -47.167 -26.499 -72.5
s-11 -49.666 -11 -72.999c0 -17.333 4.66699 -33.333 14 -48s21.666 -22.334 36.999 -23.001c13.333 0 27.5 3 42.5 9s29.5 17.667 43.5 35c7.33301 9.33301 14.666 25.5 21.999 48.5s13 50.833 17 83.5c1.33301 14.667 2.33301 33.167 3 55.5s3.66699 43.833 9 64.5
c3.33301 12.667 11.333 21.667 24 27s24 8 34 8c11.333 0 20.833 -2.66699 28.5 -8s11.5 -12 11.5 -20c0 -14 -4.5 -30.833 -13.5 -50.5s-17.167 -42.834 -24.5 -69.501c-2 -8.66699 -4.33301 -18.167 -7 -28.5s-5.16699 -20.666 -7.5 -30.999
s-4.16602 -20.166 -5.49902 -29.499s-2 -17 -2 -23c0 -18 4.5 -34.333 13.5 -49s24.833 -22 47.5 -22c16 0 31.167 4.16699 45.5 12.5s26.833 19.5 37.5 33.5s19.167 30.5 25.5 49.5s9.5 39.167 9.5 60.5c0 22.667 -2.5 42.667 -7.5 60s-10.5 28.666 -16.5 33.999
c-5.33301 4 -10.5 10.5 -15.5 19.5s-7.5 17.5 -7.5 25.5c0 13.333 4.5 24.833 13.5 34.5s20.833 14.5 35.5 14.5c24.667 0 44.167 -9 58.5 -27s21.5 -46 21.5 -84c0 -18.667 -2.16699 -38.167 -6.5 -58.5s-10.333 -40.666 -18 -60.999s-16.834 -40.333 -27.501 -60
s-22 -37.834 -34 -54.501c-9.33301 -12.667 -18.833 -24.5 -28.5 -35.5s-20.334 -20.667 -32.001 -29s-24.834 -15 -39.501 -20s-31.334 -7.5 -50.001 -7.5c-16.667 0 -30.667 3.16699 -42 9.5s-20.666 14.5 -27.999 24.5s-13 21 -17 33s-7 23.667 -9 35
c-6.66699 -9.33301 -15.5 -19.833 -26.5 -31.5s-23.5 -22.667 -37.5 -33s-29.667 -19.166 -47 -26.499s-35.333 -11 -54 -11c-33.333 0 -58.5 9.66699 -75.5 29s-25.5 46 -25.5 80c0 22 5 46 15 72s22.5 51.667 37.5 77s30.833 49.166 47.5 71.499s31.667 40.5 45 54.5l-5 3
c-3.33301 -1.33301 -8 -4.5 -14 -9.5s-13.5 -10.167 -22.5 -15.5s-19.333 -10.166 -31 -14.499s-24.5 -6.5 -38.5 -6.5h-78c-9.33301 0 -17.833 -1.33301 -25.5 -4s-11.834 -7.66699 -12.501 -15c0 -4.66699 1.16699 -8.66699 3.5 -12s5.5 -6.33301 9.5 -9
s8 -4.83398 12 -6.50098s7.33301 -2.83398 10 -3.50098c3.33301 -1.33301 7.83301 -5 13.5 -11s8.5 -16.667 8.5 -32c0 -11.333 -3.66699 -21.166 -11 -29.499s-18.666 -12.5 -33.999 -12.5c-14 0 -26.667 7.83301 -38 23.5s-17 37.167 -17 64.5c0 22 4.5 40.5 13.5 55.5
s19.167 29.167 30.5 42.5c12 13.333 24.667 22.5 38 27.5s32.666 7.5 57.999 7.5h85z" />
    <glyph glyph-name="x" unicode="x" horiz-adv-x="470" 
d="M204 151l-3.99902 0.999023c-10 -17.333 -21.167 -35.5 -33.5 -54.5s-25.166 -36.5 -38.499 -52.5s-26.833 -29.167 -40.5 -39.5s-27.5 -15.5 -41.5 -15.5c-12.667 0 -23.167 3.16699 -31.5 9.5s-12.5 16.5 -12.5 30.5c0 5.33301 0.666992 12.333 2 21
s3.16602 18 5.49902 28s4.83301 19.667 7.5 29s5.33398 17 8.00098 23c1.33301 4 4 5.33301 8 4l15 -4c4 -0.666992 5.33301 -3.33398 4 -8.00098c-6 -24.667 -7.5 -40.834 -4.5 -48.501s8.83301 -11.5 17.5 -11.5c4.66699 0 12.334 4.16699 23.001 12.5
s22.167 18.833 34.5 31.5s24.833 26.667 37.5 42s24 30 34 44l-34 138c-2 10 -5 16.333 -9 19s-8 4 -12 4c-7.33301 0 -16.5 -7.16699 -27.5 -21.5s-21.833 -31.833 -32.5 -52.5c-2 -4 -5.33301 -5 -10 -3l-14 7c-2.66699 0.666992 -3.33398 3.33398 -2.00098 8.00098
c0.666992 2.66699 4.66699 11.334 12 26.001s17.5 30 30.5 46s28.667 30.5 47 43.5s39.5 19.5 63.5 19.5c15.333 0 28.166 -5.16699 38.499 -15.5s17.166 -25.166 20.499 -44.499l15 -90h6c5.33301 10 11.333 20.667 18 32l20 32.5c6.66699 10.333 13 19.666 19 27.999
s11.333 14.833 16 19.5c8 8 17.333 16.333 28 25s25.667 13 45 13c14 0 24.167 -3.83301 30.5 -11.5s9.5 -17.167 9.5 -28.5c0 -6 -0.666992 -13.333 -2 -22s-3.33301 -18 -6 -28l-8.5 -30.5c-3 -10.333 -6.5 -19.833 -10.5 -28.5c-2 -4.66699 -5.33301 -6 -10 -4l-12 4
c-5.33301 2 -7.66602 4.66699 -6.99902 8c6 24 8.66699 41 8 51s-5.66699 15 -15 15c-5.33301 0 -12.333 -3.33301 -21 -10s-18.334 -15.5 -29.001 -26.5s-21.667 -23.333 -33 -37l-33 -41.5l38 -158c4 -17.333 12.333 -26 25 -26c3.33301 0 8.16602 2.83301 14.499 8.5
s12.5 12.334 18.5 20.001s11.5 15.334 16.5 23.001s8.16699 13.167 9.5 16.5c0.666992 2.66699 3.66699 3 9 1l12 -6c4 -2 5 -5.33301 3 -10c-3.33301 -5.33301 -8.5 -14.5 -15.5 -27.5s-16.5 -26 -28.5 -39s-26.5 -24.5 -43.5 -34.5s-36.833 -15 -59.5 -15
c-19.333 0 -34.166 5.16699 -44.499 15.5s-17.833 26.166 -22.5 47.499z" />
    <glyph glyph-name="y" unicode="y" horiz-adv-x="445" 
d="M31 278c-3.33301 1.33301 -4.00391 6.00293 -2.00391 14.0029c0.666992 2.66699 3.5 11.334 8.5 26.001s13 30 24 46s25.5 30.5 43.5 43.5s40.333 19.5 67 19.5c10 0 18.833 -1.83301 26.5 -5.5s14.167 -10 19.5 -19s9.83301 -21.167 13.5 -36.5
s6.16699 -34.666 7.5 -57.999c2 -28.667 3.5 -57 4.5 -85s1.66699 -54.167 2 -78.5s0.333008 -45.833 0 -64.5s-0.833008 -32.667 -1.5 -42l12 -1l15.5 31.5l24.5 52.5c8.66699 19.333 16.667 38.666 24 57.999s12.333 35 15 47l5 28c2 11.333 3 24.333 3 39
c0 13.333 -3 27.666 -9 42.999s-9 29.666 -9 42.999c0 11.333 4.33301 22.166 13 32.499s22.334 15.5 41.001 15.5c23.333 0 39.166 -7 47.499 -21s12.5 -32.667 12.5 -56c0 -9.33301 -2 -21.5 -6 -36.5s-9.5 -31.667 -16.5 -50s-14.833 -37.333 -23.5 -57
s-17.667 -38.167 -27 -55.5c-13.333 -25.333 -29.833 -54.166 -49.5 -86.499s-40.667 -65 -63 -98s-45.333 -64.833 -69 -95.5s-46.167 -56.667 -67.5 -78l-25.5 -25.5c-10.333 -10.333 -22 -20.166 -35 -29.499s-27.167 -17.5 -42.5 -24.5s-31.333 -10.5 -48 -10.5
c-23.333 0 -40.5 5.16699 -51.5 15.5s-16.5 22.833 -16.5 37.5c0 18 5.33301 32.667 16 44s22 17 34 17c8.66699 0 15.5 -1.66699 20.5 -5s9.83301 -7.66602 14.5 -12.999c4.66699 -4.66699 9.83398 -8.5 15.501 -11.5s11.167 -4.5 16.5 -4.5s11 0.833008 17 2.5
s13.667 5.5 23 11.5c10.667 6.66699 21.167 14.667 31.5 24s19.5 18.666 27.5 27.999s15 18.166 21 26.499s10.333 14.5 13 18.5c7.33301 10 11.666 21.333 12.999 34s1 27.667 -1 45l-4 35.5c-2 17.667 -4.16699 38.167 -6.5 61.5s-5 48.166 -8 74.499l-8.5 75
c-2.66699 23.667 -5.16699 44.834 -7.5 63.501s-4.16602 32 -5.49902 40c-1.33301 7.33301 -3.16602 13.166 -5.49902 17.499s-6.5 6.5 -12.5 6.5c-5.33301 0 -10.333 -2.33301 -15 -7s-9.16699 -10.5 -13.5 -17.5s-8.16602 -14.333 -11.499 -22
s-5.66602 -14.5 -6.99902 -20.5c-2 -4.66699 -5 -6.33398 -9 -5.00098z" />
    <glyph glyph-name="z" unicode="z" horiz-adv-x="486" 
d="M305 302l-3.99902 5.99414c-26 -4 -47 -3.33301 -63 2s-31 15.333 -45 30l-27.5 27.5c-10.333 10.333 -20.166 15.5 -29.499 15.5c-4.66699 0 -8.66699 -1.5 -12 -4.5s-5 -6.16699 -5 -9.5c0 -7.33301 3.33301 -13.333 10 -18
c3.33301 -2.66699 7.66602 -6.66699 12.999 -12s7.66602 -14.666 6.99902 -27.999c1.33301 -11.333 -2.5 -21.333 -11.5 -30s-18.5 -13 -28.5 -13c-17.333 0 -31.333 5 -42 15s-16 24.667 -16 44c0 12 2.83301 24 8.5 36s13.834 22.833 24.501 32.5s24 17.334 40 23.001
s34.667 8.5 56 8.5c27.333 0 51.166 -2.66699 71.499 -8s38.5 -13.333 54.5 -24c14 -9.33301 24.167 -15.833 30.5 -19.5s13.166 -5.5 20.499 -5.5c6 0 10.833 3.33301 14.5 10s7.16699 14.667 10.5 24s9.83301 19.333 19.5 30s22.834 16 39.501 16c10.667 0 19 -3 25 -9
s9 -12.667 9 -20c0 -9.33301 -3 -19 -9 -29s-13.5 -19.667 -22.5 -29s-19 -18.166 -30 -26.499s-21.5 -15.5 -31.5 -21.5l-201 -187l2 -7c16.667 0.666992 30.5 0 41.5 -2s20.333 -4.83301 28 -8.5s14.167 -8 19.5 -13s10.666 -10.5 15.999 -16.5l45 -48.5
c11.333 -12.333 21.666 -18.5 30.999 -18.5c10.667 0 19.334 2.83301 26.001 8.5s10 12.167 10 19.5c0 6 -1 11.333 -3 16s-4.66699 9.33398 -8 14.001c-7.33301 10 -11.833 18.5 -13.5 25.5s-2.5 14.833 -2.5 23.5c0 11.333 4.66699 20.833 14 28.5
s20.666 11.5 33.999 11.5c18.667 0 31.834 -5.66699 39.501 -17s11.5 -26.666 11.5 -45.999c0 -14.667 -2.5 -29.667 -7.5 -45s-13.667 -29.166 -26 -41.499s-28.833 -22.333 -49.5 -30s-46.334 -11.5 -77.001 -11.5c-17.333 0 -32.333 0.833008 -45 2.5
s-24 4.33398 -34 8.00098s-18.833 8.16699 -26.5 13.5s-15.167 11.666 -22.5 18.999l-28.5 29c-9.66699 10 -18.167 15 -25.5 15c-6 0 -12.333 -2.66699 -19 -8s-11.667 -14.333 -15 -27c-3.33301 -11.333 -9.16602 -20.333 -17.499 -27s-20.166 -10 -35.499 -10
c-11.333 0 -19.333 3.83301 -24 11.5s-7 15.167 -7 22.5c0 10.667 3 21.167 9 31.5s13.5 19.666 22.5 27.999s19 15.333 30 21s21.167 9.83398 30.5 12.501z" />
    <glyph glyph-name="braceleft" unicode="{" horiz-adv-x="310" 
d="M189 570c3.33301 30 11.833 56.5029 25.5 79.5029s30.167 42.667 49.5 59s40.5 29.333 63.5 39s45.5 16.5 67.5 20.5c10 2 19 3.16699 27 3.5s14.333 0.5 19 0.5c11.333 0 17 -4.66699 17 -14c0 -14 -4 -21 -12 -21c-4 0 -9 -0.333008 -15 -1s-11.667 -1.66699 -17 -3
c-33.333 -6.66699 -59.5 -22 -78.5 -46s-31.833 -61.667 -38.5 -113c-2 -14.667 -3.66699 -29.334 -5 -44.001s-2.5 -28.667 -3.5 -42s-2 -25.5 -3 -36.5s-2.5 -20.5 -4.5 -28.5c-3.33301 -14.667 -10.833 -31 -22.5 -49s-29.834 -33.667 -54.501 -47
c-12.667 -7.33301 -24.167 -13.5 -34.5 -18.5s-15.5 -10.833 -15.5 -17.5c0 -4.66699 4 -9.5 12 -14.5l21 -13.5c9.33301 -6 17.833 -14.667 25.5 -26s11.5 -25 11.5 -41c0 -9.33301 -1.5 -19.5 -4.5 -30.5s-6.66699 -22.333 -11 -34s-8.83301 -23.167 -13.5 -34.5
s-8.66699 -21.666 -12 -30.999c-5.33301 -13.333 -10.166 -29 -14.499 -47s-6.5 -39 -6.5 -63c0 -41.333 5.83301 -72.833 17.5 -94.5s27.167 -34.834 46.5 -39.501c6.66699 -1.33301 13.334 -2.33301 20.001 -3s11.667 -1 15 -1c4.66699 0 7 -7 7 -21
c0 -9.33301 -2.33301 -14 -7 -14c-3.33301 0 -8.5 0.166992 -15.5 0.5s-16.833 1.16602 -29.5 2.49902c-13.333 1.33301 -29 5.33301 -47 12s-35.167 16.834 -51.5 30.501s-30.333 31.5 -42 53.5s-17.5 49 -17.5 81c0 26.667 4 51.5 12 74.5s16.667 44.5 26 64.5l28.5 58.5
c9 18.333 13.5 36.166 13.5 53.499c0 15.333 -0.833008 26.5 -2.5 33.5s-4.16699 12.833 -7.5 17.5c-6 8 -18.667 13 -38 15c-8.66699 1.33301 -13 7.66602 -13 18.999s6 17 18 17c6.66699 0 13.167 0.666992 19.5 2s15.166 4.66602 26.499 9.99902
c9.33301 4.66699 18.833 12.5 28.5 23.5s15.167 25.167 16.5 42.5c1.33301 14.667 1.83301 28.834 1.5 42.501l-1 41c-0.333008 13.667 -0.5 28 -0.5 43s1 31.5 3 49.5z" />
    <glyph glyph-name="bar" unicode="|" horiz-adv-x="250" 
d="M136 753c0 6 2 9 6 9h55c4.66699 0 7 -4 7 -12v-1000c0 -6.66699 -1.66699 -10 -5 -10h-57c-4 0 -6 3.33301 -6 10v1003z" />
    <glyph glyph-name="braceright" unicode="}" horiz-adv-x="310" 
d="M319 592c0 -26.667 -3.99805 -51.5029 -11.998 -74.5029s-16.667 -44.5 -26 -64.5l-28.5 -58.5c-9 -18.333 -13.5 -36.166 -13.5 -53.499c0 -13.333 0.833008 -23.5 2.5 -30.5s4.16699 -12.833 7.5 -17.5c7.33301 -10 20 -16 38 -18
c8.66699 -1.33301 13 -6.66602 13 -15.999c0 -13.333 -6 -20 -18 -20c-6.66699 0 -12.667 -0.166992 -18 -0.5s-11.333 -2.83301 -18 -7.5c-14.667 -6.66699 -27.167 -16.167 -37.5 -28.5s-16.166 -26.166 -17.499 -41.499s-2 -29.666 -2 -42.999s0.333008 -26.833 1 -40.5
s1 -28 1 -43s-1 -31.5 -3 -49.5c-3.33301 -30 -11.833 -56.5 -25.5 -79.5s-30.334 -42.667 -50.001 -59s-40.834 -29.333 -63.501 -39s-45 -16.5 -67 -20.5c-10 -2 -19 -3.16699 -27 -3.5s-14.333 -0.5 -19 -0.5c-11.333 0 -17 4.66699 -17 14c0 14 4 21 12 21
c4 0 9 0.333008 15 1s11.667 1.66699 17 3c33.333 6.66699 59.5 22 78.5 46s31.833 61.667 38.5 113c2 14.667 3.66699 29.334 5 44.001s2.5 28.667 3.5 42s2 25.5 3 36.5s2.5 20.5 4.5 28.5c3.33301 14.667 10.833 31 22.5 49s29.834 33.667 54.501 47
c12.667 7.33301 24.167 13.5 34.5 18.5s15.5 10.833 15.5 17.5c0 4.66699 -4 9.5 -12 14.5s-15 9.16699 -21 12.5c-11.333 6.66699 -20.333 15.667 -27 27s-10 25 -10 41c0 8.66699 1.5 18.667 4.5 30s6.66699 22.833 11 34.5s8.83301 23.167 13.5 34.5
s8.66699 21.666 12 30.999c5.33301 13.333 10.166 29 14.499 47s6.5 39 6.5 63c0 41.333 -6.16699 73 -18.5 95s-27.5 35.333 -45.5 40c-6.66699 1.33301 -13.334 2.16602 -20.001 2.49902s-11.667 0.5 -15 0.5s-5.33301 2 -6 6s-1 8.66699 -1 14c0 10 2.66699 15 8 15
c3.33301 0 8.33301 -0.166992 15 -0.5s16.334 -1.16602 29.001 -2.49902s28.167 -5.33301 46.5 -12s35.666 -16.834 51.999 -30.501s30.333 -31.5 42 -53.5s17.5 -49 17.5 -81z" />
    <glyph glyph-name="asciitilde" unicode="~" 
d="M458 329c0 -30 -2.82812 -55.501 -8.49512 -76.501s-13.167 -38 -22.5 -51s-20.333 -22.333 -33 -28s-26.334 -8.5 -41.001 -8.5c-15.333 0 -29.333 2.33301 -42 7s-26.334 11 -41.001 19l-40 24l-24 13c-10 5.33301 -20.667 8 -32 8
c-15.333 -2.66699 -27.333 -10 -36 -22s-13 -33 -13 -63h-63c0 28 3 52.5 9 73.5s14.167 38.167 24.5 51.5s22.333 23.333 36 30s28.5 10 44.5 10c11.333 0 22.166 -1.66699 32.499 -5s22.166 -8.66602 35.499 -15.999l42 -25c8 -5.33301 17.167 -11 27.5 -17
s22.166 -9 35.499 -9c18.667 0 31 6.83301 37 20.5s9 35.167 9 64.5h63z" />
    <glyph glyph-name="uni00A0" unicode="&#xa0;" horiz-adv-x="200" 
 />
    <glyph glyph-name="exclamdown" unicode="&#xa1;" horiz-adv-x="267" 
d="M2 -297c-22 0 -37.999 4.66797 -47.999 14.001s-15 19.333 -15 30c0 7.33301 1.5 15.666 4.5 24.999s6.16699 18.333 9.5 27c0.666992 2 5.5 12.667 14.5 32l32.5 71.5l41.5 91l41.5 90.5l32.5 71c9 19.333 13.833 30 14.5 32c1.33301 2 3.33301 3.83301 6 5.5
s7 2.5 13 2.5c5.33301 0 9 -2 11 -6s2.33301 -9 1 -15c-2 -7.33301 -5.16699 -22.333 -9.5 -45l-15 -79.5l-17.5 -95.5l-17 -93l-13.5 -72c-3.66699 -19.333 -5.83398 -30.333 -6.50098 -33c-4 -18 -12.333 -31.333 -25 -40s-31 -13 -55 -13zM186.001 294.001
c-4 0 -9.33203 1.16602 -15.999 3.49902s-13 6 -19 11s-11.333 11.667 -16 20s-7 18.5 -7 30.5c0 19.333 6 35.5 18 48.5s27.667 19.5 47 19.5c10 0 18.667 -2 26 -6s13.666 -9.16699 18.999 -15.5s9.33301 -13.166 12 -20.499s4 -14.333 4 -21
c0 -19.333 -6 -35.833 -18 -49.5s-28.667 -20.5 -50 -20.5z" />
    <glyph glyph-name="cent" unicode="&#xa2;" 
d="M216 -9c-6 2 -7.66406 6.66602 -4.99707 13.999l26 105c-50 0.666992 -87.833 11.334 -113.5 32.001s-38.5 52 -38.5 94c0 25.333 5.5 53 16.5 83s27.167 58.833 48.5 86.5s47.666 52.667 78.999 75s67.333 38.166 108 47.499l28 111
c1.33301 4.66699 3.66602 6.66699 6.99902 6l26 -6c4.66699 -0.666992 6.33398 -3.66699 5.00098 -9l-23 -95c3.33301 0.666992 6.66602 1 9.99902 1h10c8 0 16.667 -1 26 -3s17.833 -5.5 25.5 -10.5s14 -11.667 19 -20s7.5 -18.5 7.5 -30.5
c0 -15.333 -4.83301 -27 -14.5 -35s-20.167 -12 -31.5 -12c-15.333 0 -26.333 7.66699 -33 23c-4.66699 10 -9 17.833 -13 23.5s-10.667 9.16699 -20 10.5l-75 -317c8 -1.33301 16.833 -1.16602 26.5 0.500977s19.167 4.16699 28.5 7.5s18.5 7 27.5 11s16.5 8 22.5 12
c7.33301 4.66699 11.666 4.66699 12.999 0l9 -15c2 -5.33301 0 -10.333 -6 -15c-4 -2.66699 -9.66699 -6.66699 -17 -12s-16.5 -10.666 -27.5 -15.999s-24 -10.5 -39 -15.5s-31.833 -8.5 -50.5 -10.5l-29 -119c-1.33301 -6.66699 -4.33301 -9.33398 -9 -8.00098z
M326.003 480.999c-12 -4 -22.833 -10.3311 -32.5 -18.998s-19.5 -19.334 -29.5 -32.001s-18.667 -26.834 -26 -42.501s-13.5 -31.5 -18.5 -47.5s-8.66699 -31.5 -11 -46.5s-3.5 -28.167 -3.5 -39.5c0 -20 4.83301 -36.833 14.5 -50.5s21.5 -23.167 35.5 -28.5z" />
    <glyph glyph-name="sterling" unicode="&#xa3;" 
d="M335 254c6.66699 0 9.66309 -2.00586 8.99609 -6.00586l-5 -27c-0.666992 -4.66699 -4.66699 -7 -12 -7h-144c-2 -3.33301 -5.83301 -8.66602 -11.5 -15.999l-18 -23.5c-6.33301 -8.33301 -12.666 -16.166 -18.999 -23.499l-14.5 -17l2 -7
c26 2.66699 49.167 3.33398 69.5 2.00098s39 -4.66602 56 -9.99902s33 -13.333 48 -24s30.167 -24 45.5 -40c7.33301 -8 15.333 -15 24 -21s18 -9 28 -9c6.66699 0 13.834 2.66699 21.501 8s11.5 11.666 11.5 18.999s-1.16699 12 -3.5 14s-7.16602 3 -14.499 3
c-10.667 0 -20 3.66699 -28 11s-12 16 -12 26c0 11.333 4 22.5 12 33.5s20.667 16.5 38 16.5c18.667 0 35.167 -6.33301 49.5 -19s21.5 -31 21.5 -55c0 -8.66699 -2.16699 -18.667 -6.5 -30s-12.166 -22 -23.499 -32s-26.5 -18.333 -45.5 -25s-42.833 -10 -71.5 -10
c-38.667 0 -69.667 5.16699 -93 15.5s-44 25.5 -62 45.5c-16 18 -28.667 31.5 -38 40.5s-22 12.833 -38 11.5c-2.66699 -6.66699 -6.66699 -15.167 -12 -25.5s-11.666 -21.166 -18.999 -32.499c-9.33301 -13.333 -19 -24.166 -29 -32.499s-21 -12.5 -33 -12.5
c-25.333 0 -38 11.667 -38 35c0 6 2.83301 13.667 8.5 23s13 18.5 22 27.5s19 17.333 30 25s21.833 13.167 32.5 16.5c2.66699 3.33301 6 9 10 17s7.83301 16.833 11.5 26.5l10.5 27.5c3.33301 8.66699 5.66602 15.667 6.99902 21h-67c-7.33301 0 -10.333 2.33301 -9 7l4 27
c0.666992 4 4 6 10 6h72c2.66699 6 6.16699 17.667 10.5 35l15 59l18 67c6.33301 22.667 12.833 42.334 19.5 59.001c8.66699 23.333 20.334 45.333 35.001 66s31.834 38.834 51.501 54.501s42 28 67 37s52.833 13.5 83.5 13.5c19.333 0 36 -2.5 50 -7.5
s25.667 -11.167 35 -18.5s16.333 -15.333 21 -24s7 -16.334 7 -23.001c0 -16.667 -5.16699 -28.5 -15.5 -35.5s-19.5 -10.833 -27.5 -11.5c-14.667 -0.666992 -26.667 2.16602 -36 8.49902s-17.666 18.833 -24.999 37.5c-2.66699 6.66699 -6.83398 14.334 -12.501 23.001
s-14.834 13 -27.501 13c-7.33301 0 -14.333 -2.5 -21 -7.5s-13.5 -13.5 -20.5 -25.5s-14.167 -27.833 -21.5 -47.5s-15.333 -43.834 -24 -72.501c-5.33301 -18 -12.833 -38 -22.5 -60s-19.334 -42.667 -29.001 -62s-18.5 -36.166 -26.5 -50.499s-13.333 -23.5 -16 -27.5h125
z" />
    <glyph glyph-name="currency" unicode="&#xa4;" 
d="M279 207c33.333 0 58.168 10.167 74.501 30.5s24.5 46.833 24.5 79.5c0 30.667 -8.16699 56.667 -24.5 78s-40.5 32 -72.5 32c-17.333 0 -32.166 -3 -44.499 -9s-22.833 -14 -31.5 -24s-15 -21.667 -19 -35s-6 -27.333 -6 -42s2.33301 -28.667 7 -42s11.167 -25 19.5 -35
s18.666 -18 30.999 -24s26.166 -9 41.499 -9zM481.002 84c-3.33301 -4.66699 -8.00391 -4.66602 -14.0039 0.000976562l-86 81c-13.333 -9.33301 -30.166 -16.333 -50.499 -21s-39.166 -7 -56.499 -7c-15.333 0 -32.666 2.33301 -51.999 7s-36.666 12.667 -51.999 24
l-82 -85c-1.33301 -2 -3.33301 -2.66699 -6 -2s-4.66699 1.66699 -6 3l-33 37c-4 4 -3.66699 8 1 12l82 79c-10 10.667 -18.833 25 -26.5 43s-11.834 37.333 -12.501 58c1.33301 19.333 5 39.333 11 60s16.333 38.667 31 54l-83 74c-6 6 -6.66699 11.667 -2 17l34 36
c3.33301 4 7.33301 3.66699 12 -1l88 -83c11.333 7.33301 27.166 13.666 47.499 18.999s40.833 8 61.5 8s38.834 -2.66699 54.501 -8s29.167 -11.666 40.5 -18.999l84 82c3.33301 3.33301 7 3.33301 11 0l33 -33c4.66699 -4.66699 5.33398 -8.66699 2.00098 -12l-80 -75
c11.333 -13.333 20.5 -30.333 27.5 -51s10.5 -40 10.5 -58c0 -21.333 -3.33301 -42 -10 -62s-16.334 -36.667 -29.001 -50l84 -81c2.66699 -2.66699 2.33398 -6.33398 -0.999023 -11.001z" />
    <glyph glyph-name="yen" unicode="&#xa5;" 
d="M213 255h-127.004c-6.66699 0 -9.33398 2 -8.00098 6l2 24c0.666992 3.33301 1.83398 5.16602 3.50098 5.49902s3.83398 0.5 6.50098 0.5h114l-5 19l-79 252c-3.33301 9.33301 -8.66602 17.5 -15.999 24.5s-15.666 10.5 -24.999 10.5h-22
c-4.66699 0 -6.66699 2.33301 -6 7l4 21c0.666992 5.33301 3.66699 8 9 8c6 0 16.667 -0.5 32 -1.5s40.666 -1.5 75.999 -1.5c36 0 62.833 0.5 80.5 1.5s29.5 1.5 35.5 1.5c6.66699 0 9.66699 -3 9 -9l-2 -20c-0.666992 -4.66699 -3.66699 -7 -9 -7h-14
c-14 0 -21.667 -4.83301 -23 -14.5s-1 -19.5 1 -29.5l48 -235c1.33301 -6 3.83301 -9.5 7.5 -10.5s7.16699 1.16699 10.5 6.5c0.666992 1.33301 4.16699 7.16602 10.5 17.499l23 37.5l29 48.5l30 51c9.66699 16.333 18 31 25 44s11.833 22.833 14.5 29.5
c7.33301 18.667 8 32.5 2 41.5s-16 13.5 -30 13.5h-27c-6 0 -8.33301 3 -7 9l2 19c0.666992 5.33301 4.33398 8 11.001 8c7.33301 0 19.833 -0.5 37.5 -1.5s41.5 -1.5 71.5 -1.5c25.333 0 45.5 0.5 60.5 1.5s25.5 1.5 31.5 1.5c6.66699 0 9.66699 -3 9 -9l-3 -18
c-0.666992 -6 -3 -9 -7 -9h-18c-11.333 0 -21.666 -3.16699 -30.999 -9.5s-18.333 -14.833 -27 -25.5c-4 -4.66699 -10.833 -14 -20.5 -28l-33.5 -49l-40 -60l-39 -59.5l-31 -48c-8.66699 -13.667 -14 -22.5 -16 -26.5h115c6 0 8.66699 -2 8 -6l-5 -24c0 -4 -4 -6 -12 -6
h-123l-17 -59h138c4.66699 0 6.66699 -2.33301 6 -7l-4 -23c-0.666992 -4 -5.33398 -6 -14.001 -6h-134l-16 -74c-2.66699 -12 -3.66699 -21.5 -3 -28.5s2.33398 -12.333 5.00098 -16s6 -6 10 -7s8 -1.5 12 -1.5h25c6 0 8.33301 -2.66699 7 -8l-3 -20
c-1.33301 -5.33301 -4.66602 -8 -9.99902 -8c-7.33301 0 -19 0.5 -35 1.5s-39.667 1.5 -71 1.5c-22 0 -40.667 -0.166992 -56 -0.5s-27.833 -0.666016 -37.5 -0.999023s-17.167 -0.666016 -22.5 -0.999023s-9.33301 -0.5 -12 -0.5c-6 0 -8.66699 3 -8 9l4 19
c0 5.33301 2.66699 8 8 8h22c18 0 31.333 4.83301 40 14.5s14.667 21.167 18 34.5l20 78h-130c-4.66699 0 -6.33398 2 -5.00098 6l3 23c0 4.66699 3 7 9 7h127z" />
    <glyph glyph-name="brokenbar" unicode="&#xa6;" horiz-adv-x="250" 
d="M136 666c0 6 2 9 6 9h55c4.66699 0 7 -4 7 -12v-328c0 -6.66699 -3 -10 -9 -10h-53c-4 0 -6 3.33301 -6 10v331zM136 165c0 6.66699 3 10 9 10h53c4 0 6 -3.33301 6 -10v-330c0 -6.66699 -3 -10 -9 -10h-53c-4 0 -6 3.33301 -6 10v330z" />
    <glyph glyph-name="section" unicode="&#xa7;" 
d="M226 468c-19.333 -8 -32.667 -21.3281 -40 -39.9951s-11 -40 -11 -64c0 -10.667 2 -21.834 6 -33.501s8.66699 -20.834 14 -27.501c14 -18 29.167 -35.833 45.5 -53.5s31.5 -35.167 45.5 -52.5s25.667 -35 35 -53s14 -36.333 14 -55c20 11.333 33 27.166 39 47.499
s9 41.5 9 63.5c0 15.333 -2.5 30 -7.5 44s-14.833 31 -29.5 51c-8 10.667 -18.667 22.167 -32 34.5s-26.5 25.666 -39.5 39.999s-24.333 29.666 -34 45.999s-14.5 33.833 -14.5 52.5zM148.999 -97.9951c6.66699 0 15.332 2.49805 25.999 7.49805s21.167 12.5 31.5 22.5
s19.333 22.5 27 37.5s11.5 32.5 11.5 52.5c-2.66699 22 -11.167 44.167 -25.5 66.5s-37.5 50.5 -69.5 84.5c-7.33301 7.33301 -15.166 15.833 -23.499 25.5s-16 20.834 -23 33.501s-12.667 27 -17 43s-5.83301 34 -4.5 54c0 17.333 3.83301 35 11.5 53s17.834 35 30.501 51
s27.5 30.5 44.5 43.5s34.833 23.167 53.5 30.5c2 8.66699 4.5 18.167 7.5 28.5s7.5 21 13.5 32s13.667 22.333 23 34s21 23.5 35 35.5c24.667 20 49.5 33 74.5 39s51.167 9 78.5 9c28 0 49.167 -6.16699 63.5 -18.5s21.5 -26.166 21.5 -41.499
c0 -28.667 -16.333 -43 -49 -43c-12.667 0 -23.334 3.16699 -32.001 9.5s-16.334 16.833 -23.001 31.5c-3.33301 8.66699 -8 14.834 -14 18.501s-12.667 5.5 -20 5.5c-9.33301 0 -18.833 -2.83301 -28.5 -8.5s-18.5 -13.5 -26.5 -23.5s-14.5 -21.5 -19.5 -34.5
s-7.5 -26.5 -7.5 -40.5c0 -9.33301 0.666992 -17.833 2 -25.5s4.83301 -16.167 10.5 -25.5s14 -20.166 25 -32.499s26.167 -27.833 45.5 -46.5l26 -26.5c9.33301 -9.66699 18 -21.167 26 -34.5s14.667 -28.666 20 -45.999s8 -37.333 8 -60
c0 -21.333 -3.83301 -41.833 -11.5 -61.5s-18 -37.834 -31 -54.501s-28.167 -31.334 -45.5 -44.001s-35.666 -23 -54.999 -31c-4 -18.667 -8.5 -35.334 -13.5 -50.001s-11.167 -28 -18.5 -40s-16.333 -23.167 -27 -33.5s-23.667 -20.5 -39 -30.5
c-19.333 -12.667 -40.666 -22.167 -63.999 -28.5s-53 -9.5 -89 -9.5c-24.667 0 -44.834 5 -60.501 15s-23.5 23.333 -23.5 40c0 31.333 15.333 47 46 47c14 0 25 -2.66699 33 -8s15 -14 21 -26c9.33301 -17.333 24.333 -26 45 -26z" />
    <glyph glyph-name="dieresis" unicode="&#xa8;" horiz-adv-x="340" 
d="M357 528c-5.33301 0 -11 0.666016 -17 1.99902s-11.667 3.83301 -17 7.5s-9.83301 8.83398 -13.5 15.501s-5.5 15 -5.5 25c0 4 0.666992 8.5 2 13.5s4 9.83301 8 14.5s9.5 8.66699 16.5 12s15.833 5 26.5 5c13.333 0 24.666 -4.16699 33.999 -12.5s14 -20.5 14 -36.5
c0 -14.667 -4.66699 -26 -14 -34s-20.666 -12 -33.999 -12zM181 527.999c-5.33301 0 -11 0.666016 -17 1.99902s-11.667 3.83301 -17 7.5s-9.83301 8.83398 -13.5 15.501s-5.5 15 -5.5 25c0 4 0.666992 8.5 2 13.5s4 9.83301 8 14.5s9.5 8.66699 16.5 12s15.833 5 26.5 5
c13.333 0 24.666 -4.16699 33.999 -12.5s14 -20.5 14 -36.5c0 -14.667 -4.66699 -26 -14 -34s-20.666 -12 -33.999 -12z" />
    <glyph glyph-name="copyright" unicode="&#xa9;" horiz-adv-x="780" 
d="M433 24c54 0 99.498 9.83496 136.498 29.502s67 44.667 90 75s39.667 63.833 50 100.5s15.5 72 15.5 106c0 56 -9.66699 103.667 -29 143s-43.5 71.5 -72.5 96.5s-60.5 43.167 -94.5 54.5s-66 17 -96 17c-41.333 0 -79.666 -7.5 -114.999 -22.5
s-66.166 -36.167 -92.499 -63.5s-47 -60 -62 -98s-22.5 -80.333 -22.5 -127c0 -57.333 9.5 -105.833 28.5 -145.5s42.833 -71.834 71.5 -96.501s60.167 -42.334 94.5 -53.001s66.833 -16 97.5 -16zM432.998 685.002c50 0 96.333 -8.50098 139 -25.501
s79.334 -40.833 110.001 -71.5s54.667 -67.5 72 -110.5s26 -90.5 26 -142.5c0 -49.333 -8.16699 -95.166 -24.5 -137.499s-39.666 -79.333 -69.999 -111s-66.833 -56.5 -109.5 -74.5s-90.334 -27 -143.001 -27c-53.333 0 -101.333 9.16699 -144 27.5s-79 43.166 -109 74.499
s-53.167 68.333 -69.5 111s-24.5 88.334 -24.5 137.001c0 50 9 96.333 27 139s42.667 79.667 74 111s68.166 55.833 110.499 73.5s87.5 26.5 135.5 26.5zM599.998 416.001c0.666992 -6.66699 -0.334961 -10.332 -3.00195 -10.999l-19 -4c-4 -1.33301 -7 0.666992 -9 6
l-16 32c-6 12 -15 23.667 -27 35c-8.66699 8.66699 -19.5 17.167 -32.5 25.5s-31.167 12.5 -54.5 12.5c-19.333 0 -36.166 -4.83301 -50.499 -14.5s-26.333 -22.334 -36 -38.001s-17 -33 -22 -52s-7.5 -37.5 -7.5 -55.5c0 -8.66699 0.833008 -18.5 2.5 -29.5
s4.16699 -22.5 7.5 -34.5s7.83301 -24 13.5 -36s13.167 -23 22.5 -33c16 -17.333 32.5 -29 49.5 -35s33.833 -9 50.5 -9c25.333 0 48.833 6.83301 70.5 20.5s39.167 28.5 52.5 44.5c4 4 7.66699 5 11 3l14 -11c2.66699 -2.66699 2.33398 -6 -0.999023 -10
c-9.33301 -12.667 -19.833 -24.667 -31.5 -36s-24.667 -21.5 -39 -30.5s-30.333 -16.167 -48 -21.5s-36.834 -8 -57.501 -8c-30.667 0 -59.167 4.5 -85.5 13.5s-48.166 22.167 -65.499 39.5c-21.333 20.667 -37.333 43.834 -48 69.501s-16 55.5 -16 89.5
c0 26.667 4.83301 53 14.5 79s25.167 50 46.5 72c15.333 15.333 35.833 28.666 61.5 39.999s54.834 17 87.501 17c26 0 47 -3.16699 63 -9.5s27.667 -11.5 35 -15.5c12 -5.33301 19 -4 21 4l3 10c1.33301 3.33301 3.66602 5.33301 6.99902 6h15c4 0 6.33301 -2.33301 7 -7z
" />
    <glyph glyph-name="ordfeminine" unicode="&#xaa;" horiz-adv-x="367" 
d="M278 478c0 8 -2.33203 15.5029 -6.99902 22.5029s-15 10.5 -31 10.5c-10.667 0 -22 -6.66699 -34 -20s-23 -29.5 -33 -48.5s-18.333 -38.833 -25 -59.5s-10 -38.667 -10 -54c0 -10.667 2 -17.834 6 -21.501s8.66699 -5.5 14 -5.5c4.66699 0 11.667 4.5 21 13.5
s19.166 19.667 29.499 32s20.333 25.333 30 39s17.167 25.5 22.5 35.5c6.66699 13.333 11.167 24.666 13.5 33.999s3.5 16.666 3.5 21.999zM109.001 251.003c-15.333 0 -28.8301 5.33203 -40.4971 15.999s-17.5 25 -17.5 43c0 20.667 5.66699 44.5 17 71.5
s26.333 52.333 45 76s40.334 43.667 65.001 60s50 24.5 76 24.5c15.333 0 26.5 -3.16699 33.5 -9.5s13.167 -12.5 18.5 -18.5l13 19c2 2.66699 6 4 12 4h52c3.33301 0 5.66602 -1 6.99902 -3s0.666016 -5.66699 -2.00098 -11c-2.66699 -6 -6.33398 -15 -11.001 -27
l-14 -37.5l-13 -36c-4 -11 -6.66699 -18.5 -8 -22.5c-1.33301 -2.66699 -3.5 -8.66699 -6.5 -18s-6 -19.166 -9 -29.499l-8.5 -28.5c-2.66699 -8.66699 -4 -13.667 -4 -15c0 -6.66699 3 -10 9 -10c7.33301 0 15.166 4.33301 23.499 13l20.5 22
c2.66699 4.66699 6.33398 5.33398 11.001 2.00098l12 -8c3.33301 -2 3 -5.66699 -1 -11c-2 -3.33301 -6.5 -8.5 -13.5 -15.5s-16.167 -14.333 -27.5 -22s-24.833 -14.334 -40.5 -20.001s-33.5 -8.5 -53.5 -8.5c-18.667 0 -28 7 -28 21c0 5.33301 1.66699 13.166 5 23.499
s10 27.5 20 51.5l-10 3c-5.33301 -8.66699 -12.5 -18.667 -21.5 -30s-19.167 -22.166 -30.5 -32.499s-23.833 -19 -37.5 -26s-27.834 -10.5 -42.501 -10.5z" />
    <glyph glyph-name="guillemotleft" unicode="&#xab;" horiz-adv-x="375" 
d="M198 226c-2.66699 2.66699 -4.00098 4.66895 -4.00098 6.00195s1.66699 3.66602 5 6.99902l155 145c2.66699 2.66699 4.66699 4 6 4s3 -1 5 -3l11 -11c2.66699 -2.66699 4 -5 4 -7c0 -0.666992 -1.66699 -3.66699 -5 -9l-71 -121l42 -123
c1.33301 -2.66699 2.33301 -4.33398 3 -5.00098s1 -1.66699 1 -3c0 -2 -1.33301 -4.33301 -4 -7l-12 -11c-1.33301 -1.33301 -2.66602 -2 -3.99902 -2c-2.66699 0 -5 1.33301 -7 4zM47.999 226.002c-2.66699 2.66699 -4.00098 4.66895 -4.00098 6.00195
s1.66699 3.66602 5 6.99902l155 145c2.66699 2.66699 4.66699 4 6 4s3 -1 5 -3l11 -11c2.66699 -2.66699 4 -5 4 -7c0 -0.666992 -1.66699 -3.66699 -5 -9l-71 -121l42 -123c1.33301 -2.66699 2.33301 -4.33398 3 -5.00098s1 -1.66699 1 -3c0 -2 -1.33301 -4.33301 -4 -7
l-12 -11c-1.33301 -1.33301 -2.66602 -2 -3.99902 -2c-2.66699 0 -5 1.33301 -7 4z" />
    <glyph glyph-name="logicalnot" unicode="&#xac;" 
d="M72 366h397v-244h-77v172h-320v72z" />
    <glyph glyph-name="uni00AD" unicode="&#xad;" horiz-adv-x="414" 
d="M61 272c0 6.66699 3 10 9 10h322c6 0 9 -2.66699 9 -8v-55c0 -6 -3 -9 -9 -9h-323c-5.33301 0 -8 2.33301 -8 7v55z" />
    <glyph glyph-name="registered" unicode="&#xae;" 
d="M318 285c34 0 62.499 5.16699 85.499 15.5s41.5 24 55.5 41s24 36.5 30 58.5s9 44.333 9 67c0 34.667 -5.83301 63.667 -17.5 87s-26.5 42 -44.5 56s-37.5 24 -58.5 30s-40.833 9 -59.5 9c-25.333 0 -49 -4 -71 -12s-41 -19.5 -57 -34.5s-28.667 -33.667 -38 -56
s-14 -47.833 -14 -76.5c0 -34.667 5.83301 -63.834 17.5 -87.501s26.334 -42.667 44.001 -57s37 -24.666 58 -30.999s41.167 -9.5 60.5 -9.5zM317.999 685c34 0 64.8301 -5.33496 92.4971 -16.002s51.334 -25.5 71.001 -44.5s35 -42 46 -69s16.5 -56.5 16.5 -88.5
c0 -30.667 -5.16699 -59.167 -15.5 -85.5s-25.166 -49.333 -44.499 -69s-43 -35.167 -71 -46.5s-59.667 -17 -95 -17c-36 0 -68 5.66699 -96 17s-51.667 26.833 -71 46.5s-34 42.667 -44 69s-15 54.833 -15 85.5s5.66699 59.334 17 86.001s27 49.834 47 69.501
s43.833 35 71.5 46s57.834 16.5 90.501 16.5zM285.996 472.998c2 -0.666992 5.00293 -0.998047 9.00293 -0.998047h11c12 0 21.667 2.33301 29 7s13.166 10.167 17.499 16.5s7.16602 12.666 8.49902 18.999s2 11.166 2 14.499c0 7.33301 -1.83301 14.333 -5.5 21
s-8.5 12 -14.5 16c-5.33301 4 -11.5 7 -18.5 9s-13.167 3 -18.5 3c-2.66699 0 -5.83398 -0.166992 -9.50098 -0.5s-7.16699 -0.833008 -10.5 -1.5v-103zM237.999 507l-0.00488281 54.0029c-0.666992 11.333 -7.66699 17 -21 17h-7c-1.33301 0 -2 1 -2 3v14c0 2 1 3 3 3
c0.666992 0 3.16699 -0.166992 7.5 -0.5s9.16602 -0.5 14.499 -0.5s10.333 -0.166992 15 -0.5s8 -0.5 10 -0.5c1.33301 0 5.16602 0.166992 11.499 0.5s13 0.5 20 0.5s13.667 0.166992 20 0.5s10.5 0.5 12.5 0.5c17.333 0 32.166 -2 44.499 -6s22.166 -9 29.499 -15
s12.333 -12.833 15 -20.5s4 -14.834 4 -21.501c0 -11.333 -2.16699 -21.333 -6.5 -30s-9.66602 -15.834 -15.999 -21.501s-13.5 -10.167 -21.5 -13.5s-15.333 -5.33301 -22 -6v-2c4 -0.666992 7 -2.33398 9 -5.00098s4 -4.66699 6 -6c1.33301 -1.33301 3.5 -4.33301 6.5 -9
s6.33301 -9.5 10 -14.5s7 -9.83301 10 -14.5s4.83301 -7.33398 5.5 -8.00098s2.33398 -2.83398 5.00098 -6.50098s5.66699 -7.5 9 -11.5l10 -12c3.33301 -4 6 -6.33301 8 -7c4.66699 -2.66699 9.16699 -4.16699 13.5 -4.5s9.16602 -0.5 14.499 -0.5
c2.66699 0 4 -1.33301 4 -4v-11c0 -2 -1.33301 -3 -4 -3c-1.33301 0 -5.16602 0.166992 -11.499 0.5s-12.166 0.5 -17.499 0.5s-11.666 -0.166992 -18.999 -0.5s-15.666 -0.5 -24.999 -0.5c-2 1.33301 -4.83301 4.33301 -8.5 9s-6.16699 8.33398 -7.5 11.001
c-0.666992 0.666992 -2.33398 3 -5.00098 7l-8.5 12.5l-8.5 12.5c-2.66699 4 -4.33398 6.66699 -5.00098 8l-11 17.5c-5.33301 8.33301 -8.66602 13.833 -9.99902 16.5c-3.33301 4.66699 -6.66602 8.33398 -9.99902 11.001s-7.66602 4 -12.999 4h-5
c-2 0 -3.66699 -0.333008 -5 -1v-15v-61c0.666992 -3.33301 1.83398 -6.5 3.50098 -9.5s4.83398 -4.5 9.50098 -4.5h11c1.33301 0 2 -1 2 -3v-12c0 -2 -1 -3 -3 -3h-8c-4 0 -8.5 0.166992 -13.5 0.5s-10.167 0.5 -15.5 0.5h-14c-7.33301 0 -16.666 -0.166992 -27.999 -0.5
s-18 -0.5 -20 -0.5s-3 1.33301 -3 4v11c0 2 0.666992 3 2 3h9c6 0 10.667 1 14 3s5 7 5 15v91z" />
    <glyph glyph-name="macron" unicode="&#xaf;" horiz-adv-x="290" 
d="M120 562c0 4 3.33301 6 10 6h200c6.66699 0 10 -2.33301 10 -7v-44c0 -4.66699 -3 -7 -9 -7h-203c-5.33301 0 -8 2.33301 -8 7v45z" />
    <glyph glyph-name="degree" unicode="&#xb0;" horiz-adv-x="250" 
d="M217 643c-15.333 0 -27.5 -5.33398 -36.5 -16.001s-13.5 -21.667 -13.5 -33c0 -13.333 4.5 -25.166 13.5 -35.499s20.5 -15.5 34.5 -15.5c15.333 0 27.333 5.33301 36 16s13 23 13 37c0 10.667 -4.16699 21.167 -12.5 31.5s-19.833 15.5 -34.5 15.5zM218 684.999
c34 0 59.834 -8.50293 77.501 -25.5029s26.5 -38.833 26.5 -65.5c0 -12 -2.5 -23.667 -7.5 -35s-12.167 -21.166 -21.5 -29.499s-20.5 -15.166 -33.5 -20.499s-27.833 -8 -44.5 -8c-35.333 0 -61.833 8.5 -79.5 25.5s-27.167 39.5 -28.5 67.5c0.666992 12 3.5 23.333 8.5 34
s12.333 20.334 22 29.001s21.167 15.5 34.5 20.5s28.666 7.5 45.999 7.5z" />
    <glyph glyph-name="plusminus" unicode="&#xb1;" 
d="M459 80v-72h-397v72h397zM222 152v142h-160v72h160v131h77v-131h160v-72h-160v-142h-77z" />
    <glyph glyph-name="twosuperior" unicode="&#xb2;" horiz-adv-x="336" 
d="M229 387l-175.005 0.00195312c-10 0 -15 3.33301 -15 10s2.66699 12 8 16l64 51c24.667 19.333 48 39.833 70 61.5s40.667 43.834 56 66.501s23 44.667 23 66c0 15.333 -4.33301 28.166 -13 38.499s-21.667 15.5 -39 15.5c-15.333 0 -29.333 -4.5 -42 -13.5
s-22 -18.5 -28 -28.5c-3.33301 -4.66699 -6.16602 -7.33398 -8.49902 -8.00098s-4.16602 -0.666992 -5.49902 0l-11 6c-3.33301 2 -4.33301 5 -3 9c2.66699 7.33301 7.33398 16.5 14.001 27.5s15.834 21.667 27.501 32s25.667 19.166 42 26.499s35.5 11 57.5 11
c35.333 0 61.5 -8.66699 78.5 -26s25.833 -41 26.5 -71c0 -16.667 -3.5 -32.834 -10.5 -48.501s-16.5 -30.5 -28.5 -44.5s-25.167 -27.167 -39.5 -39.5s-28.666 -23.666 -42.999 -33.999s-27.666 -19.333 -39.999 -27s-21.833 -13.834 -28.5 -18.501l-2 -6h86
c16.667 0 29.5 2.83301 38.5 8.5s17.833 15.5 26.5 29.5c3.33301 5.33301 6.66602 6.33301 9.99902 3l11 -7c2.66699 -3.33301 3 -6 1 -8c-3.33301 -5.33301 -7 -12.666 -11 -21.999l-12 -29c-4 -10 -7.66699 -19.667 -11 -29s-5.66602 -17 -6.99902 -23
c-0.666992 -4 -4 -6 -10 -6c-4.66699 0 -9 2.33301 -13 7c-2.66699 2.66699 -17.334 4 -44.001 4z" />
    <glyph glyph-name="threesuperior" unicode="&#xb3;" horiz-adv-x="336" 
d="M146 380c-32 0 -56.165 7.16211 -72.498 21.4951s-24.5 29.5 -24.5 45.5c0 12 2.5 21.5 7.5 28.5s12.833 10.5 23.5 10.5c14.667 0 24.167 -4.66699 28.5 -14s6.16602 -19.666 5.49902 -30.999c-0.666992 -5.33301 2.33301 -11.333 9 -18s16.667 -10 30 -10
c12 0 23.333 2.83301 34 8.5s20.167 13.167 28.5 22.5s14.833 20.333 19.5 33s7 26 7 40c0 16 -3.66699 30.5 -11 43.5s-18.666 21.167 -33.999 24.5c-4.66699 1.33301 -7.66699 3 -9 5s-2 4 -2 6c0 2.66699 0.5 4.83398 1.5 6.50098s3.83301 3.16699 8.5 4.5
c23.333 4 42.333 12.333 57 25s22 28 22 46c0 9.33301 -3.33301 19 -10 29s-19 15 -37 15c-23.333 0 -45.333 -12.333 -66 -37c-4 -4 -8 -5 -12 -3l-11 9c-1.33301 2 -1 5.33301 1 10c3.33301 6 8.16602 13.167 14.499 21.5s14.833 16.333 25.5 24s24 14.167 40 19.5
s35 8 57 8c15.333 0 28.666 -1.83301 39.999 -5.5s20.666 -8.5 27.999 -14.5s12.666 -12.667 15.999 -20s5 -14.333 5 -21c0 -24 -8.33301 -44.667 -25 -62s-39.667 -31.666 -69 -42.999c25.333 -9.33301 42.833 -21.166 52.5 -35.499s14.5 -31.166 14.5 -50.499
c0 -20 -5 -38.667 -15 -56s-23.667 -32.333 -41 -45s-37.666 -22.667 -60.999 -30s-48.666 -11 -75.999 -11z" />
    <glyph glyph-name="acute" unicode="&#xb4;" horiz-adv-x="240" 
d="M100 483c-1.33301 1.33301 -0.00195312 4.00098 3.99805 8.00098l111 103c8 7.33301 16 13.166 24 17.499s16 6.5 24 6.5c8.66699 0 16.334 -3.33301 23.001 -10s10.834 -14.5 12.501 -23.5s0.5 -18 -3.5 -27s-12.333 -16.167 -25 -21.5l-155 -64
c-4 -2 -6.66699 -1.66699 -8 1z" />
    <glyph glyph-name="mu" unicode="&#xb5;" 
d="M64 -68l-13.5 -38.0039l-10 -28.5l-8 -22.5c-2.33301 -6.66699 -4.83301 -13.334 -7.5 -20.001c-4 -11.333 -15 -21 -33 -29s-43 -12 -75 -12c-12 0 -19.833 3.83301 -23.5 11.5s-0.5 16.5 9.5 26.5c10.667 10.667 21.334 25.834 32.001 45.501s20.667 40.334 30 62.001
s17.833 42.667 25.5 63s13.834 36.166 18.501 47.499l73 189c12.667 32.667 22.334 59.5 29.001 80.5s10 34.5 10 40.5c0 7.33301 -1.33301 15.833 -4 25.5s-4 18.167 -4 25.5c1.33301 6 6.66602 12.167 15.999 18.5s26.666 9.5 51.999 9.5
c17.333 0 31.166 -4.66699 41.499 -14s15.5 -20.333 15.5 -33c0 -10.667 -4.33301 -29.334 -13 -56.001s-24 -65 -46 -115l-33 -77c-8.66699 -20.667 -13 -35.667 -13 -45c0 -14 8.66699 -21 26 -21c4 0 12 6 24 18s25 26.167 39 42.5s27.5 33 40.5 50
s22.5 30.833 28.5 41.5c8.66699 14 16.667 28.5 24 43.5s14.333 31.5 21 49.5c7.33301 19.333 13.166 38.166 17.499 56.499s6.5 30.833 6.5 37.5c0 7.33301 4.83301 12.833 14.5 16.5s30.5 5.5 62.5 5.5c9.33301 0 16.833 -1 22.5 -3s9.83398 -4.66699 12.501 -8
s4.33398 -7 5.00098 -11s1 -8.33301 1 -13c0 -11.333 -7.16699 -33.666 -21.5 -66.999s-30.833 -78.666 -49.5 -135.999c-12.667 -39.333 -22.167 -67.833 -28.5 -85.5s-9.5 -29.167 -9.5 -34.5c0 -4.66699 1.5 -8.5 4.5 -11.5s6.5 -4.5 10.5 -4.5s9.16699 2.33301 15.5 7
s12.666 10.167 18.999 16.5s12 12.5 17 18.5s8.5 10.333 10.5 13c2 4.66699 5 5 9 1l11 -9c2.66699 -2.66699 3 -6.33398 1 -11.001c-0.666992 -0.666992 -5 -6.16699 -13 -16.5s-19 -21.666 -33 -33.999s-30.167 -23.5 -48.5 -33.5s-38.166 -15 -59.499 -15
c-16.667 0 -29.834 3.66699 -39.501 11s-14.5 19.666 -14.5 36.999c0 4.66699 2.16699 13.334 6.5 26.001s9.16602 25.834 14.499 39.501l15.5 38c5 11.667 8.16699 19.167 9.5 22.5l-12 6c-4 -6.66699 -10 -16 -18 -28s-17.5 -25 -28.5 -39s-23.167 -28.167 -36.5 -42.5
s-27 -27.166 -41 -38.499s-28.167 -20.166 -42.5 -26.499s-28.166 -8.16602 -41.499 -5.49902z" />
    <glyph glyph-name="mu" unicode="&#x3bc;" 
d="M64 -68l-13.5 -38.0039l-10 -28.5l-8 -22.5c-2.33301 -6.66699 -4.83301 -13.334 -7.5 -20.001c-4 -11.333 -15 -21 -33 -29s-43 -12 -75 -12c-12 0 -19.833 3.83301 -23.5 11.5s-0.5 16.5 9.5 26.5c10.667 10.667 21.334 25.834 32.001 45.501s20.667 40.334 30 62.001
s17.833 42.667 25.5 63s13.834 36.166 18.501 47.499l73 189c12.667 32.667 22.334 59.5 29.001 80.5s10 34.5 10 40.5c0 7.33301 -1.33301 15.833 -4 25.5s-4 18.167 -4 25.5c1.33301 6 6.66602 12.167 15.999 18.5s26.666 9.5 51.999 9.5
c17.333 0 31.166 -4.66699 41.499 -14s15.5 -20.333 15.5 -33c0 -10.667 -4.33301 -29.334 -13 -56.001s-24 -65 -46 -115l-33 -77c-8.66699 -20.667 -13 -35.667 -13 -45c0 -14 8.66699 -21 26 -21c4 0 12 6 24 18s25 26.167 39 42.5s27.5 33 40.5 50
s22.5 30.833 28.5 41.5c8.66699 14 16.667 28.5 24 43.5s14.333 31.5 21 49.5c7.33301 19.333 13.166 38.166 17.499 56.499s6.5 30.833 6.5 37.5c0 7.33301 4.83301 12.833 14.5 16.5s30.5 5.5 62.5 5.5c9.33301 0 16.833 -1 22.5 -3s9.83398 -4.66699 12.501 -8
s4.33398 -7 5.00098 -11s1 -8.33301 1 -13c0 -11.333 -7.16699 -33.666 -21.5 -66.999s-30.833 -78.666 -49.5 -135.999c-12.667 -39.333 -22.167 -67.833 -28.5 -85.5s-9.5 -29.167 -9.5 -34.5c0 -4.66699 1.5 -8.5 4.5 -11.5s6.5 -4.5 10.5 -4.5s9.16699 2.33301 15.5 7
s12.666 10.167 18.999 16.5s12 12.5 17 18.5s8.5 10.333 10.5 13c2 4.66699 5 5 9 1l11 -9c2.66699 -2.66699 3 -6.33398 1 -11.001c-0.666992 -0.666992 -5 -6.16699 -13 -16.5s-19 -21.666 -33 -33.999s-30.167 -23.5 -48.5 -33.5s-38.166 -15 -59.499 -15
c-16.667 0 -29.834 3.66699 -39.501 11s-14.5 19.666 -14.5 36.999c0 4.66699 2.16699 13.334 6.5 26.001s9.16602 25.834 14.499 39.501l15.5 38c5 11.667 8.16699 19.167 9.5 22.5l-12 6c-4 -6.66699 -10 -16 -18 -28s-17.5 -25 -28.5 -39s-23.167 -28.167 -36.5 -42.5
s-27 -27.166 -41 -38.499s-28.167 -20.166 -42.5 -26.499s-28.166 -8.16602 -41.499 -5.49902z" />
    <glyph glyph-name="paragraph" unicode="&#xb6;" 
d="M259 -126c-1.33301 -5.33301 -2.50098 -9.00195 -3.50098 -11.002s-3.16699 -3 -6.5 -3h-37c-3.33301 0 -3.66602 5.33301 -0.999023 16l86 329c-26 0 -54 3.5 -84 10.5s-56.167 19.333 -78.5 37s-38.5 41.667 -48.5 72s-8 68.5 6 114.5
c11.333 38.667 32.666 71.834 63.999 99.501s67.666 50.834 108.999 69.501s84.833 33.334 130.5 44.001s88.834 18.667 129.501 24c24.667 3.33301 43.667 5.66602 57 6.99902s25.333 2 36 2c5.33301 0 7.66602 -2.33301 6.99902 -7l-7 -27
c-1.33301 -4.66699 -4.66602 -7.33398 -9.99902 -8.00098c-6 -0.666992 -13.667 -1.66699 -23 -3s-17.333 -2.66602 -24 -3.99902l-201 -768c-0.666992 -5.33301 -3.66699 -8 -9 -8h-34c-3.33301 0 -5.16602 0.666992 -5.49902 2s0.166992 4.66602 1.5 9.99902l198 760
c-5.33301 -1.33301 -14.5 -3.16602 -27.5 -5.49902s-23.5 -4.5 -31.5 -6.5z" />
    <glyph glyph-name="periodcentered" unicode="&#xb7;" horiz-adv-x="250" 
d="M167 272c-20.667 0 -37.666 6.66602 -50.999 19.999s-20 31 -20 53c0 8 1.5 16.333 4.5 25s7.5 16.334 13.5 23.001s13.333 12.167 22 16.5s19 6.5 31 6.5c13.333 0 24.666 -2.33301 33.999 -7s17 -10.667 23 -18s10.333 -15.333 13 -24s4 -17 4 -25
c0 -19.333 -6.5 -35.833 -19.5 -49.5s-31.167 -20.5 -54.5 -20.5z" />
    <glyph glyph-name="cedilla" unicode="&#xb8;" horiz-adv-x="265" 
d="M106 0l-55 -71c47.333 -14 71 -34.667 71 -62c0 -16 -6.16699 -29.5 -18.5 -40.5s-27.333 -20 -45 -27s-36 -12 -55 -15s-35.5 -4.5 -49.5 -4.5c-7.33301 0 -12.333 1.66699 -15 5s-4 7.66602 -4 12.999c0 10.667 6 16 18 16c18.667 0 35.667 4.83301 51 14.5
s23 20.5 23 32.5c0 8.66699 -3.33301 17.334 -10 26.001s-16 15.667 -28 21l73 92h44z" />
    <glyph glyph-name="onesuperior" unicode="&#xb9;" horiz-adv-x="336" 
d="M171 502l42 131.998c6 18 9.83301 29.833 11.5 35.5s2.5 9.5 2.5 11.5c0 5.33301 -2.66699 8 -8 8c-3.33301 0 -7.16602 -0.666992 -11.499 -2s-11.166 -3.33301 -20.499 -6l-35 -10c-4.66699 -2.66699 -7.66699 -1.33398 -9 3.99902l-6 15
c-0.666992 2.66699 0.666016 5 3.99902 7l174 69c12.667 5.33301 22 8 28 8c7.33301 0 11 -2.66699 11 -8c0 -1.33301 -0.333008 -3.66602 -1 -6.99902s-2 -7.66602 -4 -12.999c-2.66699 -6.66699 -6 -15.667 -10 -27l-13 -37.5l-14.5 -42.5l-13.5 -40l-29 -89l-16.5 -48
c-4.33301 -12.667 -6.5 -21.667 -6.5 -27c0 -4.66699 1.33301 -9 4 -13s8.66699 -6 18 -6h27c4.66699 0 6.33398 -1.66699 5.00098 -5l-3 -22c-0.666992 -3.33301 -2.66699 -5 -6 -5c-1.33301 0 -6 0.166992 -14 0.5s-17 0.666016 -27 0.999023l-30.5 1
c-10.333 0.333008 -18.5 0.5 -24.5 0.5c-10 0 -21.667 -0.166992 -35 -0.5s-26 -0.666016 -38 -0.999023s-22.5 -0.666016 -31.5 -0.999023s-14.167 -0.5 -15.5 -0.5c-2 0 -3 1.66699 -3 5l4 22c1.33301 3.33301 3.66602 5 6.99902 5h22c8 0 15.667 1.16699 23 3.5
s14.333 8.5 21 18.5c3.33301 5.33301 6.16602 12.333 8.49902 21s6.83301 23 13.5 43z" />
    <glyph glyph-name="ordmasculine" unicode="&#xba;" horiz-adv-x="349" 
d="M178 293c15.333 0 29.833 7.66699 43.5 23s25.5 33 35.5 53s17.833 39.167 23.5 57.5s8.5 30.5 8.5 36.5c0 10.667 -3.33301 19.167 -10 25.5s-15.667 9.5 -27 9.5c-14.667 0 -29.5 -7.83301 -44.5 -23.5s-29.5 -38.5 -43.5 -68.5c-6 -12 -11 -25.833 -15 -41.5
s-6 -28.167 -6 -37.5s3.33301 -17.333 10 -24s15 -10 25 -10zM187 251c-14 0 -27.8311 2.33398 -41.498 7.00098s-25.834 12 -36.501 22s-19.167 22.833 -25.5 38.5s-9.5 34.5 -9.5 56.5c0 19.333 4.16699 40.333 12.5 63s20.5 42 36.5 58
c19.333 19.333 38.333 31.833 57 37.5s40.667 8.5 66 8.5c16.667 0 31.667 -3 45 -9s24.833 -13.667 34.5 -23s17 -20 22 -32s7.5 -24 7.5 -36c0 -10.667 -0.5 -22 -1.5 -34s-3.33301 -24.5 -7 -37.5s-9.16699 -26.167 -16.5 -39.5s-17 -26 -29 -38
c-14 -14.667 -29.333 -25.334 -46 -32.001s-39.334 -10 -68.001 -10z" />
    <glyph glyph-name="guillemotright" unicode="&#xbb;" horiz-adv-x="375" 
d="M350 248c2.66699 -2.66699 4.00098 -4.66895 4.00098 -6.00195s-1.66699 -3.66602 -5 -6.99902l-155 -145c-2.66699 -2.66699 -4.66699 -4 -6 -4s-3 1 -5 3l-11 11c-2.66699 2.66699 -4 5 -4 7c0 0.666992 1.66699 3.66699 5 9l71 121l-42 123
c-1.33301 2.66699 -2.33301 4.33398 -3 5.00098s-1 1.66699 -1 3c0 2 1.33301 4.33301 4 7l12 11c1.33301 1.33301 2.66602 2 3.99902 2c2.66699 0 5 -1.33301 7 -4zM200.001 247.998c2.66699 -2.66699 4.00098 -4.66895 4.00098 -6.00195s-1.66699 -3.66602 -5 -6.99902
l-155 -145c-2.66699 -2.66699 -4.66699 -4 -6 -4s-3 1 -5 3l-11 11c-2.66699 2.66699 -4 5 -4 7c0 0.666992 1.66699 3.66699 5 9l71 121l-42 123c-1.33301 2.66699 -2.33301 4.33398 -3 5.00098s-1 1.66699 -1 3c0 2 1.33301 4.33301 4 7l12 11
c1.33301 1.33301 2.66602 2 3.99902 2c2.66699 0 5 -1.33301 7 -4z" />
    <glyph glyph-name="onequarter" unicode="&#xbc;" horiz-adv-x="750" 
d="M620 626c3.33301 -1.33301 4.99902 -3.33301 4.99902 -6c0 -4 -1.33301 -7.66699 -4 -11l-404 -616c-3.33301 -5.33301 -6.66602 -8 -9.99902 -8c-1.33301 0 -2.66602 0.333008 -3.99902 1l-4 2l-26 18l-3.5 3.5c-1 1 -1.5 2.16699 -1.5 3.5
c0 3.33301 1.66699 7.33301 5 12l404 616c2 2.66699 5 4 9 4c1.33301 0 2.66602 -0.333008 3.99902 -1l4 -2zM189.999 505c6 18 9.83203 29.8311 11.499 35.498s2.5 9.5 2.5 11.5c0 5.33301 -2.66699 8 -8 8c-3.33301 0 -7.16602 -0.5 -11.499 -1.5
s-11.166 -3.16699 -20.499 -6.5l-35 -10c-4.66699 -2.66699 -7.66699 -1.33398 -9 3.99902l-6 15c-0.666992 2.66699 0.666016 5 3.99902 7l174 69c12.667 5.33301 22 8 28 8c7.33301 0 11 -2.66699 11 -8c0 -1.33301 -0.333008 -3.66602 -1 -6.99902
s-2 -7.66602 -4 -12.999c-2.66699 -6.66699 -6 -15.667 -10 -27l-13 -37.5l-14.5 -42.5l-13.5 -40l-29 -89l-16.5 -48c-4.33301 -12.667 -6.5 -21.667 -6.5 -27c0 -4.66699 1.33301 -9 4 -13s8.66699 -6 18 -6h27c4.66699 0 6.33398 -1.66699 5.00098 -5l-3 -22
c-0.666992 -3.33301 -2.66699 -5 -6 -5c-1.33301 0 -6 0.166992 -14 0.5s-17 0.666016 -27 0.999023l-30.5 1c-10.333 0.333008 -18.5 0.5 -24.5 0.5c-10 0 -21.667 -0.166992 -35 -0.5s-26 -0.666016 -38 -0.999023s-22.5 -0.666016 -31.5 -0.999023
s-14.167 -0.5 -15.5 -0.5c-2 0 -3 1.66699 -3 5l4 22c1.33301 3.33301 3.66602 5 6.99902 5h22c8 0 15.667 1.16699 23 3.5s14.333 8.5 21 18.5c3.33301 5.33301 6.33301 12.333 9 21l13 43zM559.998 140.998l41.999 104.001c2.66699 6.66699 2.33398 11 -0.999023 13
s-7.66602 1 -12.999 -3l-124 -102c-3.33301 -2.66699 -5.33301 -5.33398 -6 -8.00098s0.666016 -4 3.99902 -4h98zM394.997 84.999c-5.33301 0 -10.332 1.16602 -14.999 3.49902s-7 6.83301 -7 13.5c0 5.33301 2 10.333 6 15s8.66699 9.33398 14 14.001l304 247
c7.33301 6 15.333 9 24 9c5.33301 0 9.33301 -2.5 12 -7.5s2.66699 -11.167 0 -18.5l-85 -220h51c4.66699 0 5.66699 -3 3 -9l-16 -38l-4 -6c-1.33301 -2 -3 -3 -5 -3h-50l-27 -75c-2.66699 -6.66699 -6.33398 -10 -11.001 -10h-72c-2.66699 0 -4.66699 1 -6 3
s-1 5.66699 1 11l28 71h-145z" />
    <glyph glyph-name="onehalf" unicode="&#xbd;" horiz-adv-x="750" 
d="M426 0c-10 0 -15.0049 3.33496 -15.0049 10.002s2.66699 12 8 16l64 51c24.667 19.333 48 39.833 70 61.5s40.667 43.834 56 66.501s23 44.667 23 66c0 15.333 -4.33301 28.166 -13 38.499s-21.667 15.5 -39 15.5c-15.333 0 -29.333 -4.5 -42 -13.5s-22 -18.5 -28 -28.5
c-3.33301 -4.66699 -6.16602 -7.33398 -8.49902 -8.00098s-4.16602 -0.666992 -5.49902 0l-11 6c-3.33301 2 -4.33301 5 -3 9c2.66699 7.33301 7.33398 16.5 14.001 27.5s15.834 21.667 27.501 32s25.667 19.166 42 26.499s35.5 11 57.5 11c35.333 0 61.5 -8.66699 78.5 -26
s25.833 -41 26.5 -71c0 -16.667 -3.5 -32.834 -10.5 -48.501s-16.5 -30.5 -28.5 -44.5s-25.167 -27.167 -39.5 -39.5s-28.666 -23.666 -42.999 -33.999s-27.666 -19.333 -39.999 -27s-21.833 -13.834 -28.5 -18.501l-2 -6h86c16.667 0 29.5 2.83301 38.5 8.5
s17.833 15.5 26.5 29.5c3.33301 5.33301 6.66602 6.33301 9.99902 3l11 -7c2.66699 -3.33301 3 -6 1 -8c-3.33301 -5.33301 -7 -12.666 -11 -21.999l-12 -29c-4 -10 -7.66699 -19.667 -11 -29s-5.66602 -17 -6.99902 -23c-0.666992 -4 -4 -6 -10 -6
c-4.66699 0 -9 2.33301 -13 7c-2.66699 2.66699 -17.334 4 -44.001 4h-175zM616.995 626.002c3.33301 -1.33301 4.99902 -3.33301 4.99902 -6c0 -4 -1.33301 -7.66699 -4 -11l-404 -616c-3.33301 -5.33301 -6.66602 -8 -9.99902 -8c-1.33301 0 -2.66602 0.333008 -3.99902 1
l-4 2l-26 18l-3.5 3.5c-1 1 -1.5 2.16699 -1.5 3.5c0 3.33301 1.66699 7.33301 5 12l404 616c2 2.66699 5 4 9 4c1.33301 0 2.66602 -0.333008 3.99902 -1l4 -2zM189.994 505.002c6 18 9.83203 29.8311 11.499 35.498s2.5 9.5 2.5 11.5c0 5.33301 -2.66699 8 -8 8
c-3.33301 0 -7.16602 -0.5 -11.499 -1.5s-11.166 -3.16699 -20.499 -6.5l-35 -10c-4.66699 -2.66699 -7.66699 -1.33398 -9 3.99902l-6 15c-0.666992 2.66699 0.666016 5 3.99902 7l174 69c12.667 5.33301 22 8 28 8c7.33301 0 11 -2.66699 11 -8
c0 -1.33301 -0.333008 -3.66602 -1 -6.99902s-2 -7.66602 -4 -12.999c-2.66699 -6.66699 -6 -15.667 -10 -27l-13 -37.5l-14.5 -42.5l-13.5 -40l-29 -89l-16.5 -48c-4.33301 -12.667 -6.5 -21.667 -6.5 -27c0 -4.66699 1.33301 -9 4 -13s8.66699 -6 18 -6h27
c4.66699 0 6.33398 -1.66699 5.00098 -5l-3 -22c-0.666992 -3.33301 -2.66699 -5 -6 -5c-1.33301 0 -6 0.166992 -14 0.5s-17 0.666016 -27 0.999023l-30.5 1c-10.333 0.333008 -18.5 0.5 -24.5 0.5c-10 0 -21.667 -0.166992 -35 -0.5s-26 -0.666016 -38 -0.999023
s-22.5 -0.666016 -31.5 -0.999023s-14.167 -0.5 -15.5 -0.5c-2 0 -3 1.66699 -3 5l4 22c1.33301 3.33301 3.66602 5 6.99902 5h22c8 0 15.667 1.16699 23 3.5s14.333 8.5 21 18.5c3.33301 5.33301 6.33301 12.333 9 21l13 43z" />
    <glyph glyph-name="threequarters" unicode="&#xbe;" horiz-adv-x="750" 
d="M575 141l41.999 104.001c2.66699 6.66699 2.33398 11 -0.999023 13s-7.66602 1 -12.999 -3l-124 -102c-3.33301 -2.66699 -5.33301 -5.33398 -6 -8.00098s0.666016 -4 3.99902 -4h98zM409.999 85.001c-5.33301 0 -10.332 1.16602 -14.999 3.49902s-7 6.83301 -7 13.5
c0 5.33301 2 10.333 6 15s8.66699 9.33398 14 14.001l304 247c7.33301 6 15.333 9 24 9c5.33301 0 9.33301 -2.5 12 -7.5s2.66699 -11.167 0 -18.5l-85 -220h51c4.66699 0 5.66699 -3 3 -9l-16 -38l-4 -6c-1.33301 -2 -3 -3 -5 -3h-50l-27 -75
c-2.66699 -6.66699 -6.33398 -10 -11.001 -10h-72c-2.66699 0 -4.66699 1 -6 3s-1 5.66699 1 11l28 71h-145zM138 251c-32 0 -56.165 7.16211 -72.498 21.4951s-24.5 29.5 -24.5 45.5c0 12 2.5 21.5 7.5 28.5s12.833 10.5 23.5 10.5c14.667 0 24.167 -4.66699 28.5 -14
s6.16602 -19.666 5.49902 -30.999c-0.666992 -5.33301 2.33301 -11.333 9 -18s16.667 -10 30 -10c12 0 23.333 2.83301 34 8.5s20.167 13.167 28.5 22.5s14.833 20.333 19.5 33s7 26 7 40c0 16 -3.66699 30.5 -11 43.5s-18.666 21.167 -33.999 24.5
c-4.66699 1.33301 -7.66699 3 -9 5s-2 4 -2 6c0 2.66699 0.5 4.83398 1.5 6.50098s3.83301 3.16699 8.5 4.5c23.333 4 42.333 12.333 57 25s22 28 22 46c0 9.33301 -3.33301 19 -10 29s-19 15 -37 15c-23.333 0 -45.333 -12.333 -66 -37c-4 -4 -8 -5 -12 -3l-11 9
c-1.33301 2 -1 5.33301 1 10c3.33301 6 8.16602 13.167 14.499 21.5s14.833 16.333 25.5 24s24 14.167 40 19.5s35 8 57 8c15.333 0 28.666 -1.83301 39.999 -5.5s20.666 -8.5 27.999 -14.5s12.666 -12.667 15.999 -20s5 -14.333 5 -21c0 -24 -8.33301 -44.667 -25 -62
s-39.667 -31.666 -69 -42.999c25.333 -9.33301 42.833 -21.166 52.5 -35.499s14.5 -31.166 14.5 -50.499c0 -20 -5 -38.667 -15 -56s-23.667 -32.333 -41 -45s-37.666 -22.667 -60.999 -30s-48.666 -11 -75.999 -11zM639.002 625.995
c3.33301 -1.33301 4.99902 -3.33301 4.99902 -6c0 -4 -1.33301 -7.66699 -4 -11l-404 -616c-3.33301 -5.33301 -6.66602 -8 -9.99902 -8c-1.33301 0 -2.66602 0.333008 -3.99902 1l-4 2l-26 18l-3.5 3.5c-1 1 -1.5 2.16699 -1.5 3.5c0 3.33301 1.66699 7.33301 5 12l404 616
c2 2.66699 5 4 9 4c1.33301 0 2.66602 -0.333008 3.99902 -1l4 -2z" />
    <glyph glyph-name="questiondown" unicode="&#xbf;" horiz-adv-x="425" 
d="M299 300c-15.333 0 -29.833 5.00098 -43.5 15.001s-20.5 25.333 -20.5 46c0 16 5.33301 31 16 45s26 21 46 21c19.333 0 34.666 -6.33301 45.999 -19s17 -28.334 17 -47.001c0 -6.66699 -1.33301 -13.5 -4 -20.5s-6.66699 -13.5 -12 -19.5s-11.666 -11 -18.999 -15
s-16 -6 -26 -6zM165 -296.999c-35.333 0 -63.8301 5.16992 -85.4971 15.5029s-38.5 22.5 -50.5 36.5s-20.167 28.333 -24.5 43s-6.5 26.667 -6.5 36c0 33.333 4.83301 63.333 14.5 90s23.334 50 41.001 70s38.5 37 62.5 51s50.333 25 79 33c34.667 10 62.5 20.667 83.5 32
s31.5 24.333 31.5 39c0 11.333 -3.83301 20.166 -11.5 26.499s-23.167 9.5 -46.5 9.5c-24 0 -43.667 -4.66699 -59 -14s-25 -16 -29 -20c-3.33301 -3.33301 -6.33301 -3 -9 1l-10 11c-2.66699 2.66699 -3.33398 5.33398 -2.00098 8.00098
c2.66699 4.66699 7.5 10.834 14.5 18.501s15.5 15.167 25.5 22.5s21.167 13.5 33.5 18.5s25.166 7.5 38.499 7.5c29.333 0 54.333 -8.5 75 -25.5s31 -43.833 31 -80.5c0 -24 -5.66699 -45.667 -17 -65s-25 -36.5 -41 -51.5s-32.667 -27.5 -50 -37.5s-31.666 -18 -42.999 -24
l-48 -25c-14.667 -8 -27.334 -17 -38.001 -27s-18.834 -21.5 -24.501 -34.5s-8.5 -28.833 -8.5 -47.5c0 -6.66699 1.33301 -14.334 4 -23.001s7.16699 -17 13.5 -25s14.666 -14.833 24.999 -20.5s23.5 -8.5 39.5 -8.5c32 0 58.667 7.83301 80 23.5s32 36.5 32 62.5
c0 15.333 -3.16699 25.666 -9.5 30.999s-12.166 8 -17.499 8c-8 0 -13.333 -3 -16 -9c1.33301 -3.33301 2.5 -6.83301 3.5 -10.5s1.5 -8.16699 1.5 -13.5c0 -13.333 -4.5 -25.166 -13.5 -35.499s-22.5 -15.5 -40.5 -15.5c-14.667 0 -25.834 4.66699 -33.501 14
s-11.5 21 -11.5 35c0 13.333 2.66699 25.166 8 35.499s12.5 19 21.5 26s19 12.167 30 15.5s22.167 5 33.5 5s22.5 -1.66699 33.5 -5s20.833 -8.33301 29.5 -15s15.667 -15.334 21 -26.001s8 -23.334 8 -38.001c0 -14 -3.66699 -28.5 -11 -43.5s-18 -28.833 -32 -41.5
s-31.5 -23 -52.5 -31s-45.167 -12 -72.5 -12z" />
    <glyph glyph-name="Agrave" unicode="&#xc0;" horiz-adv-x="657" 
d="M674 727c-1.33301 -1.33301 -3.66504 -1.33301 -6.99805 0l-155 71c-16 7.33301 -26 16 -30 26s-4.16699 19.667 -0.5 29s9.66699 17.333 18 24s16.5 10 24.5 10c11.333 0 20.166 -2.5 26.499 -7.5s12.166 -10.167 17.499 -15.5l111 -119c3.33301 -2 4 -4.66699 2 -8z
M463.001 336l74 248.999c2 7.33301 0.166992 11.833 -5.5 13.5s-10.5 -0.166016 -14.5 -5.49902l-205 -257h151zM285.001 299.999l-98.0039 -127c-17.333 -23.333 -32 -44.5 -44 -63.5s-18 -33.167 -18 -42.5s3.16699 -16.833 9.5 -22.5s16.833 -8.5 31.5 -8.5h25
c5.33301 0 7.66602 -3.33301 6.99902 -10l-3 -21c-0.666992 -2.66699 -1.66699 -4.66699 -3 -6s-4 -2 -8 -2c-5.33301 0 -19.166 0.5 -41.499 1.5s-55.5 1.5 -99.5 1.5c-38 0 -66.5 -0.5 -85.5 -1.5s-31.167 -1.5 -36.5 -1.5c-6 0 -8.66699 3 -8 9l4 22
c0.666992 5.33301 3 8 7 8h16c7.33301 0 16 1.66699 26 5s20.167 8 30.5 14s20.833 13.167 31.5 21.5s20.334 17.833 29.001 28.5l470 555c3.33301 3.33301 6.33301 5.66602 9 6.99902s7.33398 2 14.001 2c7.33301 0 17.333 0.666992 30 2s28.334 3.33301 47.001 6
c12.667 1.33301 22.667 3 30 5s13 3 17 3c8.66699 0 12 -3.33301 10 -10l-149 -555c-2.66699 -8.66699 -5.16699 -18.334 -7.5 -29.001s-3.5 -19.667 -3.5 -27c0 -8 3.5 -14.667 10.5 -20s15.5 -8 25.5 -8h21c6.66699 0 9.33398 -2.33301 8.00098 -7l-3 -23
c-0.666992 -2.66699 -1.66699 -4.83398 -3 -6.50098s-4.33301 -2.5 -9 -2.5c-6 0 -19.667 0.5 -41 1.5s-53.666 1.5 -96.999 1.5c-21.333 0 -39.5 -0.166992 -54.5 -0.5s-27.5 -0.666016 -37.5 -0.999023s-18.167 -0.666016 -24.5 -0.999023s-11.5 -0.5 -15.5 -0.5
c-8 0 -11.333 3.33301 -10 10l4 21c1.33301 5.33301 4 8 8 8h20c8 0 15.167 0.666992 21.5 2s12.5 4.83301 18.5 10.5s11.667 13.834 17 24.501s10.666 25 15.999 43l53 184h-167z" />
    <glyph glyph-name="Aacute" unicode="&#xc1;" horiz-adv-x="657" 
d="M562 739c-1.33301 3.33301 -0.333984 6.66699 2.99902 10l132 114c4.66699 4 10.334 8 17.001 12s14.334 6 23.001 6c12 0 21.833 -3.83301 29.5 -11.5s12.5 -16.667 14.5 -27s0.666992 -20.5 -4 -30.5s-13.334 -17.333 -26.001 -22l-175 -62
c-4 -2 -6.66699 -1.66699 -8 1zM462.999 336.001l74 248.999c2 7.33301 0.166992 11.833 -5.5 13.5s-10.5 -0.166016 -14.5 -5.49902l-205 -257h151zM284.999 300l-98.0039 -127c-17.333 -23.333 -32 -44.5 -44 -63.5s-18 -33.167 -18 -42.5s3.16699 -16.833 9.5 -22.5
s16.833 -8.5 31.5 -8.5h25c5.33301 0 7.66602 -3.33301 6.99902 -10l-3 -21c-0.666992 -2.66699 -1.66699 -4.66699 -3 -6s-4 -2 -8 -2c-5.33301 0 -19.166 0.5 -41.499 1.5s-55.5 1.5 -99.5 1.5c-38 0 -66.5 -0.5 -85.5 -1.5s-31.167 -1.5 -36.5 -1.5c-6 0 -8.66699 3 -8 9
l4 22c0.666992 5.33301 3 8 7 8h16c7.33301 0 16 1.66699 26 5s20.167 8 30.5 14s20.833 13.167 31.5 21.5s20.334 17.833 29.001 28.5l470 555c3.33301 3.33301 6.33301 5.66602 9 6.99902s7.33398 2 14.001 2c7.33301 0 17.333 0.666992 30 2s28.334 3.33301 47.001 6
c12.667 1.33301 22.667 3 30 5s13 3 17 3c8.66699 0 12 -3.33301 10 -10l-149 -555c-2.66699 -8.66699 -5.16699 -18.334 -7.5 -29.001s-3.5 -19.667 -3.5 -27c0 -8 3.5 -14.667 10.5 -20s15.5 -8 25.5 -8h21c6.66699 0 9.33398 -2.33301 8.00098 -7l-3 -23
c-0.666992 -2.66699 -1.66699 -4.83398 -3 -6.50098s-4.33301 -2.5 -9 -2.5c-6 0 -19.667 0.5 -41 1.5s-53.666 1.5 -96.999 1.5c-21.333 0 -39.5 -0.166992 -54.5 -0.5s-27.5 -0.666016 -37.5 -0.999023s-18.167 -0.666016 -24.5 -0.999023s-11.5 -0.5 -15.5 -0.5
c-8 0 -11.333 3.33301 -10 10l4 21c1.33301 5.33301 4 8 8 8h20c8 0 15.167 0.666992 21.5 2s12.5 4.83301 18.5 10.5s11.667 13.834 17 24.501s10.666 25 15.999 43l53 184h-167z" />
    <glyph glyph-name="Acircumflex" unicode="&#xc2;" horiz-adv-x="657" 
d="M638 785l-125.999 -56.999c-3.33301 -1.33301 -6.33301 -0.333008 -9 3l-7 12c-0.666992 1.33301 0 3.66602 2 6.99902l147 147c2.66699 3.33301 5.66699 4.83301 9 4.5s6 -2.5 8 -6.5l79 -148c2 -3.33301 1.33301 -6 -2 -8l-10 -9
c-2.66699 -2 -6.33398 -1.33301 -11.001 2zM463.001 336.001l74 248.999c2 7.33301 0.166992 11.833 -5.5 13.5s-10.5 -0.166016 -14.5 -5.49902l-205 -257h151zM285.001 300l-98.0039 -127c-17.333 -23.333 -32 -44.5 -44 -63.5s-18 -33.167 -18 -42.5
s3.16699 -16.833 9.5 -22.5s16.833 -8.5 31.5 -8.5h25c5.33301 0 7.66602 -3.33301 6.99902 -10l-3 -21c-0.666992 -2.66699 -1.66699 -4.66699 -3 -6s-4 -2 -8 -2c-5.33301 0 -19.166 0.5 -41.499 1.5s-55.5 1.5 -99.5 1.5c-38 0 -66.5 -0.5 -85.5 -1.5
s-31.167 -1.5 -36.5 -1.5c-6 0 -8.66699 3 -8 9l4 22c0.666992 5.33301 3 8 7 8h16c7.33301 0 16 1.66699 26 5s20.167 8 30.5 14s20.833 13.167 31.5 21.5s20.334 17.833 29.001 28.5l470 555c3.33301 3.33301 6.33301 5.66602 9 6.99902s7.33398 2 14.001 2
c7.33301 0 17.333 0.666992 30 2s28.334 3.33301 47.001 6c12.667 1.33301 22.667 3 30 5s13 3 17 3c8.66699 0 12 -3.33301 10 -10l-149 -555c-2.66699 -8.66699 -5.16699 -18.334 -7.5 -29.001s-3.5 -19.667 -3.5 -27c0 -8 3.5 -14.667 10.5 -20s15.5 -8 25.5 -8h21
c6.66699 0 9.33398 -2.33301 8.00098 -7l-3 -23c-0.666992 -2.66699 -1.66699 -4.83398 -3 -6.50098s-4.33301 -2.5 -9 -2.5c-6 0 -19.667 0.5 -41 1.5s-53.666 1.5 -96.999 1.5c-21.333 0 -39.5 -0.166992 -54.5 -0.5s-27.5 -0.666016 -37.5 -0.999023
s-18.167 -0.666016 -24.5 -0.999023s-11.5 -0.5 -15.5 -0.5c-8 0 -11.333 3.33301 -10 10l4 21c1.33301 5.33301 4 8 8 8h20c8 0 15.167 0.666992 21.5 2s12.5 4.83301 18.5 10.5s11.667 13.834 17 24.501s10.666 25 15.999 43l53 184h-167z" />
    <glyph glyph-name="Atilde" unicode="&#xc3;" horiz-adv-x="657" 
d="M467 755c-2 2 -2.33105 5.33203 -0.998047 9.99902c3.33301 10.667 8.16602 21.5 14.499 32.5s13.333 20.833 21 29.5s15.667 15.834 24 21.501s16.166 8.5 23.499 8.5c15.333 0 28.833 -1.33301 40.5 -4l46.5 -11c12.667 -3.33301 24 -5.5 34 -6.5s18.667 -1.5 26 -1.5
c13.333 0 24.166 3 32.499 9s14.5 12.667 18.5 20c2 4.66699 4.66699 6 8 4l15 -8c2 -1.33301 3 -3.33301 3 -6s-1.66699 -7.66699 -5 -15c-4 -8.66699 -8.83301 -17.5 -14.5 -26.5s-12 -17.333 -19 -25s-14.667 -13.834 -23 -18.501s-16.833 -7 -25.5 -7
c-10 0 -21.167 0.833008 -33.5 2.5s-26.5 4.5 -42.5 8.5c-17.333 4.66699 -31.666 7.83398 -42.999 9.50098s-20.666 2.5 -27.999 2.5c-8.66699 0 -18 -3.33301 -28 -10s-17.667 -14.667 -23 -24c-2.66699 -4 -5.33398 -5 -8.00098 -3zM463.002 335.999l74 248.999
c2 7.33301 0.166992 11.833 -5.5 13.5s-10.5 -0.166016 -14.5 -5.49902l-205 -257h151zM285.002 299.998l-98.0039 -127c-17.333 -23.333 -32 -44.5 -44 -63.5s-18 -33.167 -18 -42.5s3.16699 -16.833 9.5 -22.5s16.833 -8.5 31.5 -8.5h25
c5.33301 0 7.66602 -3.33301 6.99902 -10l-3 -21c-0.666992 -2.66699 -1.66699 -4.66699 -3 -6s-4 -2 -8 -2c-5.33301 0 -19.166 0.5 -41.499 1.5s-55.5 1.5 -99.5 1.5c-38 0 -66.5 -0.5 -85.5 -1.5s-31.167 -1.5 -36.5 -1.5c-6 0 -8.66699 3 -8 9l4 22
c0.666992 5.33301 3 8 7 8h16c7.33301 0 16 1.66699 26 5s20.167 8 30.5 14s20.833 13.167 31.5 21.5s20.334 17.833 29.001 28.5l470 555c3.33301 3.33301 6.33301 5.66602 9 6.99902s7.33398 2 14.001 2c7.33301 0 17.333 0.666992 30 2s28.334 3.33301 47.001 6
c12.667 1.33301 22.667 3 30 5s13 3 17 3c8.66699 0 12 -3.33301 10 -10l-149 -555c-2.66699 -8.66699 -5.16699 -18.334 -7.5 -29.001s-3.5 -19.667 -3.5 -27c0 -8 3.5 -14.667 10.5 -20s15.5 -8 25.5 -8h21c6.66699 0 9.33398 -2.33301 8.00098 -7l-3 -23
c-0.666992 -2.66699 -1.66699 -4.83398 -3 -6.50098s-4.33301 -2.5 -9 -2.5c-6 0 -19.667 0.5 -41 1.5s-53.666 1.5 -96.999 1.5c-21.333 0 -39.5 -0.166992 -54.5 -0.5s-27.5 -0.666016 -37.5 -0.999023s-18.167 -0.666016 -24.5 -0.999023s-11.5 -0.5 -15.5 -0.5
c-8 0 -11.333 3.33301 -10 10l4 21c1.33301 5.33301 4 8 8 8h20c8 0 15.167 0.666992 21.5 2s12.5 4.83301 18.5 10.5s11.667 13.834 17 24.501s10.666 25 15.999 43l53 184h-167z" />
    <glyph glyph-name="Adieresis" unicode="&#xc4;" horiz-adv-x="657" 
d="M721 748c-6 0 -12.332 0.666992 -18.999 2s-12.834 4 -18.501 8s-10.5 9.66699 -14.5 17s-6 16.666 -6 27.999c0 4 0.833008 8.66699 2.5 14s4.5 10.5 8.5 15.5s9.83301 9.33301 17.5 13s17.5 5.5 29.5 5.5c14 0 26.167 -4.33301 36.5 -13s15.5 -21.667 15.5 -39
c0 -15.333 -5 -27.666 -15 -36.999s-22.333 -14 -37 -14zM523.001 748c-6 0 -12.332 0.666992 -18.999 2s-12.834 4 -18.501 8s-10.5 9.66699 -14.5 17s-6 16.666 -6 27.999c0 4 0.833008 8.66699 2.5 14s4.5 10.5 8.5 15.5s9.83301 9.33301 17.5 13s17.5 5.5 29.5 5.5
c14 0 26.167 -4.33301 36.5 -13s15.5 -21.667 15.5 -39c0 -15.333 -5 -27.666 -15 -36.999s-22.333 -14 -37 -14zM463.002 336l74 248.999c2 7.33301 0.166992 11.833 -5.5 13.5s-10.5 -0.166016 -14.5 -5.49902l-205 -257h151zM285.002 299.999l-98.0039 -127
c-17.333 -23.333 -32 -44.5 -44 -63.5s-18 -33.167 -18 -42.5s3.16699 -16.833 9.5 -22.5s16.833 -8.5 31.5 -8.5h25c5.33301 0 7.66602 -3.33301 6.99902 -10l-3 -21c-0.666992 -2.66699 -1.66699 -4.66699 -3 -6s-4 -2 -8 -2c-5.33301 0 -19.166 0.5 -41.499 1.5
s-55.5 1.5 -99.5 1.5c-38 0 -66.5 -0.5 -85.5 -1.5s-31.167 -1.5 -36.5 -1.5c-6 0 -8.66699 3 -8 9l4 22c0.666992 5.33301 3 8 7 8h16c7.33301 0 16 1.66699 26 5s20.167 8 30.5 14s20.833 13.167 31.5 21.5s20.334 17.833 29.001 28.5l470 555
c3.33301 3.33301 6.33301 5.66602 9 6.99902s7.33398 2 14.001 2c7.33301 0 17.333 0.666992 30 2s28.334 3.33301 47.001 6c12.667 1.33301 22.667 3 30 5s13 3 17 3c8.66699 0 12 -3.33301 10 -10l-149 -555c-2.66699 -8.66699 -5.16699 -18.334 -7.5 -29.001
s-3.5 -19.667 -3.5 -27c0 -8 3.5 -14.667 10.5 -20s15.5 -8 25.5 -8h21c6.66699 0 9.33398 -2.33301 8.00098 -7l-3 -23c-0.666992 -2.66699 -1.66699 -4.83398 -3 -6.50098s-4.33301 -2.5 -9 -2.5c-6 0 -19.667 0.5 -41 1.5s-53.666 1.5 -96.999 1.5
c-21.333 0 -39.5 -0.166992 -54.5 -0.5s-27.5 -0.666016 -37.5 -0.999023s-18.167 -0.666016 -24.5 -0.999023s-11.5 -0.5 -15.5 -0.5c-8 0 -11.333 3.33301 -10 10l4 21c1.33301 5.33301 4 8 8 8h20c8 0 15.167 0.666992 21.5 2s12.5 4.83301 18.5 10.5
s11.667 13.834 17 24.501s10.666 25 15.999 43l53 184h-167z" />
    </font>
</defs>
</svg>
