<svg xmlns="http://www.w3.org/2000/svg" xmlns:xlink="http://www.w3.org/1999/xlink" viewBox="0 0 34 34"><defs><style>.a,.b,.d{fill:#7a7a7a;}.a{clip-rule:evenodd;}.b{fill-rule:evenodd;}.c{clip-path:url(#a);}</style><clipPath id="a" transform="translate(-23.12 19.63)"><path class="a" d="M40.12-14.62a12,12,0,0,0-12,12,12,12,0,0,0,12,12,12,12,0,0,0,12-12A12,12,0,0,0,40.12-14.62Zm3.6,11.5h-2.1v7h-3v-7h-2v-2h2V-6.29c0-1.1.35-2.82,2.65-2.82h2.35V-6.8H42.22a0.57,0.57,0,0,0-.59.65v1H44Z"/></clipPath></defs><title>facebook</title><path class="b" d="M40.12-14.62a12,12,0,0,0-12,12,12,12,0,0,0,12,12,12,12,0,0,0,12-12A12,12,0,0,0,40.12-14.62Zm3.6,11.5h-2.1v7h-3v-7h-2v-2h2V-6.29c0-1.1.35-2.82,2.65-2.82h2.35V-6.8H42.22a0.57,0.57,0,0,0-.59.65v1H44Z" transform="translate(-23.12 19.63)"/></svg>