<svg xmlns="http://www.w3.org/2000/svg" xmlns:xlink="http://www.w3.org/1999/xlink" viewBox="0 0 32 32"><defs><style>.a,.b,.d{fill:#7a7a7a;}.a{clip-rule:evenodd;}.b{fill-rule:evenodd;}.c{clip-path:url(#a);}.e{clip-path:url(#b);}.f{clip-path:url(#c);}.g{clip-path:url(#d);}</style><clipPath id="a" transform="translate(5 5)"><path class="a" d="M11,5a6,6,0,1,0,6,6,6,6,0,0,0-6-6"/></clipPath><clipPath id="b" transform="translate(5 5)"><path class="a" d="M3,0.05a3.42,3.42,0,0,0-1,.3V7.5H3V0.05Z"/></clipPath><clipPath id="c" transform="translate(5 5)"><path class="a" d="M5,7.42V0H4V7.5H4.95L5,7.42"/></clipPath><clipPath id="d" transform="translate(5 5)"><path class="a" d="M22,17.85V3.5A3.5,3.5,0,0,0,18.5,0H6V6.12A7,7,0,0,1,17.05,7.5H21V17.85A3.16,3.16,0,0,1,17.85,21H4.15A3.16,3.16,0,0,1,1,17.85V1.06A3.49,3.49,0,0,0,0,3.5V17.85A4.16,4.16,0,0,0,4.15,22h13.7A4.16,4.16,0,0,0,22,17.85M20.5,6h-3A0.5,0.5,0,0,1,17,5.5v-3A0.5,0.5,0,0,1,17.5,2h3a0.5,0.5,0,0,1,.5.5v3a0.5,0.5,0,0,1-.5.5"/></clipPath></defs><title>instagramm</title><path class="b" d="M11,5a6,6,0,1,0,6,6,6,6,0,0,0-6-6" transform="translate(5 5)"/><path class="b" d="M3,0.05a3.42,3.42,0,0,0-1,.3V7.5H3V0.05Z" transform="translate(5 5)"/><path class="b" d="M5,7.42V0H4V7.5H4.95L5,7.42" transform="translate(5 5)"/><path class="b" d="M22,17.85V3.5A3.5,3.5,0,0,0,18.5,0H6V6.12A7,7,0,0,1,17.05,7.5H21V17.85A3.16,3.16,0,0,1,17.85,21H4.15A3.16,3.16,0,0,1,1,17.85V1.06A3.49,3.49,0,0,0,0,3.5V17.85A4.16,4.16,0,0,0,4.15,22h13.7A4.16,4.16,0,0,0,22,17.85M20.5,6h-3A0.5,0.5,0,0,1,17,5.5v-3A0.5,0.5,0,0,1,17.5,2h3a0.5,0.5,0,0,1,.5.5v3a0.5,0.5,0,0,1-.5.5" transform="translate(5 5)"/></svg>