<svg xmlns="http://www.w3.org/2000/svg" viewBox="0 0 111.36 111.36"><defs><style>.a{fill:#2f2f2f;fill-rule:evenodd;}</style></defs><title>sub-logo</title><path class="a" d="M179-36.91a7.59,7.59,0,0,0-7.59,7.59A7.59,7.59,0,0,0,179-21.73a7.59,7.59,0,0,0,7.59-7.59A7.59,7.59,0,0,0,179-36.91Zm0-4.39a12,12,0,0,0-12,12,12,12,0,0,0,12,12,12,12,0,0,0,12-12A12,12,0,0,0,179-41.29ZM164.39-29.38a14.61,14.61,0,0,1,7.26-12.57c3.8-11.77,6.24-26.3,4.82-38.13a50.76,50.76,0,0,0-38.59,20.89c-0.6,1.64.45,3-1,5.53s-3.18,2.32-4.3,3.69a50.62,50.62,0,0,0-4.37,20.65,50.59,50.59,0,0,0,5.59,23.19h0C144.73-10.82,156.09-20.2,164.39-29.38Zm21.87,12.74A14.54,14.54,0,0,1,179-14.7a14.55,14.55,0,0,1-7.26-1.93c-12.1,2.6-25.9,7.74-35.43,14.89h0a50.8,50.8,0,0,0,37.38,23c1.73-.3,2.34-1.87,5.31-1.87s3.59,1.58,5.31,1.87a50.81,50.81,0,0,0,37.38-23h0C212.16-8.89,198.36-14,186.26-16.63Zm0.1-25.32a14.61,14.61,0,0,1,7.26,12.57c8.3,9.18,19.66,18.56,30.61,23.24h0a50.6,50.6,0,0,0,5.59-23.19A50.65,50.65,0,0,0,225.45-50c-1.12-1.37-2.8-1.1-4.3-3.69s-0.43-3.89-1-5.53a50.75,50.75,0,0,0-38.59-20.89C180.11-68.25,182.56-53.72,186.36-41.95ZM179-85a55.68,55.68,0,0,1,55.68,55.68A55.68,55.68,0,0,1,179,26.36a55.68,55.68,0,0,1-55.68-55.68A55.68,55.68,0,0,1,179-85Z" transform="translate(-123.32 85)"/></svg>