<svg xmlns="http://www.w3.org/2000/svg" viewBox="0 0 111.36 111.36"><defs><style>.a{fill:#fefefe;fill-rule:evenodd;}</style></defs><title>sub-logo</title><path class="a" d="M55.68,48.09a7.59,7.59,0,1,0,7.59,7.59A7.59,7.59,0,0,0,55.68,48.09Zm0-4.39a12,12,0,1,0,12,12A12,12,0,0,0,55.68,43.71ZM41.07,55.62a14.61,14.61,0,0,1,7.26-12.57c3.8-11.77,6.24-26.3,4.82-38.13A50.76,50.76,0,0,0,14.56,25.82c-0.6,1.64.45,3-1,5.53S10.35,33.66,9.23,35a50.91,50.91,0,0,0,1.22,43.84h0C21.41,74.18,32.77,64.8,41.07,55.62ZM62.94,68.37a14.63,14.63,0,0,1-14.52,0C36.33,71,22.52,76.11,13,83.26h0a50.8,50.8,0,0,0,37.38,23c1.73-.3,2.34-1.87,5.31-1.87s3.59,1.58,5.31,1.87a50.81,50.81,0,0,0,37.38-23h0C88.84,76.11,75,71,62.94,68.37ZM63,43.05a14.61,14.61,0,0,1,7.26,12.57C78.59,64.8,90,74.18,100.91,78.87h0A50.92,50.92,0,0,0,102.13,35c-1.12-1.37-2.8-1.1-4.3-3.69s-0.43-3.89-1-5.53A50.75,50.75,0,0,0,58.22,4.92C56.79,16.75,59.24,31.28,63,43.05ZM55.68,0A55.68,55.68,0,1,1,0,55.68,55.68,55.68,0,0,1,55.68,0Z"/></svg>